<svg xmlns="http://www.w3.org/2000/svg" xmlns:xlink="http://www.w3.org/1999/xlink" width="500" zoomAndPan="magnify" viewBox="0 0 375 74.999997" height="100" preserveAspectRatio="xMidYMid meet" version="1.0"><defs><g/></defs><path fill="#ac6943" d="M 62.902344 17.90625 C 70.402344 29.308594 65.964844 41.265625 52.980469 44.625 C 40.003906 47.972656 23.390625 41.457031 15.886719 30.058594 C 8.382812 18.660156 12.820312 6.703125 25.804688 3.34375 C 38.789062 -0.00390625 55.398438 6.511719 62.902344 17.90625 " fill-opacity="1" fill-rule="nonzero"/><path fill="#804d30" d="M 36.378906 22.1875 C 36.207031 21.585938 36.03125 20.984375 35.847656 20.390625 C 35.445312 19.011719 35.03125 17.660156 34.574219 16.359375 C 34.097656 15.066406 33.621094 13.824219 33.0625 12.671875 C 32.488281 11.523438 31.902344 10.445312 31.269531 9.480469 C 30.007812 7.546875 28.644531 6.011719 27.578125 4.964844 C 26.503906 3.917969 25.804688 3.351562 25.808594 3.34375 C 25.804688 3.351562 26.910156 3.816406 28.507812 4.726562 C 30.105469 5.632812 32.148438 6.988281 33.972656 8.78125 C 34.890625 9.679688 35.796875 10.671875 36.570312 11.769531 C 37.367188 12.855469 38.117188 14.027344 38.746094 15.289062 C 39.378906 16.535156 39.9375 17.851562 40.425781 19.210938 C 40.730469 20.09375 41.015625 20.988281 41.292969 21.886719 C 41.269531 21.886719 41.246094 21.886719 41.222656 21.886719 C 39.636719 21.886719 38.015625 21.988281 36.378906 22.1875 " fill-opacity="1" fill-rule="nonzero"/><path fill="#b3744f" d="M 44.851562 22.074219 C 44.46875 22.035156 44.078125 22 43.6875 21.972656 C 43.671875 21.925781 43.65625 21.878906 43.636719 21.832031 C 43.382812 21.121094 43.128906 20.457031 42.871094 19.84375 C 42.339844 18.625 41.8125 17.621094 41.410156 16.925781 C 41 16.230469 40.753906 15.835938 40.753906 15.835938 C 40.753906 15.835938 41.128906 16.207031 41.683594 16.878906 C 42.242188 17.550781 42.964844 18.515625 43.660156 19.714844 C 44.003906 20.3125 44.351562 20.957031 44.667969 21.65625 C 44.726562 21.792969 44.789062 21.933594 44.851562 22.074219 " fill-opacity="1" fill-rule="nonzero"/><path fill="#b3744f" d="M 32.488281 22.835938 C 32.277344 22.109375 32.078125 21.375 31.878906 20.648438 C 31.667969 19.808594 31.453125 18.972656 31.222656 18.144531 C 31 17.324219 30.78125 16.515625 30.546875 15.734375 C 30.3125 14.957031 30.085938 14.207031 29.832031 13.496094 C 29.570312 12.785156 29.3125 12.125 29.054688 11.515625 C 28.53125 10.289062 28.003906 9.285156 27.601562 8.589844 C 27.199219 7.890625 26.941406 7.503906 26.941406 7.503906 C 26.941406 7.503906 27.320312 7.871094 27.867188 8.546875 C 28.425781 9.210938 29.15625 10.179688 29.84375 11.378906 C 30.195312 11.972656 30.539062 12.621094 30.851562 13.324219 C 31.179688 14.019531 31.488281 14.757812 31.773438 15.53125 C 32.050781 16.304688 32.316406 17.101562 32.558594 17.925781 C 32.796875 18.742188 33.027344 19.578125 33.261719 20.414062 C 33.449219 21.132812 33.640625 21.859375 33.828125 22.574219 C 33.382812 22.652344 32.933594 22.742188 32.488281 22.835938 " fill-opacity="1" fill-rule="nonzero"/><path fill="#4f2217" d="M 85.011719 53.710938 C 87.007812 62.355469 104.210938 68.046875 123.609375 66.460938 C 143.007812 64.859375 157.28125 56.578125 155.652344 47.910156 L 85.011719 53.710938 " fill-opacity="1" fill-rule="nonzero"/><path fill="#6b3022" d="M 118.066406 39.964844 C 137.570312 38.359375 154.414062 41.917969 155.660156 47.90625 C 156.921875 53.902344 142.117188 60.054688 122.601562 61.65625 C 103.089844 63.261719 86.257812 59.703125 85.003906 53.710938 C 83.746094 47.726562 98.546875 41.566406 118.066406 39.964844 " fill-opacity="1" fill-rule="nonzero"/><path fill="#512318" d="M 125.289062 51.921875 C 123.722656 51.921875 122.140625 51.910156 120.5625 51.894531 C 118.308594 51.863281 116.054688 51.828125 113.84375 51.820312 C 112.578125 51.808594 111.328125 51.796875 110.097656 51.796875 C 110.96875 51.136719 111.8125 50.441406 112.613281 49.71875 C 112.875 49.714844 113.136719 49.710938 113.398438 49.710938 C 114.046875 49.707031 114.695312 49.707031 115.347656 49.707031 C 116.925781 49.707031 118.511719 49.714844 120.105469 49.722656 C 122.359375 49.75 124.609375 49.773438 126.828125 49.800781 C 128.40625 49.8125 129.96875 49.824219 131.5 49.824219 C 132.113281 49.824219 132.71875 49.820312 133.320312 49.816406 C 135.425781 49.792969 137.453125 49.765625 139.367188 49.683594 C 141.28125 49.601562 143.085938 49.503906 144.738281 49.375 C 148.050781 49.101562 150.785156 48.738281 152.683594 48.433594 C 154.570312 48.125 155.640625 47.90625 155.660156 47.90625 C 155.652344 47.90625 154.617188 48.3125 152.773438 48.859375 C 150.925781 49.417969 148.261719 50.097656 145 50.621094 C 143.371094 50.890625 141.597656 51.132812 139.707031 51.316406 C 137.8125 51.5 135.8125 51.652344 133.722656 51.75 C 131.640625 51.84375 129.472656 51.894531 127.269531 51.914062 C 126.609375 51.921875 125.953125 51.921875 125.289062 51.921875 " fill-opacity="1" fill-rule="nonzero"/><path fill="#763c2b" d="M 135.566406 48.886719 C 134.972656 48.886719 134.367188 48.886719 133.757812 48.878906 C 132.445312 48.871094 131.109375 48.847656 129.777344 48.828125 C 128.445312 48.804688 127.109375 48.78125 125.792969 48.761719 C 124.480469 48.738281 123.183594 48.71875 121.9375 48.710938 C 121.132812 48.703125 120.34375 48.699219 119.582031 48.699219 C 119.15625 48.699219 118.734375 48.703125 118.324219 48.703125 C 117.171875 48.714844 116.082031 48.730469 115.078125 48.757812 C 114.558594 48.773438 114.058594 48.789062 113.582031 48.804688 C 113.691406 48.699219 113.796875 48.597656 113.902344 48.488281 C 114.289062 48.460938 114.695312 48.433594 115.109375 48.40625 C 116.117188 48.335938 117.210938 48.285156 118.363281 48.246094 C 119.511719 48.203125 120.730469 48.171875 121.980469 48.167969 C 122.6875 48.15625 123.402344 48.152344 124.132812 48.152344 C 124.695312 48.152344 125.265625 48.152344 125.84375 48.160156 C 127.15625 48.171875 128.496094 48.195312 129.828125 48.207031 C 131.160156 48.234375 132.496094 48.257812 133.816406 48.28125 C 135.121094 48.296875 136.421875 48.316406 137.671875 48.328125 C 138.402344 48.332031 139.121094 48.335938 139.824219 48.335938 C 140.320312 48.335938 140.804688 48.335938 141.28125 48.332031 C 142.433594 48.320312 143.519531 48.308594 144.527344 48.28125 C 146.53125 48.222656 148.207031 48.140625 149.386719 48.066406 C 150.5625 47.992188 151.234375 47.9375 151.234375 47.9375 C 151.234375 47.9375 150.5625 48.054688 149.375 48.195312 C 148.195312 48.335938 146.507812 48.507812 144.488281 48.636719 C 143.484375 48.695312 142.394531 48.757812 141.242188 48.792969 C 140.089844 48.832031 138.878906 48.863281 137.625 48.878906 C 136.949219 48.882812 136.261719 48.886719 135.566406 48.886719 " fill-opacity="1" fill-rule="nonzero"/><path fill="#ac6943" d="M 115.613281 46.632812 C 106.355469 57.503906 88.800781 62.96875 76.40625 58.828125 C 64.015625 54.691406 61.480469 42.515625 70.738281 31.636719 C 79.996094 20.753906 97.550781 15.292969 109.945312 19.433594 C 122.335938 23.578125 124.871094 35.75 115.613281 46.632812 " fill-opacity="1" fill-rule="nonzero"/><path fill="#804d30" d="M 88.375 45.136719 C 87.167969 44.539062 85.890625 43.972656 84.546875 43.4375 C 85.214844 42.847656 85.917969 42.257812 86.648438 41.667969 C 88 40.566406 89.472656 39.476562 90.925781 38.382812 C 92.421875 37.300781 93.914062 36.21875 95.34375 35.136719 C 96.78125 34.0625 98.191406 32.996094 99.496094 31.953125 C 100.78125 30.898438 102.011719 29.878906 103.074219 28.875 C 104.125 27.867188 105.078125 26.898438 105.867188 25.980469 C 107.445312 24.132812 108.46875 22.496094 109.078125 21.320312 C 109.679688 20.140625 109.9375 19.433594 109.945312 19.433594 C 109.9375 19.433594 110.066406 20.273438 109.964844 21.617188 C 109.867188 22.96875 109.5 24.816406 108.449219 26.839844 C 107.933594 27.855469 107.277344 28.917969 106.429688 29.996094 C 105.585938 31.074219 104.621094 32.183594 103.472656 33.285156 C 102.339844 34.386719 101.070312 35.496094 99.710938 36.59375 C 98.328125 37.6875 96.878906 38.789062 95.433594 39.882812 C 93.949219 40.972656 92.472656 42.0625 91.019531 43.128906 C 90.117188 43.804688 89.230469 44.472656 88.375 45.136719 " fill-opacity="1" fill-rule="nonzero"/><path fill="#b3744f" d="M 91.144531 46.628906 C 90.800781 46.425781 90.449219 46.226562 90.09375 46.03125 C 90.402344 45.804688 90.714844 45.578125 91.027344 45.355469 C 91.925781 44.71875 92.820312 44.082031 93.683594 43.445312 C 94.558594 42.820312 95.414062 42.199219 96.230469 41.589844 C 97.035156 40.980469 97.816406 40.386719 98.53125 39.8125 C 99.234375 39.242188 99.898438 38.691406 100.476562 38.175781 C 101.652344 37.148438 102.550781 36.253906 103.148438 35.617188 C 103.75 34.976562 104.078125 34.601562 104.078125 34.601562 C 104.078125 34.601562 103.851562 35.023438 103.382812 35.71875 C 102.914062 36.414062 102.175781 37.382812 101.148438 38.476562 C 100.632812 39.023438 100.054688 39.605469 99.398438 40.203125 C 98.738281 40.796875 98.035156 41.421875 97.257812 42.042969 C 96.492188 42.675781 95.667969 43.3125 94.816406 43.949219 C 93.960938 44.585938 93.074219 45.230469 92.195312 45.875 C 91.84375 46.125 91.496094 46.375 91.144531 46.628906 " fill-opacity="1" fill-rule="nonzero"/><path fill="#b3744f" d="M 82.503906 42.671875 C 82.355469 42.621094 82.207031 42.566406 82.058594 42.515625 C 82.460938 41.996094 82.957031 41.40625 83.558594 40.777344 C 84.074219 40.222656 84.648438 39.644531 85.304688 39.046875 C 85.960938 38.449219 86.667969 37.828125 87.449219 37.207031 C 88.210938 36.574219 89.027344 35.9375 89.886719 35.296875 C 90.734375 34.652344 91.625 34.019531 92.507812 33.375 C 93.402344 32.742188 94.296875 32.105469 95.167969 31.472656 C 96.039062 30.839844 96.894531 30.214844 97.707031 29.609375 C 98.515625 29 99.296875 28.414062 100.007812 27.835938 C 100.710938 27.261719 101.375 26.710938 101.957031 26.203125 C 103.125 25.167969 104.023438 24.273438 104.628906 23.636719 C 105.222656 23.003906 105.546875 22.625 105.554688 22.625 C 105.554688 22.625 105.328125 23.046875 104.859375 23.742188 C 104.386719 24.433594 103.65625 25.402344 102.625 26.496094 C 102.113281 27.046875 101.53125 27.625 100.875 28.222656 C 100.21875 28.824219 99.511719 29.441406 98.738281 30.066406 C 97.96875 30.695312 97.148438 31.332031 96.292969 31.976562 C 95.433594 32.609375 94.558594 33.253906 93.675781 33.894531 C 92.78125 34.53125 91.894531 35.171875 91.015625 35.796875 C 90.148438 36.429688 89.289062 37.054688 88.476562 37.660156 C 87.667969 38.273438 86.890625 38.863281 86.179688 39.433594 C 85.46875 40.007812 84.8125 40.554688 84.226562 41.070312 C 83.5625 41.65625 82.984375 42.199219 82.503906 42.671875 " fill-opacity="1" fill-rule="nonzero"/><path fill="#6b3022" d="M 53.269531 51.402344 C 42.125 61.566406 23.707031 65.769531 12.132812 60.785156 C 0.558594 55.804688 0.207031 43.53125 11.351562 33.363281 C 22.496094 23.199219 40.910156 19.003906 52.484375 23.984375 C 64.058594 28.964844 64.410156 41.242188 53.269531 51.402344 " fill-opacity="1" fill-rule="nonzero"/><path fill="#512318" d="M 12.140625 60.785156 C 12.144531 60.785156 12.164062 59.945312 12.5 58.617188 C 12.847656 57.285156 13.542969 55.472656 14.945312 53.535156 C 15.632812 52.558594 16.46875 51.542969 17.511719 50.539062 C 18.535156 49.523438 19.695312 48.488281 21.035156 47.480469 C 22.363281 46.460938 23.8125 45.445312 25.375 44.449219 C 26.910156 43.445312 28.566406 42.460938 30.207031 41.476562 C 31.886719 40.511719 33.5625 39.535156 35.175781 38.566406 C 36.796875 37.597656 38.386719 36.636719 39.859375 35.691406 C 41.335938 34.738281 42.742188 33.804688 43.976562 32.882812 C 45.199219 31.953125 46.316406 31.0625 47.265625 30.203125 C 49.160156 28.480469 50.472656 26.929688 51.285156 25.792969 C 52.101562 24.667969 52.480469 23.984375 52.484375 23.984375 C 52.480469 23.984375 52.460938 24.824219 52.117188 26.152344 C 51.773438 27.488281 51.082031 29.296875 49.667969 31.238281 C 48.980469 32.210938 48.144531 33.222656 47.105469 34.234375 C 46.082031 35.242188 44.921875 36.28125 43.585938 37.292969 C 42.265625 38.3125 40.804688 39.324219 39.25 40.320312 C 37.683594 41.308594 36.046875 42.300781 34.417969 43.292969 C 32.75 44.265625 31.089844 45.246094 29.453125 46.207031 C 27.835938 47.179688 26.246094 48.128906 24.765625 49.082031 C 23.296875 50.035156 21.894531 50.96875 20.65625 51.886719 C 19.4375 52.816406 18.3125 53.710938 17.363281 54.570312 C 15.464844 56.296875 14.160156 57.847656 13.339844 58.976562 C 12.527344 60.101562 12.148438 60.785156 12.140625 60.785156 " fill-opacity="1" fill-rule="nonzero"/><path fill="#763c2b" d="M 15.257812 58.789062 C 15.257812 58.789062 15.546875 58.382812 16.136719 57.722656 C 16.730469 57.066406 17.632812 56.152344 18.851562 55.144531 C 19.457031 54.636719 20.140625 54.097656 20.902344 53.546875 C 21.652344 53 22.476562 52.4375 23.351562 51.867188 C 24.230469 51.292969 25.160156 50.71875 26.125 50.144531 C 27.082031 49.566406 28.074219 48.992188 29.066406 48.414062 C 30.074219 47.847656 31.074219 47.277344 32.050781 46.710938 C 33.027344 46.140625 33.984375 45.585938 34.90625 45.039062 C 35.820312 44.492188 36.699219 43.957031 37.507812 43.4375 C 38.308594 42.921875 39.058594 42.421875 39.742188 41.945312 C 41.082031 41.003906 42.140625 40.179688 42.851562 39.585938 C 43.558594 38.996094 43.945312 38.648438 43.945312 38.648438 C 43.945312 38.648438 43.652344 39.046875 43.054688 39.707031 C 42.515625 40.304688 41.726562 41.109375 40.671875 42.015625 C 38.101562 43.179688 36.023438 44.636719 34.605469 46.355469 C 34.109375 46.667969 33.601562 46.976562 33.082031 47.289062 C 32.117188 47.859375 31.121094 48.433594 30.136719 49.011719 C 29.132812 49.582031 28.136719 50.160156 27.15625 50.722656 C 26.171875 51.285156 25.214844 51.847656 24.296875 52.390625 C 23.382812 52.941406 22.5 53.476562 21.699219 53.992188 C 20.890625 54.515625 20.140625 55.015625 19.460938 55.484375 C 18.117188 56.425781 17.066406 57.25 16.351562 57.839844 C 15.644531 58.4375 15.257812 58.789062 15.257812 58.789062 " fill-opacity="1" fill-rule="nonzero"/><path fill="#763c2b" d="M 18.859375 46.984375 C 18.859375 46.984375 19.148438 46.585938 19.746094 45.925781 C 20.332031 45.265625 21.234375 44.355469 22.453125 43.339844 C 23.0625 42.839844 23.742188 42.300781 24.507812 41.753906 C 25.257812 41.199219 26.074219 40.628906 26.957031 40.0625 C 27.835938 39.496094 28.761719 38.917969 29.726562 38.34375 C 30.683594 37.765625 31.679688 37.191406 32.671875 36.617188 C 33.671875 36.046875 34.679688 35.480469 35.652344 34.90625 C 36.632812 34.347656 37.59375 33.785156 38.511719 33.238281 C 39.421875 32.6875 40.300781 32.15625 41.109375 31.640625 C 41.917969 31.117188 42.667969 30.621094 43.34375 30.148438 C 44.6875 29.203125 45.742188 28.378906 46.453125 27.785156 C 47.160156 27.195312 47.542969 26.847656 47.550781 26.847656 C 47.550781 26.847656 47.257812 27.246094 46.664062 27.902344 C 46.066406 28.5625 45.175781 29.476562 43.949219 30.488281 C 43.34375 30.996094 42.664062 31.535156 41.902344 32.078125 C 41.148438 32.628906 40.328125 33.199219 39.449219 33.765625 C 38.574219 34.339844 37.648438 34.910156 36.683594 35.492188 C 35.71875 36.058594 34.726562 36.632812 33.738281 37.210938 C 32.738281 37.789062 31.738281 38.359375 30.753906 38.921875 C 29.777344 39.492188 28.816406 40.046875 27.90625 40.59375 C 26.988281 41.140625 26.109375 41.675781 25.300781 42.195312 C 24.496094 42.714844 23.742188 43.214844 23.070312 43.6875 C 21.722656 44.628906 20.667969 45.453125 19.957031 46.042969 C 19.242188 46.636719 18.859375 46.984375 18.859375 46.984375 " fill-opacity="1" fill-rule="nonzero"/><path fill="#3a1314" d="M 76.339844 40.828125 C 94.632812 45.378906 105.261719 55.691406 100.085938 63.875 C 94.90625 72.046875 75.875 74.988281 57.582031 70.445312 C 39.292969 65.898438 28.660156 55.582031 33.84375 47.40625 C 39.019531 39.222656 58.050781 36.28125 76.339844 40.828125 " fill-opacity="1" fill-rule="nonzero"/><path fill="#2e0e0e" d="M 94.589844 64.164062 C 92.742188 64.164062 90.542969 64.066406 88.171875 63.765625 C 86.496094 63.5625 84.734375 63.277344 82.941406 62.863281 C 81.132812 62.464844 79.265625 61.980469 77.394531 61.394531 C 75.511719 60.808594 73.621094 60.148438 71.71875 59.417969 C 69.8125 58.695312 67.921875 57.90625 66.019531 57.121094 C 64.136719 56.3125 62.253906 55.503906 60.378906 54.734375 C 58.515625 53.957031 56.671875 53.203125 54.863281 52.503906 C 53.050781 51.824219 51.292969 51.167969 49.585938 50.625 C 47.863281 50.082031 46.226562 49.597656 44.679688 49.207031 C 41.574219 48.433594 38.867188 47.972656 36.925781 47.734375 C 35.054688 47.496094 33.917969 47.414062 33.847656 47.402344 C 33.929688 47.394531 35.222656 47.226562 37.300781 47.140625 C 37.910156 47.121094 38.578125 47.101562 39.308594 47.101562 C 41.160156 47.101562 43.371094 47.203125 45.757812 47.507812 C 47.421875 47.714844 49.1875 48 50.988281 48.410156 C 52.789062 48.8125 54.65625 49.289062 56.53125 49.878906 C 58.410156 50.464844 60.308594 51.128906 62.207031 51.855469 C 64.101562 52.59375 66 53.371094 67.902344 54.148438 C 69.792969 54.949219 71.683594 55.746094 73.550781 56.53125 C 75.410156 57.300781 77.253906 58.066406 79.0625 58.757812 C 80.878906 59.441406 82.636719 60.089844 84.34375 60.644531 C 86.066406 61.179688 87.703125 61.664062 89.25 62.058594 C 92.351562 62.832031 95.058594 63.285156 97 63.539062 C 98.9375 63.78125 100.085938 63.863281 100.085938 63.871094 C 100.039062 63.871094 98.734375 64.042969 96.625 64.125 C 96.011719 64.152344 95.328125 64.164062 94.589844 64.164062 " fill-opacity="1" fill-rule="nonzero"/><path fill="#481d1d" d="M 96.269531 62.410156 C 96.269531 62.40625 95.582031 62.320312 94.429688 62.101562 C 93.273438 61.886719 91.660156 61.542969 89.808594 61.019531 C 88.878906 60.765625 87.894531 60.464844 86.871094 60.125 C 85.855469 59.785156 84.785156 59.410156 83.707031 59 C 82.621094 58.589844 81.523438 58.152344 80.417969 57.691406 C 79.304688 57.234375 78.183594 56.753906 77.070312 56.273438 C 75.964844 55.789062 74.851562 55.300781 73.753906 54.832031 C 72.65625 54.359375 71.570312 53.902344 70.515625 53.464844 C 69.457031 53.027344 68.433594 52.609375 67.445312 52.230469 C 66.457031 51.851562 65.511719 51.503906 64.632812 51.199219 C 62.867188 50.585938 61.351562 50.121094 60.265625 49.824219 C 59.1875 49.519531 58.558594 49.355469 58.558594 49.355469 C 58.558594 49.355469 59.246094 49.453125 60.402344 49.667969 C 61.5625 49.882812 63.175781 50.230469 65.019531 50.75 C 65.949219 51.007812 66.9375 51.300781 67.964844 51.644531 C 68.976562 51.984375 70.046875 52.359375 71.125 52.765625 C 72.210938 53.179688 73.308594 53.621094 74.421875 54.074219 C 75.523438 54.539062 76.644531 55.015625 77.761719 55.488281 C 78.878906 55.976562 79.992188 56.460938 81.082031 56.933594 C 82.179688 57.410156 83.261719 57.867188 84.316406 58.304688 C 85.378906 58.738281 86.402344 59.164062 87.390625 59.542969 C 88.378906 59.921875 89.320312 60.265625 90.210938 60.570312 C 91.972656 61.179688 93.488281 61.644531 94.566406 61.945312 C 95.648438 62.246094 96.269531 62.40625 96.269531 62.410156 " fill-opacity="1" fill-rule="nonzero"/><path fill="#481d1d" d="M 77.109375 62.832031 C 77.109375 62.832031 76.417969 62.738281 75.265625 62.523438 C 74.109375 62.308594 72.492188 61.960938 70.644531 61.445312 C 69.714844 61.179688 68.730469 60.890625 67.707031 60.542969 C 66.683594 60.203125 65.625 59.832031 64.539062 59.425781 C 63.457031 59.015625 62.355469 58.574219 61.246094 58.113281 C 60.140625 57.65625 59.019531 57.175781 57.90625 56.695312 C 56.796875 56.210938 55.6875 55.726562 54.589844 55.253906 C 53.492188 54.785156 52.40625 54.320312 51.351562 53.878906 C 50.292969 53.449219 49.265625 53.027344 48.28125 52.652344 C 47.289062 52.269531 46.347656 51.925781 45.464844 51.617188 C 43.695312 51.003906 42.179688 50.542969 41.101562 50.238281 C 40.023438 49.941406 39.390625 49.785156 39.394531 49.78125 C 39.394531 49.78125 40.085938 49.875 41.238281 50.085938 C 42.390625 50.304688 44.011719 50.648438 45.859375 51.164062 C 46.785156 51.429688 47.777344 51.722656 48.792969 52.066406 C 49.8125 52.40625 50.882812 52.777344 51.960938 53.191406 C 53.042969 53.59375 54.148438 54.035156 55.253906 54.492188 C 56.359375 54.960938 57.476562 55.441406 58.601562 55.917969 C 59.710938 56.398438 60.820312 56.878906 61.917969 57.355469 C 63.015625 57.828125 64.101562 58.289062 65.152344 58.730469 C 66.210938 59.164062 67.242188 59.582031 68.21875 59.957031 C 69.210938 60.335938 70.160156 60.683594 71.039062 60.992188 C 72.804688 61.605469 74.320312 62.066406 75.40625 62.367188 C 76.480469 62.667969 77.109375 62.832031 77.109375 62.832031 " fill-opacity="1" fill-rule="nonzero"/><g fill="#6c3223" fill-opacity="1"><g transform="translate(196.329527, 40.79855)"><g><path d="M 22.679688 -32.285156 L 12.730469 -32.285156 C 10.839844 -32.246094 9.757812 -30.742188 9.757812 -29.316406 C 9.757812 -28.042969 10.609375 -26.847656 12.574219 -26.847656 L 16.625 -26.847656 L 10.53125 -8.949219 C 9.488281 -5.941406 7.945312 -4.976562 6.132812 -4.976562 C 5.398438 -4.976562 4.859375 -5.785156 4.859375 -6.132812 C 4.898438 -6.289062 4.898438 -6.480469 4.898438 -6.632812 C 4.898438 -8.140625 3.472656 -9.066406 2.042969 -9.066406 C 0.617188 -9.066406 -0.847656 -8.140625 -0.847656 -5.902344 C -0.847656 -2.351562 2.46875 0.460938 6.710938 0.460938 C 9.953125 0.460938 14.273438 -1.351562 16.316406 -7.25 L 24.53125 -31.167969 C 24.726562 -31.707031 24.378906 -32.285156 23.761719 -32.285156 Z M 22.679688 -32.285156 "/></g></g></g><g fill="#6c3223" fill-opacity="1"><g transform="translate(216.194608, 40.79855)"><g><path d="M 24.1875 -13.039062 C 23.105469 -13.039062 21.910156 -12.382812 21.445312 -10.917969 C 19.941406 -6.171875 17.511719 -4.589844 15.777344 -4.589844 C 15.121094 -4.589844 14.734375 -4.9375 14.734375 -5.554688 C 14.734375 -5.863281 14.8125 -6.25 14.929688 -6.671875 L 19.25 -19.171875 C 19.402344 -19.632812 19.480469 -20.058594 19.480469 -20.445312 C 19.480469 -22.140625 18.089844 -23.027344 16.664062 -23.027344 C 15.582031 -23.027344 14.464844 -22.527344 13.847656 -21.5625 C 13.039062 -22.0625 11.535156 -22.644531 9.566406 -22.644531 C 7.019531 -22.644531 4.242188 -21.253906 3.203125 -18.285156 L -0.425781 -7.90625 C -0.65625 -7.214844 -0.808594 -6.519531 -0.808594 -5.824219 C -0.808594 -2.621094 1.773438 0 5.167969 0 C 6.980469 0 8.832031 -0.808594 10.261719 -2.082031 C 11.496094 -0.308594 14.234375 0 15.390625 0 C 18.59375 0 22.875 -1.621094 25.34375 -7.867188 C 25.882812 -9.375 26.308594 -10.335938 26.308594 -11.03125 C 26.308594 -12.34375 25.304688 -13.039062 24.1875 -13.039062 Z M 11.457031 -13.421875 L 9.605469 -7.675781 C 8.792969 -5.167969 7.328125 -4.589844 6.519531 -4.589844 C 5.671875 -4.589844 5.246094 -5.128906 5.246094 -6.015625 C 5.246094 -6.519531 5.363281 -6.980469 5.476562 -7.328125 L 7.945312 -15.082031 C 8.679688 -17.433594 9.757812 -17.742188 10.375 -17.742188 C 11.109375 -17.742188 11.917969 -17.011719 11.917969 -15.699219 C 11.917969 -15.121094 11.765625 -14.386719 11.457031 -13.421875 Z M 11.457031 -13.421875 "/></g></g></g><g fill="#6c3223" fill-opacity="1"><g transform="translate(236.445418, 40.79855)"><g><path d="M 21.371094 -11.457031 C 20.714844 -9.644531 19.75 -8.601562 18.324219 -8.601562 C 17.050781 -8.601562 16.394531 -9.410156 16.394531 -10.453125 C 16.394531 -10.761719 16.472656 -11.148438 16.585938 -11.496094 C 18.667969 -15.273438 20.019531 -17.320312 20.019531 -19.441406 C 20.019531 -21.332031 18.941406 -22.644531 16.816406 -22.644531 C 12.921875 -22.644531 10.144531 -17.164062 10.144531 -13.078125 C 10.144531 -12.152344 10.300781 -11.300781 10.609375 -10.53125 L 8.484375 -7.328125 C 7.90625 -6.480469 6.597656 -4.898438 6.054688 -4.898438 C 5.941406 -4.898438 5.863281 -5.015625 5.863281 -5.246094 C 5.863281 -5.59375 5.902344 -5.941406 6.015625 -6.363281 L 8.949219 -18.746094 C 9.066406 -19.171875 9.101562 -19.558594 9.101562 -19.902344 C 9.101562 -21.753906 7.832031 -22.644531 6.480469 -22.644531 C 5.089844 -22.644531 3.703125 -21.753906 3.316406 -20.097656 L 0.5 -7.523438 C 0.347656 -6.828125 0.269531 -6.132812 0.269531 -5.515625 C 0.269531 -2.082031 2.46875 0 5.476562 0 C 8.214844 0 9.488281 -1.273438 12.035156 -4.203125 L 13.460938 -5.941406 C 14.542969 -4.667969 16.238281 -3.933594 18.285156 -3.933594 C 22.027344 -3.933594 24.839844 -6.441406 26.039062 -10.414062 C 26.113281 -10.644531 26.113281 -10.839844 26.113281 -11.03125 C 26.113281 -12.304688 24.917969 -13.078125 23.722656 -13.078125 C 22.71875 -13.078125 21.753906 -12.574219 21.371094 -11.457031 Z M 21.371094 -11.457031 "/></g></g></g><g fill="#6c3223" fill-opacity="1"><g transform="translate(256.464782, 40.79855)"><g><path d="M 24.1875 -13.039062 C 23.105469 -13.039062 21.910156 -12.382812 21.445312 -10.917969 C 19.941406 -6.171875 17.511719 -4.589844 15.777344 -4.589844 C 15.121094 -4.589844 14.734375 -4.9375 14.734375 -5.554688 C 14.734375 -5.863281 14.8125 -6.25 14.929688 -6.671875 L 19.25 -19.171875 C 19.402344 -19.632812 19.480469 -20.058594 19.480469 -20.445312 C 19.480469 -22.140625 18.089844 -23.027344 16.664062 -23.027344 C 15.582031 -23.027344 14.464844 -22.527344 13.847656 -21.5625 C 13.039062 -22.0625 11.535156 -22.644531 9.566406 -22.644531 C 7.019531 -22.644531 4.242188 -21.253906 3.203125 -18.285156 L -0.425781 -7.90625 C -0.65625 -7.214844 -0.808594 -6.519531 -0.808594 -5.824219 C -0.808594 -2.621094 1.773438 0 5.167969 0 C 6.980469 0 8.832031 -0.808594 10.261719 -2.082031 C 11.496094 -0.308594 14.234375 0 15.390625 0 C 18.59375 0 22.875 -1.621094 25.34375 -7.867188 C 25.882812 -9.375 26.308594 -10.335938 26.308594 -11.03125 C 26.308594 -12.34375 25.304688 -13.039062 24.1875 -13.039062 Z M 11.457031 -13.421875 L 9.605469 -7.675781 C 8.792969 -5.167969 7.328125 -4.589844 6.519531 -4.589844 C 5.671875 -4.589844 5.246094 -5.128906 5.246094 -6.015625 C 5.246094 -6.519531 5.363281 -6.980469 5.476562 -7.328125 L 7.945312 -15.082031 C 8.679688 -17.433594 9.757812 -17.742188 10.375 -17.742188 C 11.109375 -17.742188 11.917969 -17.011719 11.917969 -15.699219 C 11.917969 -15.121094 11.765625 -14.386719 11.457031 -13.421875 Z M 11.457031 -13.421875 "/></g></g></g><g fill="#6c3223" fill-opacity="1"><g transform="translate(276.715592, 40.79855)"><g><path d="M 27.117188 -11.457031 C 26.308594 -9.066406 24.765625 -7.484375 22.644531 -7.484375 L 22.605469 -7.484375 C 23.453125 -8.949219 24.03125 -10.839844 24.03125 -12.804688 C 24.03125 -14.851562 23.375 -16.972656 21.753906 -18.707031 C 24.339844 -20.445312 26.113281 -23.839844 26.113281 -26.808594 C 26.113281 -30.742188 23.144531 -33.097656 19.789062 -33.445312 C 19.441406 -33.480469 19.015625 -33.519531 18.476562 -33.519531 C 17.398438 -33.519531 15.96875 -33.367188 14.503906 -32.632812 C 14.503906 -33.90625 13.347656 -34.679688 12.035156 -34.679688 C 10.722656 -34.679688 9.257812 -33.867188 8.71875 -32.09375 L -1.386719 -3.511719 C -1.582031 -3.007812 -1.660156 -2.507812 -1.660156 -2.121094 C -1.660156 -0.539062 -0.460938 0.386719 0.847656 0.386719 C 2.199219 0.386719 3.703125 -0.578125 4.089844 -2.699219 C 5.4375 -0.769531 8.410156 0.425781 11.457031 0.425781 C 14.386719 0.425781 17.511719 -0.578125 19.828125 -2.96875 C 20.558594 -2.738281 21.332031 -2.621094 22.257812 -2.621094 C 26.769531 -2.621094 30.394531 -5.746094 31.746094 -10.453125 C 31.785156 -10.644531 31.824219 -10.839844 31.824219 -10.992188 C 31.824219 -12.265625 30.589844 -13 29.355469 -13 C 28.390625 -13 27.425781 -12.535156 27.117188 -11.457031 Z M 13.308594 -22.644531 C 12.074219 -22.140625 10.953125 -20.558594 10.953125 -18.785156 C 10.953125 -18.4375 10.992188 -18.089844 11.070312 -17.742188 C 11.726562 -15.699219 13.460938 -15.082031 14.929688 -15.082031 C 15.507812 -15.082031 16.046875 -15.160156 16.433594 -15.3125 C 17.398438 -15.082031 17.9375 -14.234375 17.9375 -12.960938 C 17.9375 -12.304688 17.820312 -11.570312 17.511719 -10.722656 C 16.125 -12.074219 14.039062 -13.078125 11.457031 -13.113281 C 10.222656 -13.113281 8.757812 -12.921875 7.792969 -12.496094 L 12.421875 -25.304688 C 13.386719 -27.195312 15.546875 -28.121094 17.203125 -28.121094 C 18.59375 -28.121094 19.710938 -27.273438 19.710938 -25.960938 C 19.710938 -24.839844 19.171875 -22.988281 17.320312 -22.21875 C 16.933594 -22.527344 15.890625 -22.914062 14.773438 -22.914062 C 14.273438 -22.914062 13.769531 -22.835938 13.308594 -22.644531 Z M 11.03125 -4.4375 C 9.605469 -4.4375 8.792969 -5.089844 8.792969 -5.980469 C 8.792969 -6.171875 8.792969 -6.363281 8.871094 -6.558594 C 9.179688 -7.558594 10.183594 -8.253906 11.648438 -8.253906 C 13.230469 -8.253906 14.234375 -7.40625 15.273438 -6.363281 C 14.078125 -5.054688 12.421875 -4.4375 11.03125 -4.4375 Z M 11.03125 -4.4375 "/></g></g></g><g fill="#6c3223" fill-opacity="1"><g transform="translate(302.443755, 40.79855)"><g><path d="M 19.519531 -10.878906 C 17.820312 -6.402344 13.769531 -4.589844 10.492188 -4.589844 C 7.675781 -4.589844 5.902344 -5.941406 5.902344 -7.714844 C 5.902344 -8.0625 5.941406 -8.410156 6.09375 -8.792969 L 6.402344 -9.527344 C 7.523438 -8.832031 8.910156 -8.371094 10.453125 -8.371094 C 13.964844 -8.371094 17.050781 -10.570312 18.089844 -14.039062 C 18.285156 -14.773438 18.398438 -15.507812 18.398438 -16.164062 C 18.398438 -19.828125 15.507812 -22.644531 11.148438 -22.644531 C 7.714844 -22.644531 4.359375 -20.636719 3.007812 -16.78125 L 0.734375 -10.183594 C 0.425781 -9.257812 0.230469 -8.332031 0.230469 -7.445312 C 0.230469 -2.855469 4.550781 0 10.183594 0 C 15.546875 0 21.640625 -2.621094 24.1875 -9.992188 C 24.300781 -10.300781 24.339844 -10.570312 24.339844 -10.800781 C 24.339844 -11.996094 23.261719 -12.652344 22.101562 -12.652344 C 21.023438 -12.652344 19.867188 -12.074219 19.519531 -10.878906 Z M 11.03125 -18.089844 C 12.113281 -18.089844 12.804688 -17.203125 12.804688 -16.085938 C 12.804688 -15.777344 12.769531 -15.46875 12.652344 -15.160156 C 12.265625 -13.886719 11.109375 -13.421875 9.953125 -13.421875 C 9.21875 -13.421875 8.484375 -13.578125 7.945312 -13.886719 L 8.757812 -16.199219 C 9.179688 -17.398438 10.144531 -18.089844 11.03125 -18.089844 Z M 11.03125 -18.089844 "/></g></g></g><g fill="#6c3223" fill-opacity="1"><g transform="translate(320.727338, 40.79855)"><g><path d="M 24.1875 -13.039062 C 23.105469 -13.039062 21.910156 -12.382812 21.445312 -10.917969 C 19.941406 -6.171875 17.511719 -4.589844 15.777344 -4.589844 C 15.121094 -4.589844 14.734375 -4.9375 14.734375 -5.554688 C 14.734375 -5.863281 14.8125 -6.25 14.929688 -6.671875 L 19.25 -19.171875 C 19.402344 -19.632812 19.480469 -20.058594 19.480469 -20.445312 C 19.480469 -22.140625 18.089844 -23.027344 16.664062 -23.027344 C 15.582031 -23.027344 14.464844 -22.527344 13.847656 -21.5625 C 13.039062 -22.0625 11.535156 -22.644531 9.566406 -22.644531 C 7.019531 -22.644531 4.242188 -21.253906 3.203125 -18.285156 L -0.425781 -7.90625 C -0.65625 -7.214844 -0.808594 -6.519531 -0.808594 -5.824219 C -0.808594 -2.621094 1.773438 0 5.167969 0 C 6.980469 0 8.832031 -0.808594 10.261719 -2.082031 C 11.496094 -0.308594 14.234375 0 15.390625 0 C 18.59375 0 22.875 -1.621094 25.34375 -7.867188 C 25.882812 -9.375 26.308594 -10.335938 26.308594 -11.03125 C 26.308594 -12.34375 25.304688 -13.039062 24.1875 -13.039062 Z M 11.457031 -13.421875 L 9.605469 -7.675781 C 8.792969 -5.167969 7.328125 -4.589844 6.519531 -4.589844 C 5.671875 -4.589844 5.246094 -5.128906 5.246094 -6.015625 C 5.246094 -6.519531 5.363281 -6.980469 5.476562 -7.328125 L 7.945312 -15.082031 C 8.679688 -17.433594 9.757812 -17.742188 10.375 -17.742188 C 11.109375 -17.742188 11.917969 -17.011719 11.917969 -15.699219 C 11.917969 -15.121094 11.765625 -14.386719 11.457031 -13.421875 Z M 11.457031 -13.421875 "/></g></g></g><g fill="#6c3223" fill-opacity="1"><g transform="translate(340.978148, 40.79855)"><g><path d="M 21.523438 -11.109375 C 19.828125 -6.480469 17.707031 -4.589844 15.890625 -4.589844 C 15.199219 -4.589844 14.8125 -4.9375 14.8125 -5.59375 C 14.8125 -5.863281 14.890625 -6.171875 15.003906 -6.558594 L 18.015625 -15.121094 C 18.285156 -15.890625 18.4375 -16.585938 18.4375 -17.242188 C 18.4375 -20.328125 15.816406 -22.644531 12.730469 -22.644531 C 11.226562 -22.644531 10.027344 -22.296875 9.027344 -21.5625 C 8.792969 -22.257812 7.832031 -22.644531 6.789062 -22.644531 C 5.707031 -22.644531 4.667969 -22.140625 4.28125 -21.0625 L -2.160156 -3.046875 C -2.277344 -2.699219 -2.3125 -2.390625 -2.3125 -2.082031 C -2.3125 -0.65625 -1.195312 0.078125 0.0390625 0.078125 C 1.386719 0.078125 2.929688 -0.769531 3.511719 -2.507812 C 4.859375 -6.25 6.710938 -11.535156 8.023438 -15.238281 C 9.066406 -17.164062 10.414062 -18.089844 11.496094 -18.089844 C 12.1875 -18.089844 12.691406 -17.628906 12.691406 -16.894531 C 12.691406 -16.625 12.613281 -16.277344 12.496094 -15.929688 L 9.683594 -7.984375 C 9.375 -7.097656 9.179688 -6.25 9.179688 -5.4375 C 9.179688 -1.890625 12.113281 0 15.390625 0 C 19.324219 0 23.53125 -2.660156 26.191406 -10.183594 C 26.308594 -10.492188 26.382812 -10.800781 26.382812 -11.070312 C 26.382812 -12.304688 25.265625 -12.960938 24.109375 -12.960938 C 23.066406 -12.960938 21.910156 -12.382812 21.523438 -11.109375 Z M 21.523438 -11.109375 "/></g></g></g><g fill="#3a1214" fill-opacity="1"><g transform="translate(213.183692, 69.842525)"><g><path d="M 4.8125 0.140625 C 4.445312 0.140625 4.179688 0.0234375 4.015625 -0.203125 C 3.847656 -0.441406 3.796875 -0.769531 3.859375 -1.1875 L 5.328125 -10.53125 L 2.078125 -10.53125 C 1.765625 -10.53125 1.519531 -10.597656 1.34375 -10.734375 C 1.164062 -10.878906 1.078125 -11.070312 1.078125 -11.3125 C 1.078125 -11.65625 1.175781 -11.925781 1.375 -12.125 C 1.582031 -12.320312 1.859375 -12.421875 2.203125 -12.421875 L 11.140625 -12.421875 C 11.816406 -12.421875 12.15625 -12.164062 12.15625 -11.65625 C 12.15625 -11.300781 12.050781 -11.023438 11.84375 -10.828125 C 11.644531 -10.628906 11.375 -10.53125 11.03125 -10.53125 L 7.59375 -10.53125 L 6.078125 -0.984375 C 5.941406 -0.234375 5.519531 0.140625 4.8125 0.140625 Z M 4.8125 0.140625 "/></g></g></g><g fill="#3a1214" fill-opacity="1"><g transform="translate(226.321456, 69.842525)"><g><path d="M 1.546875 0.140625 C 1.203125 0.140625 0.953125 0.0195312 0.796875 -0.21875 C 0.640625 -0.457031 0.59375 -0.78125 0.65625 -1.1875 L 2.265625 -11.453125 C 2.378906 -12.191406 2.804688 -12.5625 3.546875 -12.5625 C 3.878906 -12.5625 4.128906 -12.453125 4.296875 -12.234375 C 4.460938 -12.015625 4.515625 -11.695312 4.453125 -11.28125 L 3.828125 -7.34375 C 4.472656 -8.300781 5.445312 -8.78125 6.75 -8.78125 C 7.6875 -8.78125 8.398438 -8.488281 8.890625 -7.90625 C 9.378906 -7.332031 9.523438 -6.414062 9.328125 -5.15625 L 8.6875 -0.96875 C 8.570312 -0.226562 8.144531 0.140625 7.40625 0.140625 C 7.070312 0.140625 6.820312 0.0234375 6.65625 -0.203125 C 6.488281 -0.429688 6.4375 -0.742188 6.5 -1.140625 L 7.125 -5.125 C 7.34375 -6.414062 6.921875 -7.0625 5.859375 -7.0625 C 5.171875 -7.0625 4.617188 -6.84375 4.203125 -6.40625 C 3.785156 -5.976562 3.519531 -5.382812 3.40625 -4.625 L 2.8125 -0.96875 C 2.707031 -0.226562 2.285156 0.140625 1.546875 0.140625 Z M 1.546875 0.140625 "/></g></g></g><g fill="#3a1214" fill-opacity="1"><g transform="translate(238.825221, 69.842525)"><g><path d="M 4.9375 0.171875 C 4.0625 0.171875 3.300781 0.0078125 2.65625 -0.3125 C 2.019531 -0.632812 1.523438 -1.085938 1.171875 -1.671875 C 0.828125 -2.253906 0.65625 -2.941406 0.65625 -3.734375 C 0.65625 -4.691406 0.851562 -5.550781 1.25 -6.3125 C 1.65625 -7.070312 2.21875 -7.671875 2.9375 -8.109375 C 3.65625 -8.554688 4.476562 -8.78125 5.40625 -8.78125 C 6.125 -8.78125 6.722656 -8.65625 7.203125 -8.40625 C 7.679688 -8.164062 8.0625 -7.835938 8.34375 -7.421875 C 8.625 -7.003906 8.8125 -6.53125 8.90625 -6 C 9 -5.476562 9.019531 -4.941406 8.96875 -4.390625 C 8.9375 -4.140625 8.867188 -3.976562 8.765625 -3.90625 C 8.660156 -3.832031 8.515625 -3.796875 8.328125 -3.796875 L 2.71875 -3.796875 C 2.6875 -3.085938 2.878906 -2.523438 3.296875 -2.109375 C 3.722656 -1.703125 4.332031 -1.5 5.125 -1.5 C 5.476562 -1.5 5.84375 -1.535156 6.21875 -1.609375 C 6.59375 -1.679688 6.929688 -1.804688 7.234375 -1.984375 C 7.503906 -2.148438 7.734375 -2.203125 7.921875 -2.140625 C 8.117188 -2.078125 8.257812 -1.957031 8.34375 -1.78125 C 8.4375 -1.601562 8.453125 -1.40625 8.390625 -1.1875 C 8.328125 -0.96875 8.175781 -0.773438 7.9375 -0.609375 C 7.53125 -0.347656 7.046875 -0.148438 6.484375 -0.015625 C 5.921875 0.109375 5.40625 0.171875 4.9375 0.171875 Z M 5.390625 -7.296875 C 4.898438 -7.296875 4.484375 -7.191406 4.140625 -6.984375 C 3.804688 -6.773438 3.535156 -6.5 3.328125 -6.15625 C 3.128906 -5.820312 2.988281 -5.460938 2.90625 -5.078125 L 7.25 -5.078125 C 7.300781 -5.703125 7.175781 -6.226562 6.875 -6.65625 C 6.582031 -7.082031 6.085938 -7.296875 5.390625 -7.296875 Z M 5.390625 -7.296875 "/></g></g></g><g fill="#3a1214" fill-opacity="1"><g transform="translate(250.571712, 69.842525)"><g/></g></g><g fill="#3a1214" fill-opacity="1"><g transform="translate(257.545638, 69.842525)"><g><path d="M 5.28125 0.171875 C 4.539062 0.171875 3.800781 0.09375 3.0625 -0.0625 C 2.332031 -0.226562 1.664062 -0.492188 1.0625 -0.859375 C 0.789062 -1.023438 0.625 -1.238281 0.5625 -1.5 C 0.5 -1.757812 0.523438 -2 0.640625 -2.21875 C 0.753906 -2.4375 0.925781 -2.59375 1.15625 -2.6875 C 1.382812 -2.78125 1.648438 -2.742188 1.953125 -2.578125 C 2.503906 -2.265625 3.082031 -2.039062 3.6875 -1.90625 C 4.289062 -1.78125 4.894531 -1.71875 5.5 -1.71875 C 6.320312 -1.71875 6.96875 -1.875 7.4375 -2.1875 C 7.914062 -2.507812 8.15625 -2.929688 8.15625 -3.453125 C 8.15625 -3.835938 8.015625 -4.160156 7.734375 -4.421875 C 7.453125 -4.691406 6.96875 -4.898438 6.28125 -5.046875 L 4.359375 -5.515625 C 3.503906 -5.710938 2.820312 -6.070312 2.3125 -6.59375 C 1.8125 -7.113281 1.5625 -7.8125 1.5625 -8.6875 C 1.5625 -9.507812 1.785156 -10.207031 2.234375 -10.78125 C 2.691406 -11.363281 3.296875 -11.8125 4.046875 -12.125 C 4.796875 -12.4375 5.613281 -12.59375 6.5 -12.59375 C 7.125 -12.59375 7.785156 -12.503906 8.484375 -12.328125 C 9.191406 -12.160156 9.832031 -11.882812 10.40625 -11.5 C 10.65625 -11.332031 10.804688 -11.125 10.859375 -10.875 C 10.910156 -10.625 10.882812 -10.390625 10.78125 -10.171875 C 10.675781 -9.953125 10.5 -9.804688 10.25 -9.734375 C 10.007812 -9.660156 9.71875 -9.734375 9.375 -9.953125 C 8.957031 -10.191406 8.488281 -10.375 7.96875 -10.5 C 7.457031 -10.625 6.957031 -10.6875 6.46875 -10.6875 C 5.675781 -10.6875 5.03125 -10.519531 4.53125 -10.1875 C 4.039062 -9.863281 3.796875 -9.425781 3.796875 -8.875 C 3.796875 -8.425781 3.925781 -8.082031 4.1875 -7.84375 C 4.445312 -7.613281 4.828125 -7.4375 5.328125 -7.3125 L 7.25 -6.84375 C 8.300781 -6.601562 9.085938 -6.210938 9.609375 -5.671875 C 10.128906 -5.128906 10.390625 -4.476562 10.390625 -3.71875 C 10.390625 -2.863281 10.15625 -2.144531 9.6875 -1.5625 C 9.21875 -0.976562 8.59375 -0.539062 7.8125 -0.25 C 7.039062 0.03125 6.195312 0.171875 5.28125 0.171875 Z M 5.28125 0.171875 "/></g></g></g><g fill="#3a1214" fill-opacity="1"><g transform="translate(270.85951, 69.842525)"><g><path d="M 3.40625 0.171875 C 2.875 0.171875 2.390625 0.0507812 1.953125 -0.1875 C 1.515625 -0.425781 1.164062 -0.742188 0.90625 -1.140625 C 0.644531 -1.546875 0.515625 -1.992188 0.515625 -2.484375 C 0.515625 -3.390625 0.90625 -4.050781 1.6875 -4.46875 C 2.46875 -4.894531 3.691406 -5.109375 5.359375 -5.109375 L 6.5625 -5.109375 L 6.625 -5.421875 C 6.71875 -5.972656 6.628906 -6.394531 6.359375 -6.6875 C 6.097656 -6.976562 5.640625 -7.125 4.984375 -7.125 C 4.597656 -7.125 4.222656 -7.085938 3.859375 -7.015625 C 3.492188 -6.941406 3.117188 -6.816406 2.734375 -6.640625 C 2.460938 -6.523438 2.222656 -6.503906 2.015625 -6.578125 C 1.804688 -6.660156 1.65625 -6.800781 1.5625 -7 C 1.476562 -7.195312 1.484375 -7.398438 1.578125 -7.609375 C 1.671875 -7.828125 1.882812 -8.007812 2.21875 -8.15625 C 2.707031 -8.375 3.21875 -8.53125 3.75 -8.625 C 4.289062 -8.726562 4.796875 -8.78125 5.265625 -8.78125 C 6.191406 -8.78125 6.914062 -8.609375 7.4375 -8.265625 C 7.96875 -7.929688 8.328125 -7.46875 8.515625 -6.875 C 8.703125 -6.289062 8.738281 -5.625 8.625 -4.875 L 8.015625 -0.953125 C 7.910156 -0.222656 7.507812 0.140625 6.8125 0.140625 C 6.5 0.140625 6.257812 0.0390625 6.09375 -0.15625 C 5.9375 -0.363281 5.890625 -0.671875 5.953125 -1.078125 L 5.984375 -1.25 C 5.691406 -0.757812 5.3125 -0.398438 4.84375 -0.171875 C 4.382812 0.0546875 3.90625 0.171875 3.40625 0.171875 Z M 4.078125 -1.34375 C 4.628906 -1.34375 5.109375 -1.519531 5.515625 -1.875 C 5.929688 -2.226562 6.1875 -2.710938 6.28125 -3.328125 L 6.375 -3.84375 L 5.453125 -3.84375 C 4.421875 -3.84375 3.695312 -3.753906 3.28125 -3.578125 C 2.863281 -3.410156 2.65625 -3.09375 2.65625 -2.625 C 2.65625 -2.207031 2.789062 -1.890625 3.0625 -1.671875 C 3.34375 -1.453125 3.679688 -1.34375 4.078125 -1.34375 Z M 4.078125 -1.34375 "/></g></g></g><g fill="#3a1214" fill-opacity="1"><g transform="translate(282.694065, 69.842525)"><g><path d="M 4.75 0.171875 C 3.375 0.171875 2.347656 -0.1875 1.671875 -0.90625 C 0.992188 -1.625 0.65625 -2.570312 0.65625 -3.75 C 0.65625 -4.382812 0.75 -5.003906 0.9375 -5.609375 C 1.132812 -6.210938 1.429688 -6.75 1.828125 -7.21875 C 2.234375 -7.695312 2.742188 -8.078125 3.359375 -8.359375 C 3.972656 -8.640625 4.695312 -8.78125 5.53125 -8.78125 C 5.945312 -8.78125 6.359375 -8.726562 6.765625 -8.625 C 7.179688 -8.53125 7.550781 -8.398438 7.875 -8.234375 C 8.164062 -8.085938 8.34375 -7.898438 8.40625 -7.671875 C 8.46875 -7.441406 8.453125 -7.226562 8.359375 -7.03125 C 8.273438 -6.832031 8.132812 -6.6875 7.9375 -6.59375 C 7.75 -6.507812 7.539062 -6.53125 7.3125 -6.65625 C 6.789062 -6.9375 6.242188 -7.078125 5.671875 -7.078125 C 5.003906 -7.078125 4.46875 -6.910156 4.0625 -6.578125 C 3.65625 -6.253906 3.359375 -5.835938 3.171875 -5.328125 C 2.992188 -4.828125 2.90625 -4.304688 2.90625 -3.765625 C 2.90625 -3.097656 3.070312 -2.554688 3.40625 -2.140625 C 3.738281 -1.734375 4.296875 -1.53125 5.078125 -1.53125 C 5.296875 -1.53125 5.53125 -1.554688 5.78125 -1.609375 C 6.03125 -1.671875 6.296875 -1.78125 6.578125 -1.9375 C 6.796875 -2.039062 6.992188 -2.050781 7.171875 -1.96875 C 7.347656 -1.882812 7.484375 -1.75 7.578125 -1.5625 C 7.671875 -1.382812 7.6875 -1.1875 7.625 -0.96875 C 7.570312 -0.757812 7.421875 -0.578125 7.171875 -0.421875 C 6.859375 -0.234375 6.472656 -0.0859375 6.015625 0.015625 C 5.554688 0.117188 5.132812 0.171875 4.75 0.171875 Z M 4.75 0.171875 "/></g></g></g><g fill="#3a1214" fill-opacity="1"><g transform="translate(293.207791, 69.842525)"><g><path d="M 1.546875 0.140625 C 1.191406 0.140625 0.9375 0.03125 0.78125 -0.1875 C 0.625 -0.40625 0.578125 -0.710938 0.640625 -1.109375 L 1.671875 -7.6875 C 1.773438 -8.394531 2.1875 -8.75 2.90625 -8.75 C 3.25 -8.75 3.5 -8.644531 3.65625 -8.4375 C 3.8125 -8.226562 3.859375 -7.921875 3.796875 -7.515625 L 3.75 -7.171875 C 4.03125 -7.660156 4.410156 -8.039062 4.890625 -8.3125 C 5.378906 -8.59375 5.929688 -8.75 6.546875 -8.78125 C 6.878906 -8.8125 7.097656 -8.765625 7.203125 -8.640625 C 7.316406 -8.523438 7.375 -8.332031 7.375 -8.0625 C 7.375 -7.675781 7.285156 -7.390625 7.109375 -7.203125 C 6.929688 -7.023438 6.65625 -6.921875 6.28125 -6.890625 L 5.78125 -6.828125 C 4.988281 -6.742188 4.421875 -6.503906 4.078125 -6.109375 C 3.742188 -5.722656 3.519531 -5.175781 3.40625 -4.46875 L 2.828125 -0.921875 C 2.722656 -0.210938 2.296875 0.140625 1.546875 0.140625 Z M 1.546875 0.140625 "/></g></g></g><g fill="#3a1214" fill-opacity="1"><g transform="translate(302.312643, 69.842525)"><g><path d="M 4.9375 0.171875 C 4.0625 0.171875 3.300781 0.0078125 2.65625 -0.3125 C 2.019531 -0.632812 1.523438 -1.085938 1.171875 -1.671875 C 0.828125 -2.253906 0.65625 -2.941406 0.65625 -3.734375 C 0.65625 -4.691406 0.851562 -5.550781 1.25 -6.3125 C 1.65625 -7.070312 2.21875 -7.671875 2.9375 -8.109375 C 3.65625 -8.554688 4.476562 -8.78125 5.40625 -8.78125 C 6.125 -8.78125 6.722656 -8.65625 7.203125 -8.40625 C 7.679688 -8.164062 8.0625 -7.835938 8.34375 -7.421875 C 8.625 -7.003906 8.8125 -6.53125 8.90625 -6 C 9 -5.476562 9.019531 -4.941406 8.96875 -4.390625 C 8.9375 -4.140625 8.867188 -3.976562 8.765625 -3.90625 C 8.660156 -3.832031 8.515625 -3.796875 8.328125 -3.796875 L 2.71875 -3.796875 C 2.6875 -3.085938 2.878906 -2.523438 3.296875 -2.109375 C 3.722656 -1.703125 4.332031 -1.5 5.125 -1.5 C 5.476562 -1.5 5.84375 -1.535156 6.21875 -1.609375 C 6.59375 -1.679688 6.929688 -1.804688 7.234375 -1.984375 C 7.503906 -2.148438 7.734375 -2.203125 7.921875 -2.140625 C 8.117188 -2.078125 8.257812 -1.957031 8.34375 -1.78125 C 8.4375 -1.601562 8.453125 -1.40625 8.390625 -1.1875 C 8.328125 -0.96875 8.175781 -0.773438 7.9375 -0.609375 C 7.53125 -0.347656 7.046875 -0.148438 6.484375 -0.015625 C 5.921875 0.109375 5.40625 0.171875 4.9375 0.171875 Z M 5.390625 -7.296875 C 4.898438 -7.296875 4.484375 -7.191406 4.140625 -6.984375 C 3.804688 -6.773438 3.535156 -6.5 3.328125 -6.15625 C 3.128906 -5.820312 2.988281 -5.460938 2.90625 -5.078125 L 7.25 -5.078125 C 7.300781 -5.703125 7.175781 -6.226562 6.875 -6.65625 C 6.582031 -7.082031 6.085938 -7.296875 5.390625 -7.296875 Z M 5.390625 -7.296875 "/></g></g></g><g fill="#3a1214" fill-opacity="1"><g transform="translate(314.059134, 69.842525)"><g><path d="M 3.875 0.171875 C 2.894531 0.171875 2.109375 -0.160156 1.515625 -0.828125 C 0.929688 -1.492188 0.640625 -2.398438 0.640625 -3.546875 C 0.640625 -4.523438 0.8125 -5.410156 1.15625 -6.203125 C 1.5 -6.992188 1.992188 -7.617188 2.640625 -8.078125 C 3.296875 -8.546875 4.070312 -8.78125 4.96875 -8.78125 C 5.59375 -8.78125 6.140625 -8.640625 6.609375 -8.359375 C 7.085938 -8.085938 7.441406 -7.6875 7.671875 -7.15625 L 8.359375 -11.515625 C 8.460938 -12.210938 8.882812 -12.5625 9.625 -12.5625 C 9.96875 -12.5625 10.21875 -12.453125 10.375 -12.234375 C 10.539062 -12.023438 10.59375 -11.71875 10.53125 -11.3125 L 8.890625 -0.984375 C 8.765625 -0.234375 8.34375 0.140625 7.625 0.140625 C 7.28125 0.140625 7.035156 0.0195312 6.890625 -0.21875 C 6.742188 -0.457031 6.707031 -0.78125 6.78125 -1.1875 L 6.8125 -1.390625 C 6.488281 -0.910156 6.078125 -0.53125 5.578125 -0.25 C 5.078125 0.03125 4.507812 0.171875 3.875 0.171875 Z M 4.734375 -1.5 C 5.273438 -1.5 5.726562 -1.65625 6.09375 -1.96875 C 6.46875 -2.28125 6.753906 -2.695312 6.953125 -3.21875 C 7.148438 -3.738281 7.25 -4.320312 7.25 -4.96875 C 7.25 -5.65625 7.082031 -6.179688 6.75 -6.546875 C 6.414062 -6.921875 5.957031 -7.109375 5.375 -7.109375 C 4.84375 -7.109375 4.390625 -6.957031 4.015625 -6.65625 C 3.640625 -6.351562 3.351562 -5.9375 3.15625 -5.40625 C 2.957031 -4.882812 2.859375 -4.296875 2.859375 -3.640625 C 2.859375 -2.953125 3.023438 -2.421875 3.359375 -2.046875 C 3.691406 -1.679688 4.148438 -1.5 4.734375 -1.5 Z M 4.734375 -1.5 "/></g></g></g><g fill="#3a1214" fill-opacity="1"><g transform="translate(326.827061, 69.842525)"><g/></g></g><g fill="#3a1214" fill-opacity="1"><g transform="translate(333.800987, 69.842525)"><g><path d="M 2.515625 0.140625 C 2.078125 0.140625 1.773438 -0.015625 1.609375 -0.328125 C 1.453125 -0.640625 1.519531 -1.003906 1.8125 -1.421875 L 8.015625 -10.53125 L 3 -10.53125 C 2.289062 -10.53125 1.9375 -10.804688 1.9375 -11.359375 C 1.9375 -11.703125 2.03125 -11.960938 2.21875 -12.140625 C 2.414062 -12.328125 2.691406 -12.421875 3.046875 -12.421875 L 9.6875 -12.421875 C 10.101562 -12.421875 10.394531 -12.34375 10.5625 -12.1875 C 10.738281 -12.03125 10.828125 -11.820312 10.828125 -11.5625 C 10.828125 -11.320312 10.773438 -11.09375 10.671875 -10.875 C 10.566406 -10.65625 10.414062 -10.40625 10.21875 -10.125 L 3.796875 -0.609375 C 3.460938 -0.109375 3.035156 0.140625 2.515625 0.140625 Z M 2.515625 0.140625 "/></g></g></g></svg>