<svg xmlns="http://www.w3.org/2000/svg" xmlns:xlink="http://www.w3.org/1999/xlink" width="500" zoomAndPan="magnify" viewBox="0 0 375 374.999991" height="500" preserveAspectRatio="xMidYMid meet" version="1.0"><defs><g/><clipPath id="id1"><path d="M 113.953125 49.382812 L 202 49.382812 L 202 271 L 113.953125 271 Z M 113.953125 49.382812 " clip-rule="nonzero"/></clipPath><clipPath id="id2"><path d="M 186.679688 49.433594 L 269.953125 49.433594 L 269.953125 274.335938 L 186.679688 274.335938 Z M 186.679688 49.433594 " clip-rule="nonzero"/></clipPath></defs><path fill="#c3996b" d="M 157.210938 270.238281 C 145.332031 263.792969 134.917969 251.777344 127.753906 236.1875 C 119.328125 217.855469 115.71875 196.136719 117.3125 173.382812 C 119.042969 148.664062 126.929688 125.480469 139.515625 108.097656 C 148.488281 95.707031 159.136719 87.109375 170.578125 82.957031 C 166.242188 97.507812 162.988281 119.992188 167.773438 151.140625 C 168.820312 157.941406 170.109375 164.980469 171.359375 171.785156 C 174.96875 191.5 178.707031 211.886719 177.214844 229.757812 C 175.726562 247.539062 169.359375 260.453125 157.210938 270.238281 " fill-opacity="1" fill-rule="nonzero"/><path fill="#c3996b" d="M 214.710938 255.753906 C 225.230469 237.140625 231.75 207.90625 218.398438 164.082031 C 214.84375 152.414062 209.734375 131.027344 207.03125 109.144531 C 204.613281 89.570312 204.632812 74.042969 207.066406 63.917969 C 222.023438 68.480469 235.242188 80.746094 244.535156 98.785156 C 254.621094 118.371094 259.203125 143.074219 257.433594 168.339844 C 255.640625 193.917969 247.5 217.9375 234.511719 235.976562 C 228.617188 244.164062 221.902344 250.851562 214.710938 255.753906 " fill-opacity="1" fill-rule="nonzero"/><g clip-path="url(#id1)"><path fill="#8a5d3b" d="M 193.515625 214.449219 C 193.25 234.261719 186.894531 249.007812 173.558594 260.648438 C 159.644531 254.960938 147.039062 242.738281 137.859375 225.972656 C 127.726562 207.464844 122.371094 185.109375 122.371094 161.320312 C 122.371094 135.472656 128.910156 110.734375 140.78125 91.664062 C 150.6875 75.742188 163.585938 64.90625 177.652344 60.519531 C 173.128906 76.300781 170.5625 100.511719 178.226562 134.394531 C 179.765625 141.191406 181.574219 148.242188 183.324219 155.058594 C 188.457031 175.058594 193.765625 195.742188 193.515625 214.449219 Z M 191.480469 152.960938 C 189.742188 146.199219 187.949219 139.207031 186.4375 132.53125 C 177.492188 92.980469 183.546875 67.746094 187.949219 56.222656 L 190.546875 49.433594 L 183.371094 50.546875 C 143.796875 56.699219 113.953125 104.320312 113.953125 161.320312 C 113.953125 212.640625 138.21875 257.101562 172.964844 269.445312 L 175.195312 270.238281 L 177.027344 268.746094 C 193.476562 255.359375 201.625 237.636719 201.933594 214.5625 C 202.199219 194.730469 196.75 173.496094 191.480469 152.960938 " fill-opacity="1" fill-rule="nonzero"/></g><g clip-path="url(#id2)"><path fill="#8a5d3b" d="M 213.613281 259.191406 C 226.210938 241.347656 236.007812 210.363281 217.082031 160.941406 C 212.757812 149.648438 206.222656 128.855469 202.035156 107.425781 C 197.847656 85.976562 197.015625 69.339844 199.585938 58.9375 C 234.59375 64.613281 261.546875 108.648438 261.546875 161.320312 C 261.546875 187.050781 255.0625 211.707031 243.285156 230.742188 C 235.109375 243.953125 224.875 253.699219 213.613281 259.191406 Z M 249.179688 85.460938 C 235.550781 64.472656 217.007812 51.917969 196.972656 50.109375 L 193.757812 49.820312 L 192.644531 52.859375 C 183.042969 79.035156 199.667969 139.015625 209.21875 163.964844 C 231.511719 222.179688 211.476562 252.078125 197.546875 264.722656 L 186.957031 274.335938 L 201.058594 272.007812 C 240.34375 265.527344 269.96875 217.941406 269.96875 161.320312 C 269.96875 133.046875 262.585938 106.105469 249.179688 85.460938 " fill-opacity="1" fill-rule="nonzero"/></g><g fill="#fd6155" fill-opacity="0.302"><g transform="translate(100.732608, 241.181142)"><g><path d="M 42.863281 -91.035156 L 17.863281 -86.683594 C 13.128906 -85.757812 11.074219 -81.507812 11.699219 -77.921875 C 12.253906 -74.722656 14.910156 -72.089844 19.851562 -72.949219 L 30.027344 -74.722656 L 22.542969 -27.089844 C 21.242188 -19.074219 17.789062 -15.976562 13.234375 -15.183594 C 11.390625 -14.863281 9.679688 -16.664062 9.527344 -17.535156 C 9.558594 -17.9375 9.472656 -18.421875 9.40625 -18.8125 C 8.75 -22.589844 4.757812 -24.292969 1.171875 -23.667969 C -2.414062 -23.042969 -5.691406 -20.078125 -4.714844 -14.457031 C -3.160156 -5.539062 6.40625 0.0820312 17.066406 -1.773438 C 25.207031 -3.1875 35.265625 -9.632812 37.820312 -25.355469 L 48.003906 -89.035156 C 48.253906 -90.472656 47.128906 -91.777344 45.578125 -91.507812 Z M 42.863281 -91.035156 "/></g></g></g><g fill="#fd6155" fill-opacity="0.302"><g transform="translate(150.640747, 232.493813)"><g><path d="M 55.0625 -43.332031 C 52.347656 -42.859375 49.632812 -40.691406 49.109375 -36.804688 C 47.402344 -24.226562 41.992188 -19.191406 37.628906 -18.433594 C 35.980469 -18.144531 34.859375 -18.847656 34.589844 -20.398438 C 34.457031 -21.175781 34.480469 -22.175781 34.585938 -23.292969 L 39.976562 -56.582031 C 40.160156 -57.8125 40.167969 -58.914062 40 -59.882812 C 39.257812 -64.144531 35.378906 -65.769531 31.796875 -65.144531 C 29.082031 -64.671875 26.492188 -62.921875 25.363281 -60.230469 C 23.105469 -61.136719 19.074219 -61.929688 14.132812 -61.070312 C 7.734375 -59.957031 1.367188 -55.253906 0.046875 -47.335938 L -4.523438 -19.679688 C -4.800781 -17.835938 -4.886719 -16.023438 -4.582031 -14.28125 C -3.183594 -6.234375 4.457031 -0.777344 12.984375 -2.261719 C 17.539062 -3.054688 21.839844 -5.898438 24.867188 -9.71875 C 28.746094 -5.800781 35.761719 -6.226562 38.667969 -6.730469 C 46.710938 -8.132812 56.761719 -14.074219 60.230469 -30.851562 C 60.929688 -34.867188 61.574219 -37.476562 61.269531 -39.222656 C 60.695312 -42.515625 57.871094 -43.820312 55.0625 -43.332031 Z M 22.914062 -38.734375 L 20.773438 -23.484375 C 19.835938 -16.832031 16.40625 -14.738281 14.371094 -14.382812 C 12.238281 -14.011719 10.9375 -15.183594 10.546875 -17.414062 C 10.328125 -18.671875 10.417969 -19.886719 10.554688 -20.808594 L 13.367188 -41.367188 C 14.179688 -47.601562 16.757812 -48.847656 18.308594 -49.117188 C 20.152344 -49.4375 22.507812 -47.949219 23.078125 -44.65625 C 23.332031 -43.203125 23.265625 -41.292969 22.914062 -38.734375 Z M 22.914062 -38.734375 "/></g></g></g><g fill="#fd6155" fill-opacity="0.302"><g transform="translate(201.517974, 223.637798)"><g><path d="M 48.679688 -38.128906 C 47.824219 -33.285156 45.855469 -30.25 42.269531 -29.625 C 39.074219 -29.066406 37.070312 -30.816406 36.617188 -33.433594 C 36.480469 -34.207031 36.507812 -35.210938 36.644531 -36.132812 C 40.226562 -46.542969 42.722656 -52.269531 41.796875 -57.597656 C 40.96875 -62.347656 37.679688 -65.167969 32.351562 -64.242188 C 22.5625 -62.539062 17.980469 -47.5625 19.769531 -37.289062 C 20.175781 -34.964844 20.933594 -32.898438 22.046875 -31.097656 L 18.117188 -22.125 C 17.03125 -19.738281 14.429688 -15.191406 13.074219 -14.957031 C 12.78125 -14.90625 12.539062 -15.164062 12.4375 -15.742188 C 12.285156 -16.617188 12.230469 -17.503906 12.335938 -18.621094 L 14.285156 -51.011719 C 14.390625 -52.128906 14.320312 -53.117188 14.167969 -53.988281 C 13.355469 -58.640625 9.769531 -60.3125 6.378906 -59.722656 C 2.890625 -59.113281 -0.210938 -56.277344 -0.453125 -51.941406 L -2.03125 -19.117188 C -2.113281 -17.304688 -2.003906 -15.527344 -1.734375 -13.976562 C -0.234375 -5.351562 6.203125 -1.078125 13.761719 -2.394531 C 20.640625 -3.59375 23.285156 -7.347656 28.398438 -15.828125 L 31.222656 -20.8125 C 34.496094 -18.085938 39.078125 -16.988281 44.214844 -17.882812 C 53.617188 -19.515625 59.59375 -27.046875 60.859375 -37.554688 C 60.953125 -38.167969 60.867188 -38.652344 60.785156 -39.136719 C 60.226562 -42.335938 56.886719 -43.75 53.882812 -43.226562 C 51.363281 -42.789062 49.160156 -41.105469 48.679688 -38.128906 Z M 48.679688 -38.128906 "/></g></g></g><g fill="#fd6155" fill-opacity="0.302"><g transform="translate(251.813742, 214.882995)"><g><path d="M 55.0625 -43.332031 C 52.347656 -42.859375 49.632812 -40.691406 49.109375 -36.804688 C 47.402344 -24.226562 41.992188 -19.191406 37.628906 -18.433594 C 35.980469 -18.144531 34.859375 -18.847656 34.589844 -20.398438 C 34.457031 -21.175781 34.480469 -22.175781 34.585938 -23.292969 L 39.976562 -56.582031 C 40.160156 -57.8125 40.167969 -58.914062 40 -59.882812 C 39.257812 -64.144531 35.378906 -65.769531 31.796875 -65.144531 C 29.082031 -64.671875 26.492188 -62.921875 25.363281 -60.230469 C 23.105469 -61.136719 19.074219 -61.929688 14.132812 -61.070312 C 7.734375 -59.957031 1.367188 -55.253906 0.046875 -47.335938 L -4.523438 -19.679688 C -4.800781 -17.835938 -4.886719 -16.023438 -4.582031 -14.28125 C -3.183594 -6.234375 4.457031 -0.777344 12.984375 -2.261719 C 17.539062 -3.054688 21.839844 -5.898438 24.867188 -9.71875 C 28.746094 -5.800781 35.761719 -6.226562 38.667969 -6.730469 C 46.710938 -8.132812 56.761719 -14.074219 60.230469 -30.851562 C 60.929688 -34.867188 61.574219 -37.476562 61.269531 -39.222656 C 60.695312 -42.515625 57.871094 -43.820312 55.0625 -43.332031 Z M 22.914062 -38.734375 L 20.773438 -23.484375 C 19.835938 -16.832031 16.40625 -14.738281 14.371094 -14.382812 C 12.238281 -14.011719 10.9375 -15.183594 10.546875 -17.414062 C 10.328125 -18.671875 10.417969 -19.886719 10.554688 -20.808594 L 13.367188 -41.367188 C 14.179688 -47.601562 16.757812 -48.847656 18.308594 -49.117188 C 20.152344 -49.4375 22.507812 -47.949219 23.078125 -44.65625 C 23.332031 -43.203125 23.265625 -41.292969 22.914062 -38.734375 Z M 22.914062 -38.734375 "/></g></g></g><g fill="#fd6155" fill-opacity="0.502"><g transform="translate(96.136146, 236.053691)"><g><path d="M 42.863281 -91.035156 L 17.863281 -86.683594 C 13.128906 -85.757812 11.074219 -81.507812 11.699219 -77.921875 C 12.253906 -74.722656 14.910156 -72.089844 19.851562 -72.949219 L 30.027344 -74.722656 L 22.542969 -27.089844 C 21.242188 -19.074219 17.789062 -15.976562 13.234375 -15.183594 C 11.390625 -14.863281 9.679688 -16.664062 9.527344 -17.535156 C 9.558594 -17.9375 9.472656 -18.421875 9.40625 -18.8125 C 8.75 -22.589844 4.757812 -24.292969 1.171875 -23.667969 C -2.414062 -23.042969 -5.691406 -20.078125 -4.714844 -14.457031 C -3.160156 -5.539062 6.40625 0.0820312 17.066406 -1.773438 C 25.207031 -3.1875 35.265625 -9.632812 37.820312 -25.355469 L 48.003906 -89.035156 C 48.253906 -90.472656 47.128906 -91.777344 45.578125 -91.507812 Z M 42.863281 -91.035156 "/></g></g></g><g fill="#fd6155" fill-opacity="0.502"><g transform="translate(146.044284, 227.366362)"><g><path d="M 55.0625 -43.332031 C 52.347656 -42.859375 49.632812 -40.691406 49.109375 -36.804688 C 47.402344 -24.226562 41.992188 -19.191406 37.628906 -18.433594 C 35.980469 -18.144531 34.859375 -18.847656 34.589844 -20.398438 C 34.457031 -21.175781 34.480469 -22.175781 34.585938 -23.292969 L 39.976562 -56.582031 C 40.160156 -57.8125 40.167969 -58.914062 40 -59.882812 C 39.257812 -64.144531 35.378906 -65.769531 31.796875 -65.144531 C 29.082031 -64.671875 26.492188 -62.921875 25.363281 -60.230469 C 23.105469 -61.136719 19.074219 -61.929688 14.132812 -61.070312 C 7.734375 -59.957031 1.367188 -55.253906 0.046875 -47.335938 L -4.523438 -19.679688 C -4.800781 -17.835938 -4.886719 -16.023438 -4.582031 -14.28125 C -3.183594 -6.234375 4.457031 -0.777344 12.984375 -2.261719 C 17.539062 -3.054688 21.839844 -5.898438 24.867188 -9.71875 C 28.746094 -5.800781 35.761719 -6.226562 38.667969 -6.730469 C 46.710938 -8.132812 56.761719 -14.074219 60.230469 -30.851562 C 60.929688 -34.867188 61.574219 -37.476562 61.269531 -39.222656 C 60.695312 -42.515625 57.871094 -43.820312 55.0625 -43.332031 Z M 22.914062 -38.734375 L 20.773438 -23.484375 C 19.835938 -16.832031 16.40625 -14.738281 14.371094 -14.382812 C 12.238281 -14.011719 10.9375 -15.183594 10.546875 -17.414062 C 10.328125 -18.671875 10.417969 -19.886719 10.554688 -20.808594 L 13.367188 -41.367188 C 14.179688 -47.601562 16.757812 -48.847656 18.308594 -49.117188 C 20.152344 -49.4375 22.507812 -47.949219 23.078125 -44.65625 C 23.332031 -43.203125 23.265625 -41.292969 22.914062 -38.734375 Z M 22.914062 -38.734375 "/></g></g></g><g fill="#fd6155" fill-opacity="0.502"><g transform="translate(196.921511, 218.510347)"><g><path d="M 48.679688 -38.128906 C 47.824219 -33.285156 45.855469 -30.25 42.269531 -29.625 C 39.074219 -29.066406 37.070312 -30.816406 36.617188 -33.433594 C 36.480469 -34.207031 36.507812 -35.210938 36.644531 -36.132812 C 40.226562 -46.542969 42.722656 -52.269531 41.796875 -57.597656 C 40.96875 -62.347656 37.679688 -65.167969 32.351562 -64.242188 C 22.5625 -62.539062 17.980469 -47.5625 19.769531 -37.289062 C 20.175781 -34.964844 20.933594 -32.898438 22.046875 -31.097656 L 18.117188 -22.125 C 17.03125 -19.738281 14.429688 -15.191406 13.074219 -14.957031 C 12.78125 -14.90625 12.539062 -15.164062 12.4375 -15.742188 C 12.285156 -16.617188 12.230469 -17.503906 12.335938 -18.621094 L 14.285156 -51.011719 C 14.390625 -52.128906 14.320312 -53.117188 14.167969 -53.988281 C 13.355469 -58.640625 9.769531 -60.3125 6.378906 -59.722656 C 2.890625 -59.113281 -0.210938 -56.277344 -0.453125 -51.941406 L -2.03125 -19.117188 C -2.113281 -17.304688 -2.003906 -15.527344 -1.734375 -13.976562 C -0.234375 -5.351562 6.203125 -1.078125 13.761719 -2.394531 C 20.640625 -3.59375 23.285156 -7.347656 28.398438 -15.828125 L 31.222656 -20.8125 C 34.496094 -18.085938 39.078125 -16.988281 44.214844 -17.882812 C 53.617188 -19.515625 59.59375 -27.046875 60.859375 -37.554688 C 60.953125 -38.167969 60.867188 -38.652344 60.785156 -39.136719 C 60.226562 -42.335938 56.886719 -43.75 53.882812 -43.226562 C 51.363281 -42.789062 49.160156 -41.105469 48.679688 -38.128906 Z M 48.679688 -38.128906 "/></g></g></g><g fill="#fd6155" fill-opacity="0.502"><g transform="translate(247.217279, 209.755544)"><g><path d="M 55.0625 -43.332031 C 52.347656 -42.859375 49.632812 -40.691406 49.109375 -36.804688 C 47.402344 -24.226562 41.992188 -19.191406 37.628906 -18.433594 C 35.980469 -18.144531 34.859375 -18.847656 34.589844 -20.398438 C 34.457031 -21.175781 34.480469 -22.175781 34.585938 -23.292969 L 39.976562 -56.582031 C 40.160156 -57.8125 40.167969 -58.914062 40 -59.882812 C 39.257812 -64.144531 35.378906 -65.769531 31.796875 -65.144531 C 29.082031 -64.671875 26.492188 -62.921875 25.363281 -60.230469 C 23.105469 -61.136719 19.074219 -61.929688 14.132812 -61.070312 C 7.734375 -59.957031 1.367188 -55.253906 0.046875 -47.335938 L -4.523438 -19.679688 C -4.800781 -17.835938 -4.886719 -16.023438 -4.582031 -14.28125 C -3.183594 -6.234375 4.457031 -0.777344 12.984375 -2.261719 C 17.539062 -3.054688 21.839844 -5.898438 24.867188 -9.71875 C 28.746094 -5.800781 35.761719 -6.226562 38.667969 -6.730469 C 46.710938 -8.132812 56.761719 -14.074219 60.230469 -30.851562 C 60.929688 -34.867188 61.574219 -37.476562 61.269531 -39.222656 C 60.695312 -42.515625 57.871094 -43.820312 55.0625 -43.332031 Z M 22.914062 -38.734375 L 20.773438 -23.484375 C 19.835938 -16.832031 16.40625 -14.738281 14.371094 -14.382812 C 12.238281 -14.011719 10.9375 -15.183594 10.546875 -17.414062 C 10.328125 -18.671875 10.417969 -19.886719 10.554688 -20.808594 L 13.367188 -41.367188 C 14.179688 -47.601562 16.757812 -48.847656 18.308594 -49.117188 C 20.152344 -49.4375 22.507812 -47.949219 23.078125 -44.65625 C 23.332031 -43.203125 23.265625 -41.292969 22.914062 -38.734375 Z M 22.914062 -38.734375 "/></g></g></g><g fill="#f6f3e4" fill-opacity="1"><g transform="translate(91.539683, 230.926226)"><g><path d="M 42.863281 -91.035156 L 17.863281 -86.683594 C 13.128906 -85.757812 11.074219 -81.507812 11.699219 -77.921875 C 12.253906 -74.722656 14.910156 -72.089844 19.851562 -72.949219 L 30.027344 -74.722656 L 22.542969 -27.089844 C 21.242188 -19.074219 17.789062 -15.976562 13.234375 -15.183594 C 11.390625 -14.863281 9.679688 -16.664062 9.527344 -17.535156 C 9.558594 -17.9375 9.472656 -18.421875 9.40625 -18.8125 C 8.75 -22.589844 4.757812 -24.292969 1.171875 -23.667969 C -2.414062 -23.042969 -5.691406 -20.078125 -4.714844 -14.457031 C -3.160156 -5.539062 6.40625 0.0820312 17.066406 -1.773438 C 25.207031 -3.1875 35.265625 -9.632812 37.820312 -25.355469 L 48.003906 -89.035156 C 48.253906 -90.472656 47.128906 -91.777344 45.578125 -91.507812 Z M 42.863281 -91.035156 "/></g></g></g><g fill="#f6f3e4" fill-opacity="1"><g transform="translate(141.447822, 222.238897)"><g><path d="M 55.0625 -43.332031 C 52.347656 -42.859375 49.632812 -40.691406 49.109375 -36.804688 C 47.402344 -24.226562 41.992188 -19.191406 37.628906 -18.433594 C 35.980469 -18.144531 34.859375 -18.847656 34.589844 -20.398438 C 34.457031 -21.175781 34.480469 -22.175781 34.585938 -23.292969 L 39.976562 -56.582031 C 40.160156 -57.8125 40.167969 -58.914062 40 -59.882812 C 39.257812 -64.144531 35.378906 -65.769531 31.796875 -65.144531 C 29.082031 -64.671875 26.492188 -62.921875 25.363281 -60.230469 C 23.105469 -61.136719 19.074219 -61.929688 14.132812 -61.070312 C 7.734375 -59.957031 1.367188 -55.253906 0.046875 -47.335938 L -4.523438 -19.679688 C -4.800781 -17.835938 -4.886719 -16.023438 -4.582031 -14.28125 C -3.183594 -6.234375 4.457031 -0.777344 12.984375 -2.261719 C 17.539062 -3.054688 21.839844 -5.898438 24.867188 -9.71875 C 28.746094 -5.800781 35.761719 -6.226562 38.667969 -6.730469 C 46.710938 -8.132812 56.761719 -14.074219 60.230469 -30.851562 C 60.929688 -34.867188 61.574219 -37.476562 61.269531 -39.222656 C 60.695312 -42.515625 57.871094 -43.820312 55.0625 -43.332031 Z M 22.914062 -38.734375 L 20.773438 -23.484375 C 19.835938 -16.832031 16.40625 -14.738281 14.371094 -14.382812 C 12.238281 -14.011719 10.9375 -15.183594 10.546875 -17.414062 C 10.328125 -18.671875 10.417969 -19.886719 10.554688 -20.808594 L 13.367188 -41.367188 C 14.179688 -47.601562 16.757812 -48.847656 18.308594 -49.117188 C 20.152344 -49.4375 22.507812 -47.949219 23.078125 -44.65625 C 23.332031 -43.203125 23.265625 -41.292969 22.914062 -38.734375 Z M 22.914062 -38.734375 "/></g></g></g><g fill="#f6f3e4" fill-opacity="1"><g transform="translate(192.325049, 213.382881)"><g><path d="M 48.679688 -38.128906 C 47.824219 -33.285156 45.855469 -30.25 42.269531 -29.625 C 39.074219 -29.066406 37.070312 -30.816406 36.617188 -33.433594 C 36.480469 -34.207031 36.507812 -35.210938 36.644531 -36.132812 C 40.226562 -46.542969 42.722656 -52.269531 41.796875 -57.597656 C 40.96875 -62.347656 37.679688 -65.167969 32.351562 -64.242188 C 22.5625 -62.539062 17.980469 -47.5625 19.769531 -37.289062 C 20.175781 -34.964844 20.933594 -32.898438 22.046875 -31.097656 L 18.117188 -22.125 C 17.03125 -19.738281 14.429688 -15.191406 13.074219 -14.957031 C 12.78125 -14.90625 12.539062 -15.164062 12.4375 -15.742188 C 12.285156 -16.617188 12.230469 -17.503906 12.335938 -18.621094 L 14.285156 -51.011719 C 14.390625 -52.128906 14.320312 -53.117188 14.167969 -53.988281 C 13.355469 -58.640625 9.769531 -60.3125 6.378906 -59.722656 C 2.890625 -59.113281 -0.210938 -56.277344 -0.453125 -51.941406 L -2.03125 -19.117188 C -2.113281 -17.304688 -2.003906 -15.527344 -1.734375 -13.976562 C -0.234375 -5.351562 6.203125 -1.078125 13.761719 -2.394531 C 20.640625 -3.59375 23.285156 -7.347656 28.398438 -15.828125 L 31.222656 -20.8125 C 34.496094 -18.085938 39.078125 -16.988281 44.214844 -17.882812 C 53.617188 -19.515625 59.59375 -27.046875 60.859375 -37.554688 C 60.953125 -38.167969 60.867188 -38.652344 60.785156 -39.136719 C 60.226562 -42.335938 56.886719 -43.75 53.882812 -43.226562 C 51.363281 -42.789062 49.160156 -41.105469 48.679688 -38.128906 Z M 48.679688 -38.128906 "/></g></g></g><g fill="#f6f3e4" fill-opacity="1"><g transform="translate(242.620817, 204.628079)"><g><path d="M 55.0625 -43.332031 C 52.347656 -42.859375 49.632812 -40.691406 49.109375 -36.804688 C 47.402344 -24.226562 41.992188 -19.191406 37.628906 -18.433594 C 35.980469 -18.144531 34.859375 -18.847656 34.589844 -20.398438 C 34.457031 -21.175781 34.480469 -22.175781 34.585938 -23.292969 L 39.976562 -56.582031 C 40.160156 -57.8125 40.167969 -58.914062 40 -59.882812 C 39.257812 -64.144531 35.378906 -65.769531 31.796875 -65.144531 C 29.082031 -64.671875 26.492188 -62.921875 25.363281 -60.230469 C 23.105469 -61.136719 19.074219 -61.929688 14.132812 -61.070312 C 7.734375 -59.957031 1.367188 -55.253906 0.046875 -47.335938 L -4.523438 -19.679688 C -4.800781 -17.835938 -4.886719 -16.023438 -4.582031 -14.28125 C -3.183594 -6.234375 4.457031 -0.777344 12.984375 -2.261719 C 17.539062 -3.054688 21.839844 -5.898438 24.867188 -9.71875 C 28.746094 -5.800781 35.761719 -6.226562 38.667969 -6.730469 C 46.710938 -8.132812 56.761719 -14.074219 60.230469 -30.851562 C 60.929688 -34.867188 61.574219 -37.476562 61.269531 -39.222656 C 60.695312 -42.515625 57.871094 -43.820312 55.0625 -43.332031 Z M 22.914062 -38.734375 L 20.773438 -23.484375 C 19.835938 -16.832031 16.40625 -14.738281 14.371094 -14.382812 C 12.238281 -14.011719 10.9375 -15.183594 10.546875 -17.414062 C 10.328125 -18.671875 10.417969 -19.886719 10.554688 -20.808594 L 13.367188 -41.367188 C 14.179688 -47.601562 16.757812 -48.847656 18.308594 -49.117188 C 20.152344 -49.4375 22.507812 -47.949219 23.078125 -44.65625 C 23.332031 -43.203125 23.265625 -41.292969 22.914062 -38.734375 Z M 22.914062 -38.734375 "/></g></g></g><g fill="#fd6155" fill-opacity="0.302"><g transform="translate(125.678439, 320.801213)"><g><path d="M 57.609375 -35.292969 C 56.589844 -29.585938 53.632812 -25.46875 48.816406 -24.742188 L 48.730469 -24.730469 C 50.152344 -28.347656 50.816406 -32.835938 50.144531 -37.296875 C 49.441406 -41.9375 47.226562 -46.527344 42.957031 -49.910156 C 48.226562 -54.734375 51.089844 -63.046875 50.070312 -69.785156 C 48.722656 -78.714844 41.175781 -83.035156 33.441406 -82.675781 C 32.640625 -82.644531 31.664062 -82.585938 30.4375 -82.398438 C 27.988281 -82.03125 24.800781 -81.191406 21.726562 -79.023438 C 21.289062 -81.914062 18.402344 -83.269531 15.425781 -82.816406 C 12.449219 -82.367188 9.398438 -80.027344 8.78125 -75.816406 L -4.355469 -7.488281 C -4.621094 -6.285156 -4.625 -5.121094 -4.492188 -4.246094 C -3.949219 -0.65625 -0.917969 1.035156 2.058594 0.585938 C 5.121094 0.121094 8.203125 -2.582031 8.351562 -7.527344 C 12.078125 -3.613281 19.226562 -1.917969 26.144531 -2.964844 C 32.796875 -3.96875 39.542969 -7.316406 43.972656 -13.535156 C 45.714844 -13.261719 47.507812 -13.265625 49.609375 -13.582031 C 59.847656 -15.128906 67.007812 -23.460938 68.457031 -34.601562 C 68.480469 -35.054688 68.5 -35.503906 68.445312 -35.855469 C 68.011719 -38.742188 64.957031 -39.984375 62.15625 -39.5625 C 59.96875 -39.230469 57.941406 -37.847656 57.609375 -35.292969 Z M 22.4375 -55.945312 C 19.808594 -54.382812 17.8125 -50.410156 18.421875 -46.382812 C 18.539062 -45.597656 18.746094 -44.820312 19.039062 -44.058594 C 21.230469 -39.644531 25.378906 -38.839844 28.707031 -39.34375 C 30.019531 -39.539062 31.21875 -39.902344 32.039062 -40.382812 C 34.308594 -40.1875 35.824219 -38.449219 36.261719 -35.558594 C 36.484375 -34.070312 36.472656 -32.367188 36.066406 -30.335938 C 32.449219 -32.925781 27.378906 -34.488281 21.503906 -33.6875 C 18.699219 -33.265625 15.441406 -32.324219 13.398438 -31.03125 L 19.511719 -61.679688 C 21.054688 -66.300781 25.636719 -69.140625 29.402344 -69.710938 C 32.554688 -70.183594 35.382812 -68.644531 35.832031 -65.667969 C 36.214844 -63.128906 35.625 -58.742188 31.6875 -56.355469 C 30.707031 -56.925781 28.210938 -57.441406 25.671875 -57.058594 C 24.535156 -56.886719 23.421875 -56.539062 22.4375 -55.945312 Z M 23.515625 -13.847656 C 20.277344 -13.359375 18.210938 -14.570312 17.910156 -16.582031 C 17.84375 -17.019531 17.777344 -17.457031 17.886719 -17.921875 C 18.242188 -20.304688 20.28125 -22.222656 23.605469 -22.726562 C 27.195312 -23.265625 29.761719 -21.683594 32.480469 -19.679688 C 30.21875 -16.292969 26.664062 -14.324219 23.515625 -13.847656 Z M 23.515625 -13.847656 "/></g></g></g><g fill="#fd6155" fill-opacity="0.302"><g transform="translate(184.06027, 311.982877)"><g><path d="M 40.5625 -31.375 C 38.246094 -20.640625 29.675781 -15.136719 22.234375 -14.011719 C 15.847656 -13.046875 11.355469 -15.503906 10.75 -19.53125 C 10.628906 -20.316406 10.597656 -21.117188 10.816406 -22.046875 L 11.265625 -23.816406 C 14.042969 -22.625 17.351562 -22.050781 20.851562 -22.578125 C 28.816406 -23.78125 35.066406 -29.828125 36.242188 -38.0625 C 36.425781 -39.792969 36.4375 -41.496094 36.214844 -42.984375 C 34.957031 -51.300781 27.425781 -56.699219 17.535156 -55.203125 C 9.746094 -54.027344 2.816406 -48.324219 1.078125 -39.109375 L -1.828125 -23.359375 C -2.210938 -21.152344 -2.332031 -18.988281 -2.027344 -16.972656 C -0.453125 -6.558594 10.328125 -1.558594 23.109375 -3.492188 C 35.277344 -5.328125 48.207031 -13.371094 51.460938 -30.960938 C 51.617188 -31.699219 51.609375 -32.328125 51.53125 -32.851562 C 51.121094 -35.566406 48.445312 -36.683594 45.820312 -36.285156 C 43.371094 -35.917969 40.941406 -34.207031 40.5625 -31.375 Z M 18.832031 -44.835938 C 21.285156 -45.203125 23.164062 -43.429688 23.546875 -40.890625 C 23.652344 -40.191406 23.671875 -39.476562 23.515625 -38.738281 C 23.074219 -35.714844 20.609375 -34.269531 17.984375 -33.871094 C 16.320312 -33.621094 14.601562 -33.71875 13.273438 -34.234375 L 14.316406 -39.765625 C 14.871094 -42.625 16.820312 -44.53125 18.832031 -44.835938 Z M 18.832031 -44.835938 "/></g></g></g><g fill="#fd6155" fill-opacity="0.302"><g transform="translate(225.549009, 305.716172)"><g><path d="M 50.414062 -37.875 C 47.964844 -37.507812 45.476562 -35.609375 44.925781 -32.125 C 43.140625 -20.839844 38.167969 -16.417969 34.226562 -15.824219 C 32.738281 -15.597656 31.746094 -16.253906 31.535156 -17.65625 C 31.429688 -18.355469 31.472656 -19.257812 31.589844 -20.261719 L 37.109375 -50.101562 C 37.300781 -51.207031 37.328125 -52.195312 37.195312 -53.070312 C 36.617188 -56.921875 33.160156 -58.457031 29.921875 -57.96875 C 27.46875 -57.597656 25.105469 -56.078125 24.035156 -53.679688 C 22.023438 -54.539062 18.410156 -55.335938 13.949219 -54.660156 C 8.171875 -53.789062 2.34375 -49.683594 1 -42.589844 L -3.671875 -17.800781 C -3.960938 -16.144531 -4.074219 -14.515625 -3.835938 -12.941406 C -2.738281 -5.675781 4.027344 -0.609375 11.730469 -1.773438 C 15.84375 -2.394531 19.769531 -4.867188 22.570312 -8.242188 C 25.980469 -4.640625 32.300781 -4.878906 34.925781 -5.277344 C 42.191406 -6.371094 51.351562 -11.515625 54.8125 -26.542969 C 55.523438 -30.140625 56.15625 -32.476562 55.917969 -34.050781 C 55.46875 -37.027344 52.953125 -38.261719 50.414062 -37.875 Z M 21.394531 -34.386719 L 19.164062 -20.710938 C 18.1875 -14.742188 15.058594 -12.929688 13.21875 -12.652344 C 11.292969 -12.359375 10.144531 -13.441406 9.84375 -15.453125 C 9.671875 -16.589844 9.773438 -17.679688 9.917969 -18.507812 L 12.863281 -36.949219 C 13.71875 -42.539062 16.0625 -43.609375 17.464844 -43.820312 C 19.128906 -44.074219 21.21875 -42.6875 21.667969 -39.710938 C 21.863281 -38.398438 21.765625 -36.683594 21.394531 -34.386719 Z M 21.394531 -34.386719 "/></g></g></g><g fill="#fd6155" fill-opacity="0.302"><g transform="translate(271.501723, 298.775203)"><g><path d="M 45.035156 -32.585938 C 42.769531 -21.5 38.605469 -16.484375 34.492188 -15.863281 C 32.914062 -15.625 31.921875 -16.28125 31.695312 -17.769531 C 31.601562 -18.382812 31.671875 -19.109375 31.804688 -20.023438 L 35.695312 -40.488281 C 36.042969 -42.332031 36.15625 -43.960938 35.929688 -45.449219 C 34.875 -52.449219 28.128906 -56.804688 21.125 -55.746094 C 17.710938 -55.230469 15.117188 -54.03125 13.09375 -52.023438 C 12.328125 -53.523438 10.007812 -54.066406 7.644531 -53.710938 C 5.195312 -53.339844 3.003906 -51.84375 2.496094 -49.261719 L -5.945312 -6.175781 C -6.089844 -5.347656 -6.070312 -4.632812 -5.964844 -3.933594 C -5.476562 -0.695312 -2.6875 0.585938 0.113281 0.160156 C 3.175781 -0.300781 6.386719 -2.753906 7.105469 -6.894531 C 8.886719 -15.847656 11.277344 -28.472656 12.984375 -37.324219 C 14.6875 -42.058594 17.433594 -44.625 19.882812 -44.992188 C 21.460938 -45.230469 22.757812 -44.351562 23.007812 -42.691406 C 23.101562 -42.078125 23.042969 -41.261719 22.902344 -40.433594 L 19.234375 -21.4375 C 18.839844 -19.320312 18.691406 -17.328125 18.96875 -15.488281 C 20.183594 -7.4375 27.484375 -4.152344 34.925781 -5.277344 C 43.855469 -6.625 52.484375 -14.105469 55.945312 -32.085938 C 56.101562 -32.828125 56.171875 -33.554688 56.078125 -34.164062 C 55.65625 -36.96875 52.890625 -38.070312 50.265625 -37.675781 C 47.902344 -37.316406 45.476562 -35.609375 45.035156 -32.585938 Z M 45.035156 -32.585938 "/></g></g></g><g fill="#fd6155" fill-opacity="0.502"><g transform="translate(121.646134, 316.09489)"><g><path d="M 57.609375 -35.292969 C 56.589844 -29.585938 53.632812 -25.46875 48.816406 -24.742188 L 48.730469 -24.730469 C 50.152344 -28.347656 50.816406 -32.835938 50.144531 -37.296875 C 49.441406 -41.9375 47.226562 -46.527344 42.957031 -49.910156 C 48.226562 -54.734375 51.089844 -63.046875 50.070312 -69.785156 C 48.722656 -78.714844 41.175781 -83.035156 33.441406 -82.675781 C 32.640625 -82.644531 31.664062 -82.585938 30.4375 -82.398438 C 27.988281 -82.03125 24.800781 -81.191406 21.726562 -79.023438 C 21.289062 -81.914062 18.402344 -83.269531 15.425781 -82.816406 C 12.449219 -82.367188 9.398438 -80.027344 8.78125 -75.816406 L -4.355469 -7.488281 C -4.621094 -6.285156 -4.625 -5.121094 -4.492188 -4.246094 C -3.949219 -0.65625 -0.917969 1.035156 2.058594 0.585938 C 5.121094 0.121094 8.203125 -2.582031 8.351562 -7.527344 C 12.078125 -3.613281 19.226562 -1.917969 26.144531 -2.964844 C 32.796875 -3.96875 39.542969 -7.316406 43.972656 -13.535156 C 45.714844 -13.261719 47.507812 -13.265625 49.609375 -13.582031 C 59.847656 -15.128906 67.007812 -23.460938 68.457031 -34.601562 C 68.480469 -35.054688 68.5 -35.503906 68.445312 -35.855469 C 68.011719 -38.742188 64.957031 -39.984375 62.15625 -39.5625 C 59.96875 -39.230469 57.941406 -37.847656 57.609375 -35.292969 Z M 22.4375 -55.945312 C 19.808594 -54.382812 17.8125 -50.410156 18.421875 -46.382812 C 18.539062 -45.597656 18.746094 -44.820312 19.039062 -44.058594 C 21.230469 -39.644531 25.378906 -38.839844 28.707031 -39.34375 C 30.019531 -39.539062 31.21875 -39.902344 32.039062 -40.382812 C 34.308594 -40.1875 35.824219 -38.449219 36.261719 -35.558594 C 36.484375 -34.070312 36.472656 -32.367188 36.066406 -30.335938 C 32.449219 -32.925781 27.378906 -34.488281 21.503906 -33.6875 C 18.699219 -33.265625 15.441406 -32.324219 13.398438 -31.03125 L 19.511719 -61.679688 C 21.054688 -66.300781 25.636719 -69.140625 29.402344 -69.710938 C 32.554688 -70.183594 35.382812 -68.644531 35.832031 -65.667969 C 36.214844 -63.128906 35.625 -58.742188 31.6875 -56.355469 C 30.707031 -56.925781 28.210938 -57.441406 25.671875 -57.058594 C 24.535156 -56.886719 23.421875 -56.539062 22.4375 -55.945312 Z M 23.515625 -13.847656 C 20.277344 -13.359375 18.210938 -14.570312 17.910156 -16.582031 C 17.84375 -17.019531 17.777344 -17.457031 17.886719 -17.921875 C 18.242188 -20.304688 20.28125 -22.222656 23.605469 -22.726562 C 27.195312 -23.265625 29.761719 -21.683594 32.480469 -19.679688 C 30.21875 -16.292969 26.664062 -14.324219 23.515625 -13.847656 Z M 23.515625 -13.847656 "/></g></g></g><g fill="#fd6155" fill-opacity="0.502"><g transform="translate(180.027965, 307.276554)"><g><path d="M 40.5625 -31.375 C 38.246094 -20.640625 29.675781 -15.136719 22.234375 -14.011719 C 15.847656 -13.046875 11.355469 -15.503906 10.75 -19.53125 C 10.628906 -20.316406 10.597656 -21.117188 10.816406 -22.046875 L 11.265625 -23.816406 C 14.042969 -22.625 17.351562 -22.050781 20.851562 -22.578125 C 28.816406 -23.78125 35.066406 -29.828125 36.242188 -38.0625 C 36.425781 -39.792969 36.4375 -41.496094 36.214844 -42.984375 C 34.957031 -51.300781 27.425781 -56.699219 17.535156 -55.203125 C 9.746094 -54.027344 2.816406 -48.324219 1.078125 -39.109375 L -1.828125 -23.359375 C -2.210938 -21.152344 -2.332031 -18.988281 -2.027344 -16.972656 C -0.453125 -6.558594 10.328125 -1.558594 23.109375 -3.492188 C 35.277344 -5.328125 48.207031 -13.371094 51.460938 -30.960938 C 51.617188 -31.699219 51.609375 -32.328125 51.53125 -32.851562 C 51.121094 -35.566406 48.445312 -36.683594 45.820312 -36.285156 C 43.371094 -35.917969 40.941406 -34.207031 40.5625 -31.375 Z M 18.832031 -44.835938 C 21.285156 -45.203125 23.164062 -43.429688 23.546875 -40.890625 C 23.652344 -40.191406 23.671875 -39.476562 23.515625 -38.738281 C 23.074219 -35.714844 20.609375 -34.269531 17.984375 -33.871094 C 16.320312 -33.621094 14.601562 -33.71875 13.273438 -34.234375 L 14.316406 -39.765625 C 14.871094 -42.625 16.820312 -44.53125 18.832031 -44.835938 Z M 18.832031 -44.835938 "/></g></g></g><g fill="#fd6155" fill-opacity="0.502"><g transform="translate(221.516705, 301.009849)"><g><path d="M 50.414062 -37.875 C 47.964844 -37.507812 45.476562 -35.609375 44.925781 -32.125 C 43.140625 -20.839844 38.167969 -16.417969 34.226562 -15.824219 C 32.738281 -15.597656 31.746094 -16.253906 31.535156 -17.65625 C 31.429688 -18.355469 31.472656 -19.257812 31.589844 -20.261719 L 37.109375 -50.101562 C 37.300781 -51.207031 37.328125 -52.195312 37.195312 -53.070312 C 36.617188 -56.921875 33.160156 -58.457031 29.921875 -57.96875 C 27.46875 -57.597656 25.105469 -56.078125 24.035156 -53.679688 C 22.023438 -54.539062 18.410156 -55.335938 13.949219 -54.660156 C 8.171875 -53.789062 2.34375 -49.683594 1 -42.589844 L -3.671875 -17.800781 C -3.960938 -16.144531 -4.074219 -14.515625 -3.835938 -12.941406 C -2.738281 -5.675781 4.027344 -0.609375 11.730469 -1.773438 C 15.84375 -2.394531 19.769531 -4.867188 22.570312 -8.242188 C 25.980469 -4.640625 32.300781 -4.878906 34.925781 -5.277344 C 42.191406 -6.371094 51.351562 -11.515625 54.8125 -26.542969 C 55.523438 -30.140625 56.15625 -32.476562 55.917969 -34.050781 C 55.46875 -37.027344 52.953125 -38.261719 50.414062 -37.875 Z M 21.394531 -34.386719 L 19.164062 -20.710938 C 18.1875 -14.742188 15.058594 -12.929688 13.21875 -12.652344 C 11.292969 -12.359375 10.144531 -13.441406 9.84375 -15.453125 C 9.671875 -16.589844 9.773438 -17.679688 9.917969 -18.507812 L 12.863281 -36.949219 C 13.71875 -42.539062 16.0625 -43.609375 17.464844 -43.820312 C 19.128906 -44.074219 21.21875 -42.6875 21.667969 -39.710938 C 21.863281 -38.398438 21.765625 -36.683594 21.394531 -34.386719 Z M 21.394531 -34.386719 "/></g></g></g><g fill="#fd6155" fill-opacity="0.502"><g transform="translate(267.469418, 294.06888)"><g><path d="M 45.035156 -32.585938 C 42.769531 -21.5 38.605469 -16.484375 34.492188 -15.863281 C 32.914062 -15.625 31.921875 -16.28125 31.695312 -17.769531 C 31.601562 -18.382812 31.671875 -19.109375 31.804688 -20.023438 L 35.695312 -40.488281 C 36.042969 -42.332031 36.15625 -43.960938 35.929688 -45.449219 C 34.875 -52.449219 28.128906 -56.804688 21.125 -55.746094 C 17.710938 -55.230469 15.117188 -54.03125 13.09375 -52.023438 C 12.328125 -53.523438 10.007812 -54.066406 7.644531 -53.710938 C 5.195312 -53.339844 3.003906 -51.84375 2.496094 -49.261719 L -5.945312 -6.175781 C -6.089844 -5.347656 -6.070312 -4.632812 -5.964844 -3.933594 C -5.476562 -0.695312 -2.6875 0.585938 0.113281 0.160156 C 3.175781 -0.300781 6.386719 -2.753906 7.105469 -6.894531 C 8.886719 -15.847656 11.277344 -28.472656 12.984375 -37.324219 C 14.6875 -42.058594 17.433594 -44.625 19.882812 -44.992188 C 21.460938 -45.230469 22.757812 -44.351562 23.007812 -42.691406 C 23.101562 -42.078125 23.042969 -41.261719 22.902344 -40.433594 L 19.234375 -21.4375 C 18.839844 -19.320312 18.691406 -17.328125 18.96875 -15.488281 C 20.183594 -7.4375 27.484375 -4.152344 34.925781 -5.277344 C 43.855469 -6.625 52.484375 -14.105469 55.945312 -32.085938 C 56.101562 -32.828125 56.171875 -33.554688 56.078125 -34.164062 C 55.65625 -36.96875 52.890625 -38.070312 50.265625 -37.675781 C 47.902344 -37.316406 45.476562 -35.609375 45.035156 -32.585938 Z M 45.035156 -32.585938 "/></g></g></g><g fill="#f6f3e4" fill-opacity="1"><g transform="translate(117.613837, 311.388568)"><g><path d="M 57.609375 -35.292969 C 56.589844 -29.585938 53.632812 -25.46875 48.816406 -24.742188 L 48.730469 -24.730469 C 50.152344 -28.347656 50.816406 -32.835938 50.144531 -37.296875 C 49.441406 -41.9375 47.226562 -46.527344 42.957031 -49.910156 C 48.226562 -54.734375 51.089844 -63.046875 50.070312 -69.785156 C 48.722656 -78.714844 41.175781 -83.035156 33.441406 -82.675781 C 32.640625 -82.644531 31.664062 -82.585938 30.4375 -82.398438 C 27.988281 -82.03125 24.800781 -81.191406 21.726562 -79.023438 C 21.289062 -81.914062 18.402344 -83.269531 15.425781 -82.816406 C 12.449219 -82.367188 9.398438 -80.027344 8.78125 -75.816406 L -4.355469 -7.488281 C -4.621094 -6.285156 -4.625 -5.121094 -4.492188 -4.246094 C -3.949219 -0.65625 -0.917969 1.035156 2.058594 0.585938 C 5.121094 0.121094 8.203125 -2.582031 8.351562 -7.527344 C 12.078125 -3.613281 19.226562 -1.917969 26.144531 -2.964844 C 32.796875 -3.96875 39.542969 -7.316406 43.972656 -13.535156 C 45.714844 -13.261719 47.507812 -13.265625 49.609375 -13.582031 C 59.847656 -15.128906 67.007812 -23.460938 68.457031 -34.601562 C 68.480469 -35.054688 68.5 -35.503906 68.445312 -35.855469 C 68.011719 -38.742188 64.957031 -39.984375 62.15625 -39.5625 C 59.96875 -39.230469 57.941406 -37.847656 57.609375 -35.292969 Z M 22.4375 -55.945312 C 19.808594 -54.382812 17.8125 -50.410156 18.421875 -46.382812 C 18.539062 -45.597656 18.746094 -44.820312 19.039062 -44.058594 C 21.230469 -39.644531 25.378906 -38.839844 28.707031 -39.34375 C 30.019531 -39.539062 31.21875 -39.902344 32.039062 -40.382812 C 34.308594 -40.1875 35.824219 -38.449219 36.261719 -35.558594 C 36.484375 -34.070312 36.472656 -32.367188 36.066406 -30.335938 C 32.449219 -32.925781 27.378906 -34.488281 21.503906 -33.6875 C 18.699219 -33.265625 15.441406 -32.324219 13.398438 -31.03125 L 19.511719 -61.679688 C 21.054688 -66.300781 25.636719 -69.140625 29.402344 -69.710938 C 32.554688 -70.183594 35.382812 -68.644531 35.832031 -65.667969 C 36.214844 -63.128906 35.625 -58.742188 31.6875 -56.355469 C 30.707031 -56.925781 28.210938 -57.441406 25.671875 -57.058594 C 24.535156 -56.886719 23.421875 -56.539062 22.4375 -55.945312 Z M 23.515625 -13.847656 C 20.277344 -13.359375 18.210938 -14.570312 17.910156 -16.582031 C 17.84375 -17.019531 17.777344 -17.457031 17.886719 -17.921875 C 18.242188 -20.304688 20.28125 -22.222656 23.605469 -22.726562 C 27.195312 -23.265625 29.761719 -21.683594 32.480469 -19.679688 C 30.21875 -16.292969 26.664062 -14.324219 23.515625 -13.847656 Z M 23.515625 -13.847656 "/></g></g></g><g fill="#f6f3e4" fill-opacity="1"><g transform="translate(175.995668, 302.570231)"><g><path d="M 40.5625 -31.375 C 38.246094 -20.640625 29.675781 -15.136719 22.234375 -14.011719 C 15.847656 -13.046875 11.355469 -15.503906 10.75 -19.53125 C 10.628906 -20.316406 10.597656 -21.117188 10.816406 -22.046875 L 11.265625 -23.816406 C 14.042969 -22.625 17.351562 -22.050781 20.851562 -22.578125 C 28.816406 -23.78125 35.066406 -29.828125 36.242188 -38.0625 C 36.425781 -39.792969 36.4375 -41.496094 36.214844 -42.984375 C 34.957031 -51.300781 27.425781 -56.699219 17.535156 -55.203125 C 9.746094 -54.027344 2.816406 -48.324219 1.078125 -39.109375 L -1.828125 -23.359375 C -2.210938 -21.152344 -2.332031 -18.988281 -2.027344 -16.972656 C -0.453125 -6.558594 10.328125 -1.558594 23.109375 -3.492188 C 35.277344 -5.328125 48.207031 -13.371094 51.460938 -30.960938 C 51.617188 -31.699219 51.609375 -32.328125 51.53125 -32.851562 C 51.121094 -35.566406 48.445312 -36.683594 45.820312 -36.285156 C 43.371094 -35.917969 40.941406 -34.207031 40.5625 -31.375 Z M 18.832031 -44.835938 C 21.285156 -45.203125 23.164062 -43.429688 23.546875 -40.890625 C 23.652344 -40.191406 23.671875 -39.476562 23.515625 -38.738281 C 23.074219 -35.714844 20.609375 -34.269531 17.984375 -33.871094 C 16.320312 -33.621094 14.601562 -33.71875 13.273438 -34.234375 L 14.316406 -39.765625 C 14.871094 -42.625 16.820312 -44.53125 18.832031 -44.835938 Z M 18.832031 -44.835938 "/></g></g></g><g fill="#f6f3e4" fill-opacity="1"><g transform="translate(217.484407, 296.303527)"><g><path d="M 50.414062 -37.875 C 47.964844 -37.507812 45.476562 -35.609375 44.925781 -32.125 C 43.140625 -20.839844 38.167969 -16.417969 34.226562 -15.824219 C 32.738281 -15.597656 31.746094 -16.253906 31.535156 -17.65625 C 31.429688 -18.355469 31.472656 -19.257812 31.589844 -20.261719 L 37.109375 -50.101562 C 37.300781 -51.207031 37.328125 -52.195312 37.195312 -53.070312 C 36.617188 -56.921875 33.160156 -58.457031 29.921875 -57.96875 C 27.46875 -57.597656 25.105469 -56.078125 24.035156 -53.679688 C 22.023438 -54.539062 18.410156 -55.335938 13.949219 -54.660156 C 8.171875 -53.789062 2.34375 -49.683594 1 -42.589844 L -3.671875 -17.800781 C -3.960938 -16.144531 -4.074219 -14.515625 -3.835938 -12.941406 C -2.738281 -5.675781 4.027344 -0.609375 11.730469 -1.773438 C 15.84375 -2.394531 19.769531 -4.867188 22.570312 -8.242188 C 25.980469 -4.640625 32.300781 -4.878906 34.925781 -5.277344 C 42.191406 -6.371094 51.351562 -11.515625 54.8125 -26.542969 C 55.523438 -30.140625 56.15625 -32.476562 55.917969 -34.050781 C 55.46875 -37.027344 52.953125 -38.261719 50.414062 -37.875 Z M 21.394531 -34.386719 L 19.164062 -20.710938 C 18.1875 -14.742188 15.058594 -12.929688 13.21875 -12.652344 C 11.292969 -12.359375 10.144531 -13.441406 9.84375 -15.453125 C 9.671875 -16.589844 9.773438 -17.679688 9.917969 -18.507812 L 12.863281 -36.949219 C 13.71875 -42.539062 16.0625 -43.609375 17.464844 -43.820312 C 19.128906 -44.074219 21.21875 -42.6875 21.667969 -39.710938 C 21.863281 -38.398438 21.765625 -36.683594 21.394531 -34.386719 Z M 21.394531 -34.386719 "/></g></g></g><g fill="#f6f3e4" fill-opacity="1"><g transform="translate(263.437121, 289.362557)"><g><path d="M 45.035156 -32.585938 C 42.769531 -21.5 38.605469 -16.484375 34.492188 -15.863281 C 32.914062 -15.625 31.921875 -16.28125 31.695312 -17.769531 C 31.601562 -18.382812 31.671875 -19.109375 31.804688 -20.023438 L 35.695312 -40.488281 C 36.042969 -42.332031 36.15625 -43.960938 35.929688 -45.449219 C 34.875 -52.449219 28.128906 -56.804688 21.125 -55.746094 C 17.710938 -55.230469 15.117188 -54.03125 13.09375 -52.023438 C 12.328125 -53.523438 10.007812 -54.066406 7.644531 -53.710938 C 5.195312 -53.339844 3.003906 -51.84375 2.496094 -49.261719 L -5.945312 -6.175781 C -6.089844 -5.347656 -6.070312 -4.632812 -5.964844 -3.933594 C -5.476562 -0.695312 -2.6875 0.585938 0.113281 0.160156 C 3.175781 -0.300781 6.386719 -2.753906 7.105469 -6.894531 C 8.886719 -15.847656 11.277344 -28.472656 12.984375 -37.324219 C 14.6875 -42.058594 17.433594 -44.625 19.882812 -44.992188 C 21.460938 -45.230469 22.757812 -44.351562 23.007812 -42.691406 C 23.101562 -42.078125 23.042969 -41.261719 22.902344 -40.433594 L 19.234375 -21.4375 C 18.839844 -19.320312 18.691406 -17.328125 18.96875 -15.488281 C 20.183594 -7.4375 27.484375 -4.152344 34.925781 -5.277344 C 43.855469 -6.625 52.484375 -14.105469 55.945312 -32.085938 C 56.101562 -32.828125 56.171875 -33.554688 56.078125 -34.164062 C 55.65625 -36.96875 52.890625 -38.070312 50.265625 -37.675781 C 47.902344 -37.316406 45.476562 -35.609375 45.035156 -32.585938 Z M 45.035156 -32.585938 "/></g></g></g></svg>