<svg xmlns="http://www.w3.org/2000/svg" xmlns:xlink="http://www.w3.org/1999/xlink" width="500" zoomAndPan="magnify" viewBox="0 0 375 149.999998" height="200" preserveAspectRatio="xMidYMid meet" version="1.0"><defs><g/></defs><path fill="#ac6943" d="M 74.5 59.078125 C 80.605469 68.425781 76.992188 78.230469 66.421875 80.984375 C 55.855469 83.730469 42.328125 78.386719 36.214844 69.042969 C 30.109375 59.691406 33.71875 49.890625 44.292969 47.136719 C 54.867188 44.390625 68.386719 49.734375 74.5 59.078125 " fill-opacity="1" fill-rule="nonzero"/><path fill="#804d30" d="M 52.902344 62.585938 C 52.761719 62.09375 52.621094 61.601562 52.472656 61.113281 C 52.144531 59.984375 51.804688 58.875 51.433594 57.808594 C 51.046875 56.746094 50.660156 55.730469 50.203125 54.785156 C 49.734375 53.84375 49.257812 52.960938 48.742188 52.167969 C 47.714844 50.582031 46.605469 49.324219 45.738281 48.464844 C 44.863281 47.605469 44.292969 47.140625 44.296875 47.136719 C 44.292969 47.140625 45.195312 47.523438 46.492188 48.269531 C 47.792969 49.011719 49.457031 50.121094 50.945312 51.59375 C 51.691406 52.328125 52.429688 53.144531 53.058594 54.042969 C 53.707031 54.933594 54.316406 55.898438 54.828125 56.929688 C 55.34375 57.953125 55.800781 59.03125 56.199219 60.148438 C 56.445312 60.871094 56.675781 61.605469 56.90625 62.339844 C 56.886719 62.339844 56.867188 62.339844 56.847656 62.339844 C 55.554688 62.339844 54.234375 62.425781 52.902344 62.585938 " fill-opacity="1" fill-rule="nonzero"/><path fill="#b3744f" d="M 59.800781 62.492188 C 59.488281 62.460938 59.171875 62.433594 58.851562 62.410156 C 58.839844 62.371094 58.828125 62.335938 58.8125 62.296875 C 58.605469 61.714844 58.398438 61.167969 58.1875 60.667969 C 57.757812 59.664062 57.328125 58.84375 57 58.273438 C 56.667969 57.699219 56.464844 57.378906 56.464844 57.378906 C 56.464844 57.378906 56.769531 57.683594 57.222656 58.234375 C 57.675781 58.785156 58.265625 59.578125 58.828125 60.558594 C 59.109375 61.050781 59.394531 61.578125 59.652344 62.152344 C 59.703125 62.265625 59.75 62.378906 59.800781 62.492188 " fill-opacity="1" fill-rule="nonzero"/><path fill="#b3744f" d="M 49.738281 63.117188 C 49.5625 62.523438 49.402344 61.921875 49.238281 61.324219 C 49.066406 60.636719 48.894531 59.949219 48.707031 59.273438 C 48.523438 58.597656 48.34375 57.9375 48.152344 57.296875 C 47.964844 56.660156 47.777344 56.042969 47.570312 55.460938 C 47.359375 54.878906 47.152344 54.335938 46.941406 53.835938 C 46.511719 52.828125 46.082031 52.007812 45.757812 51.4375 C 45.429688 50.863281 45.21875 50.546875 45.21875 50.546875 C 45.21875 50.546875 45.527344 50.847656 45.972656 51.398438 C 46.429688 51.945312 47.023438 52.738281 47.582031 53.722656 C 47.867188 54.210938 48.148438 54.742188 48.402344 55.320312 C 48.667969 55.886719 48.921875 56.496094 49.152344 57.128906 C 49.378906 57.761719 49.59375 58.414062 49.792969 59.09375 C 49.988281 59.761719 50.175781 60.445312 50.363281 61.132812 C 50.519531 61.722656 50.671875 62.316406 50.824219 62.902344 C 50.464844 62.96875 50.097656 63.039062 49.738281 63.117188 " fill-opacity="1" fill-rule="nonzero"/><path fill="#4f2217" d="M 92.5 88.4375 C 94.125 95.523438 108.132812 100.191406 123.925781 98.890625 C 139.722656 97.578125 151.347656 90.785156 150.019531 83.679688 L 92.5 88.4375 " fill-opacity="1" fill-rule="nonzero"/><path fill="#6b3022" d="M 119.417969 77.164062 C 135.296875 75.847656 149.007812 78.765625 150.023438 83.679688 C 151.054688 88.59375 138.996094 93.636719 123.109375 94.953125 C 107.222656 96.265625 93.515625 93.351562 92.492188 88.4375 C 91.472656 83.53125 103.523438 78.476562 119.417969 77.164062 " fill-opacity="1" fill-rule="nonzero"/><path fill="#512318" d="M 125.296875 86.96875 C 124.019531 86.96875 122.730469 86.960938 121.449219 86.949219 C 119.609375 86.921875 117.777344 86.894531 115.976562 86.886719 C 114.945312 86.875 113.929688 86.867188 112.925781 86.867188 C 113.636719 86.324219 114.324219 85.753906 114.972656 85.160156 C 115.1875 85.160156 115.402344 85.15625 115.613281 85.15625 C 116.140625 85.152344 116.671875 85.152344 117.203125 85.152344 C 118.484375 85.152344 119.777344 85.160156 121.074219 85.164062 C 122.910156 85.1875 124.742188 85.207031 126.550781 85.230469 C 127.832031 85.238281 129.105469 85.25 130.351562 85.25 C 130.851562 85.25 131.347656 85.246094 131.835938 85.242188 C 133.546875 85.222656 135.199219 85.199219 136.757812 85.136719 C 138.316406 85.066406 139.785156 84.984375 141.132812 84.878906 C 143.828125 84.65625 146.054688 84.359375 147.601562 84.109375 C 149.136719 83.859375 150.007812 83.679688 150.023438 83.679688 C 150.015625 83.679688 149.175781 84.011719 147.675781 84.460938 C 146.167969 84.914062 144 85.472656 141.34375 85.902344 C 140.019531 86.125 138.574219 86.324219 137.035156 86.472656 C 135.492188 86.625 133.863281 86.75 132.164062 86.828125 C 130.46875 86.90625 128.703125 86.949219 126.90625 86.964844 C 126.371094 86.96875 125.835938 86.96875 125.296875 86.96875 " fill-opacity="1" fill-rule="nonzero"/><path fill="#763c2b" d="M 133.664062 84.480469 C 133.179688 84.480469 132.6875 84.480469 132.191406 84.472656 C 131.121094 84.46875 130.035156 84.449219 128.949219 84.433594 C 127.863281 84.414062 126.78125 84.394531 125.707031 84.378906 C 124.640625 84.359375 123.582031 84.34375 122.566406 84.335938 C 121.910156 84.332031 121.269531 84.328125 120.648438 84.328125 C 120.300781 84.328125 119.957031 84.328125 119.625 84.332031 C 118.6875 84.339844 117.800781 84.355469 116.980469 84.375 C 116.558594 84.386719 116.152344 84.402344 115.761719 84.414062 C 115.851562 84.328125 115.9375 84.242188 116.023438 84.15625 C 116.339844 84.132812 116.667969 84.109375 117.007812 84.089844 C 117.828125 84.027344 118.71875 83.984375 119.65625 83.957031 C 120.59375 83.921875 121.585938 83.894531 122.601562 83.890625 C 123.175781 83.878906 123.761719 83.878906 124.351562 83.878906 C 124.8125 83.878906 125.277344 83.878906 125.746094 83.882812 C 126.816406 83.894531 127.90625 83.914062 128.992188 83.925781 C 130.078125 83.945312 131.164062 83.964844 132.238281 83.984375 C 133.300781 83.996094 134.359375 84.011719 135.378906 84.023438 C 135.972656 84.027344 136.558594 84.027344 137.128906 84.027344 C 137.535156 84.027344 137.929688 84.027344 138.316406 84.027344 C 139.257812 84.015625 140.136719 84.007812 140.960938 83.984375 C 142.59375 83.9375 143.957031 83.871094 144.917969 83.808594 C 145.875 83.746094 146.421875 83.703125 146.421875 83.703125 C 146.421875 83.703125 145.875 83.796875 144.90625 83.914062 C 143.949219 84.027344 142.574219 84.167969 140.929688 84.273438 C 140.109375 84.324219 139.222656 84.375 138.285156 84.402344 C 137.347656 84.4375 136.359375 84.460938 135.339844 84.472656 C 134.789062 84.476562 134.230469 84.480469 133.664062 84.480469 " fill-opacity="1" fill-rule="nonzero"/><path fill="#ac6943" d="M 117.417969 82.632812 C 109.878906 91.546875 95.585938 96.027344 85.492188 92.632812 C 75.40625 89.242188 73.339844 79.257812 80.878906 70.335938 C 88.417969 61.410156 102.710938 56.933594 112.800781 60.328125 C 122.890625 63.726562 124.957031 73.707031 117.417969 82.632812 " fill-opacity="1" fill-rule="nonzero"/><path fill="#804d30" d="M 95.238281 81.402344 C 94.257812 80.917969 93.214844 80.453125 92.121094 80.011719 C 92.667969 79.527344 93.238281 79.046875 93.835938 78.5625 C 94.933594 77.660156 96.132812 76.761719 97.316406 75.867188 C 98.535156 74.980469 99.75 74.09375 100.914062 73.207031 C 102.085938 72.324219 103.234375 71.453125 104.292969 70.59375 C 105.34375 69.730469 106.34375 68.894531 107.210938 68.070312 C 108.0625 67.242188 108.839844 66.453125 109.484375 65.699219 C 110.765625 64.183594 111.601562 62.839844 112.097656 61.875 C 112.585938 60.90625 112.796875 60.332031 112.800781 60.332031 C 112.796875 60.332031 112.902344 61.019531 112.820312 62.121094 C 112.738281 63.226562 112.4375 64.742188 111.585938 66.402344 C 111.164062 67.234375 110.632812 68.105469 109.941406 68.988281 C 109.253906 69.875 108.46875 70.78125 107.53125 71.6875 C 106.609375 72.589844 105.574219 73.5 104.46875 74.398438 C 103.34375 75.296875 102.164062 76.199219 100.988281 77.097656 C 99.777344 77.988281 98.574219 78.882812 97.390625 79.757812 C 96.660156 80.3125 95.9375 80.859375 95.238281 81.402344 " fill-opacity="1" fill-rule="nonzero"/><path fill="#b3744f" d="M 97.496094 82.628906 C 97.214844 82.460938 96.929688 82.300781 96.640625 82.140625 C 96.890625 81.953125 97.144531 81.769531 97.398438 81.582031 C 98.132812 81.0625 98.859375 80.539062 99.5625 80.019531 C 100.273438 79.507812 100.972656 78.996094 101.632812 78.496094 C 102.292969 77.996094 102.925781 77.511719 103.507812 77.039062 C 104.082031 76.570312 104.621094 76.121094 105.09375 75.699219 C 106.050781 74.855469 106.78125 74.121094 107.269531 73.601562 C 107.757812 73.074219 108.023438 72.765625 108.023438 72.765625 C 108.023438 72.765625 107.839844 73.113281 107.457031 73.683594 C 107.078125 74.253906 106.476562 75.046875 105.640625 75.945312 C 105.222656 76.390625 104.746094 76.867188 104.214844 77.359375 C 103.679688 77.847656 103.105469 78.359375 102.472656 78.871094 C 101.847656 79.386719 101.179688 79.910156 100.484375 80.433594 C 99.789062 80.957031 99.066406 81.480469 98.351562 82.011719 C 98.066406 82.214844 97.78125 82.421875 97.496094 82.628906 " fill-opacity="1" fill-rule="nonzero"/><path fill="#b3744f" d="M 90.457031 79.382812 C 90.335938 79.34375 90.21875 79.296875 90.097656 79.257812 C 90.425781 78.832031 90.828125 78.347656 91.316406 77.832031 C 91.738281 77.378906 92.203125 76.902344 92.742188 76.414062 C 93.273438 75.921875 93.847656 75.414062 94.484375 74.902344 C 95.105469 74.382812 95.769531 73.863281 96.472656 73.335938 C 97.160156 72.808594 97.886719 72.289062 98.605469 71.761719 C 99.332031 71.242188 100.058594 70.71875 100.769531 70.203125 C 101.480469 69.679688 102.175781 69.171875 102.835938 68.671875 C 103.496094 68.171875 104.132812 67.691406 104.710938 67.21875 C 105.28125 66.746094 105.824219 66.296875 106.296875 65.878906 C 107.25 65.03125 107.980469 64.296875 108.472656 63.777344 C 108.957031 63.253906 109.222656 62.945312 109.226562 62.945312 C 109.226562 62.945312 109.042969 63.292969 108.660156 63.859375 C 108.277344 64.429688 107.683594 65.222656 106.839844 66.121094 C 106.425781 66.570312 105.949219 67.046875 105.417969 67.539062 C 104.882812 68.03125 104.308594 68.535156 103.679688 69.050781 C 103.050781 69.5625 102.382812 70.085938 101.6875 70.613281 C 100.988281 71.132812 100.273438 71.660156 99.554688 72.1875 C 98.828125 72.707031 98.105469 73.234375 97.390625 73.75 C 96.683594 74.265625 95.984375 74.777344 95.320312 75.273438 C 94.664062 75.777344 94.03125 76.261719 93.449219 76.730469 C 92.875 77.199219 92.339844 77.648438 91.863281 78.070312 C 91.320312 78.550781 90.851562 78.996094 90.457031 79.382812 " fill-opacity="1" fill-rule="nonzero"/><path fill="#6b3022" d="M 66.65625 86.542969 C 57.582031 94.878906 42.585938 98.324219 33.160156 94.238281 C 23.738281 90.152344 23.453125 80.085938 32.523438 71.753906 C 41.597656 63.417969 56.589844 59.976562 66.015625 64.058594 C 75.441406 68.144531 75.726562 78.210938 66.65625 86.542969 " fill-opacity="1" fill-rule="nonzero"/><path fill="#512318" d="M 33.167969 94.238281 C 33.171875 94.238281 33.1875 93.550781 33.460938 92.457031 C 33.742188 91.367188 34.308594 89.878906 35.453125 88.289062 C 36.011719 87.492188 36.691406 86.65625 37.539062 85.835938 C 38.375 85.003906 39.320312 84.15625 40.410156 83.328125 C 41.488281 82.492188 42.671875 81.660156 43.941406 80.84375 C 45.195312 80.019531 46.542969 79.210938 47.878906 78.40625 C 49.246094 77.613281 50.609375 76.8125 51.921875 76.019531 C 53.246094 75.222656 54.535156 74.4375 55.738281 73.660156 C 56.9375 72.878906 58.082031 72.113281 59.089844 71.359375 C 60.082031 70.59375 60.996094 69.863281 61.769531 69.160156 C 63.308594 67.746094 64.378906 66.476562 65.039062 65.546875 C 65.703125 64.621094 66.011719 64.058594 66.015625 64.058594 C 66.011719 64.058594 66 64.75 65.71875 65.839844 C 65.4375 66.933594 64.875 68.417969 63.722656 70.007812 C 63.164062 70.804688 62.484375 71.636719 61.636719 72.464844 C 60.804688 73.292969 59.859375 74.144531 58.769531 74.972656 C 57.695312 75.808594 56.503906 76.640625 55.242188 77.453125 C 53.964844 78.265625 52.632812 79.078125 51.304688 79.894531 C 49.949219 80.691406 48.597656 81.492188 47.261719 82.28125 C 45.945312 83.078125 44.652344 83.859375 43.445312 84.640625 C 42.25 85.421875 41.109375 86.1875 40.101562 86.941406 C 39.109375 87.703125 38.195312 88.4375 37.421875 89.140625 C 35.875 90.558594 34.8125 91.828125 34.144531 92.753906 C 33.484375 93.675781 33.175781 94.238281 33.167969 94.238281 " fill-opacity="1" fill-rule="nonzero"/><path fill="#763c2b" d="M 35.707031 92.597656 C 35.707031 92.597656 35.9375 92.269531 36.421875 91.726562 C 36.90625 91.1875 37.640625 90.441406 38.632812 89.613281 C 39.125 89.195312 39.683594 88.753906 40.300781 88.300781 C 40.910156 87.855469 41.582031 87.390625 42.296875 86.925781 C 43.011719 86.453125 43.769531 85.980469 44.554688 85.511719 C 45.332031 85.039062 46.140625 84.566406 46.949219 84.09375 C 47.769531 83.628906 48.585938 83.160156 49.378906 82.695312 C 50.175781 82.230469 50.953125 81.773438 51.703125 81.324219 C 52.449219 80.875 53.164062 80.4375 53.820312 80.011719 C 54.472656 79.589844 55.085938 79.179688 55.640625 78.789062 C 56.734375 78.015625 57.59375 77.34375 58.171875 76.851562 C 58.75 76.367188 59.0625 76.085938 59.066406 76.085938 C 59.066406 76.085938 58.824219 76.414062 58.339844 76.953125 C 57.898438 77.445312 57.257812 78.105469 56.398438 78.847656 C 54.304688 79.800781 52.613281 80.996094 51.460938 82.40625 C 51.054688 82.660156 50.640625 82.914062 50.21875 83.167969 C 49.433594 83.640625 48.621094 84.109375 47.820312 84.585938 C 47.003906 85.050781 46.191406 85.523438 45.390625 85.984375 C 44.59375 86.449219 43.8125 86.90625 43.066406 87.355469 C 42.324219 87.804688 41.601562 88.246094 40.949219 88.667969 C 40.292969 89.09375 39.683594 89.503906 39.128906 89.890625 C 38.03125 90.664062 37.179688 91.339844 36.597656 91.824219 C 36.019531 92.3125 35.707031 92.597656 35.707031 92.597656 " fill-opacity="1" fill-rule="nonzero"/><path fill="#763c2b" d="M 38.636719 82.921875 C 38.636719 82.921875 38.875 82.59375 39.359375 82.054688 C 39.835938 81.511719 40.570312 80.761719 41.5625 79.933594 C 42.058594 79.523438 42.613281 79.078125 43.238281 78.632812 C 43.847656 78.175781 44.511719 77.710938 45.230469 77.246094 C 45.945312 76.777344 46.699219 76.304688 47.484375 75.835938 C 48.265625 75.359375 49.078125 74.890625 49.886719 74.417969 C 50.699219 73.949219 51.519531 73.488281 52.308594 73.015625 C 53.109375 72.558594 53.890625 72.097656 54.636719 71.648438 C 55.378906 71.199219 56.09375 70.761719 56.753906 70.335938 C 57.410156 69.910156 58.023438 69.503906 58.574219 69.117188 C 59.667969 68.339844 60.527344 67.664062 61.105469 67.175781 C 61.683594 66.691406 61.992188 66.410156 62 66.410156 C 62 66.410156 61.761719 66.738281 61.277344 67.273438 C 60.792969 67.816406 60.066406 68.5625 59.066406 69.394531 C 58.574219 69.808594 58.019531 70.25 57.398438 70.699219 C 56.789062 71.148438 56.117188 71.617188 55.402344 72.082031 C 54.691406 72.550781 53.9375 73.019531 53.152344 73.496094 C 52.363281 73.960938 51.558594 74.433594 50.753906 74.90625 C 49.9375 75.378906 49.125 75.847656 48.320312 76.308594 C 47.527344 76.777344 46.746094 77.230469 46.003906 77.679688 C 45.257812 78.128906 44.542969 78.566406 43.882812 78.992188 C 43.226562 79.417969 42.613281 79.828125 42.066406 80.21875 C 40.96875 80.988281 40.109375 81.664062 39.53125 82.148438 C 38.949219 82.636719 38.636719 82.921875 38.636719 82.921875 " fill-opacity="1" fill-rule="nonzero"/><path fill="#3a1314" d="M 85.441406 77.871094 C 100.335938 81.605469 108.992188 90.058594 104.773438 96.769531 C 100.554688 103.472656 85.0625 105.886719 70.164062 102.160156 C 55.277344 98.429688 46.617188 89.96875 50.839844 83.269531 C 55.050781 76.554688 70.550781 74.144531 85.441406 77.871094 " fill-opacity="1" fill-rule="nonzero"/><path fill="#2e0e0e" d="M 100.300781 97.007812 C 98.796875 97.007812 97.003906 96.929688 95.074219 96.679688 C 93.710938 96.515625 92.273438 96.28125 90.8125 95.941406 C 89.34375 95.613281 87.824219 95.21875 86.296875 94.738281 C 84.765625 94.257812 83.226562 93.714844 81.679688 93.117188 C 80.125 92.523438 78.585938 91.878906 77.039062 91.234375 C 75.503906 90.570312 73.972656 89.90625 72.445312 89.273438 C 70.925781 88.640625 69.425781 88.019531 67.953125 87.449219 C 66.476562 86.886719 65.046875 86.351562 63.65625 85.90625 C 62.253906 85.460938 60.917969 85.0625 59.660156 84.742188 C 57.132812 84.109375 54.929688 83.730469 53.347656 83.535156 C 51.824219 83.339844 50.898438 83.273438 50.839844 83.261719 C 50.910156 83.257812 51.960938 83.121094 53.65625 83.050781 C 54.148438 83.03125 54.695312 83.015625 55.289062 83.015625 C 56.796875 83.015625 58.597656 83.097656 60.539062 83.347656 C 61.894531 83.519531 63.332031 83.753906 64.796875 84.089844 C 66.265625 84.421875 67.785156 84.808594 69.3125 85.292969 C 70.839844 85.773438 72.386719 86.320312 73.929688 86.914062 C 75.472656 87.519531 77.023438 88.15625 78.570312 88.792969 C 80.109375 89.453125 81.648438 90.105469 83.167969 90.75 C 84.683594 91.382812 86.1875 92.007812 87.65625 92.574219 C 89.132812 93.136719 90.566406 93.667969 91.957031 94.121094 C 93.359375 94.5625 94.691406 94.957031 95.949219 95.28125 C 98.480469 95.914062 100.683594 96.289062 102.261719 96.492188 C 103.839844 96.695312 104.773438 96.761719 104.773438 96.765625 C 104.734375 96.765625 103.675781 96.910156 101.957031 96.976562 C 101.457031 96.996094 100.898438 97.007812 100.300781 97.007812 " fill-opacity="1" fill-rule="nonzero"/><path fill="#481d1d" d="M 101.667969 95.570312 C 101.667969 95.566406 101.109375 95.496094 100.167969 95.316406 C 99.226562 95.140625 97.914062 94.859375 96.40625 94.429688 C 95.648438 94.222656 94.847656 93.976562 94.015625 93.695312 C 93.1875 93.417969 92.316406 93.109375 91.441406 92.773438 C 90.554688 92.4375 89.660156 92.078125 88.757812 91.699219 C 87.851562 91.324219 86.941406 90.929688 86.035156 90.539062 C 85.136719 90.140625 84.230469 89.742188 83.335938 89.355469 C 82.441406 88.96875 81.558594 88.59375 80.695312 88.234375 C 79.835938 87.875 79.003906 87.53125 78.199219 87.222656 C 77.394531 86.910156 76.621094 86.625 75.90625 86.375 C 74.472656 85.875 73.234375 85.492188 72.351562 85.25 C 71.472656 85 70.960938 84.867188 70.960938 84.867188 C 70.960938 84.867188 71.523438 84.945312 72.460938 85.121094 C 73.410156 85.296875 74.722656 85.582031 76.222656 86.007812 C 76.980469 86.21875 77.785156 86.460938 78.621094 86.742188 C 79.445312 87.019531 80.316406 87.328125 81.195312 87.664062 C 82.078125 88 82.972656 88.363281 83.878906 88.734375 C 84.777344 89.117188 85.691406 89.503906 86.597656 89.894531 C 87.507812 90.296875 88.414062 90.691406 89.300781 91.078125 C 90.195312 91.46875 91.078125 91.84375 91.933594 92.203125 C 92.800781 92.558594 93.632812 92.90625 94.4375 93.21875 C 95.242188 93.527344 96.007812 93.808594 96.734375 94.0625 C 98.167969 94.5625 99.402344 94.941406 100.28125 95.191406 C 101.160156 95.4375 101.667969 95.566406 101.667969 95.570312 " fill-opacity="1" fill-rule="nonzero"/><path fill="#481d1d" d="M 86.066406 95.914062 C 86.066406 95.914062 85.503906 95.839844 84.566406 95.664062 C 83.621094 95.484375 82.308594 95.199219 80.800781 94.777344 C 80.046875 94.5625 79.242188 94.324219 78.414062 94.039062 C 77.578125 93.761719 76.714844 93.457031 75.832031 93.121094 C 74.953125 92.785156 74.054688 92.425781 73.152344 92.046875 C 72.25 91.671875 71.335938 91.277344 70.429688 90.886719 C 69.527344 90.488281 68.625 90.089844 67.730469 89.703125 C 66.835938 89.316406 65.953125 88.9375 65.09375 88.574219 C 64.234375 88.222656 63.394531 87.875 62.59375 87.566406 C 61.785156 87.257812 61.019531 86.972656 60.300781 86.71875 C 58.859375 86.214844 57.625 85.839844 56.746094 85.589844 C 55.871094 85.34375 55.355469 85.21875 55.359375 85.214844 C 55.359375 85.214844 55.917969 85.289062 56.859375 85.464844 C 57.796875 85.644531 59.117188 85.925781 60.625 86.347656 C 61.375 86.566406 62.183594 86.804688 63.007812 87.085938 C 63.84375 87.367188 64.710938 87.671875 65.589844 88.007812 C 66.472656 88.339844 67.371094 88.703125 68.273438 89.078125 C 69.171875 89.460938 70.082031 89.855469 70.996094 90.246094 C 71.898438 90.640625 72.800781 91.035156 73.699219 91.425781 C 74.589844 91.8125 75.472656 92.1875 76.332031 92.550781 C 77.191406 92.90625 78.03125 93.25 78.828125 93.558594 C 79.636719 93.867188 80.410156 94.15625 81.125 94.40625 C 82.5625 94.910156 83.796875 95.289062 84.679688 95.535156 C 85.554688 95.78125 86.066406 95.914062 86.066406 95.914062 " fill-opacity="1" fill-rule="nonzero"/><g fill="#6c3223" fill-opacity="1"><g transform="translate(183.51668, 77.692191)"><g><path d="M 18.511719 -26.351562 L 10.390625 -26.351562 C 8.847656 -26.320312 7.964844 -25.09375 7.964844 -23.925781 C 7.964844 -22.886719 8.65625 -21.914062 10.261719 -21.914062 L 13.570312 -21.914062 L 8.59375 -7.304688 C 7.746094 -4.847656 6.484375 -4.0625 5.003906 -4.0625 C 4.40625 -4.0625 3.96875 -4.722656 3.96875 -5.003906 C 4 -5.132812 4 -5.289062 4 -5.414062 C 4 -6.644531 2.832031 -7.398438 1.667969 -7.398438 C 0.503906 -7.398438 -0.691406 -6.644531 -0.691406 -4.816406 C -0.691406 -1.921875 2.015625 0.378906 5.476562 0.378906 C 8.121094 0.378906 11.648438 -1.101562 13.316406 -5.917969 L 20.023438 -25.4375 C 20.179688 -25.878906 19.898438 -26.351562 19.394531 -26.351562 Z M 18.511719 -26.351562 "/></g></g></g><g fill="#6c3223" fill-opacity="1"><g transform="translate(199.73005, 77.692191)"><g><path d="M 19.738281 -10.640625 C 18.859375 -10.640625 17.882812 -10.105469 17.503906 -8.910156 C 16.277344 -5.039062 14.292969 -3.746094 12.875 -3.746094 C 12.339844 -3.746094 12.027344 -4.03125 12.027344 -4.535156 C 12.027344 -4.785156 12.089844 -5.101562 12.183594 -5.445312 L 15.710938 -15.648438 C 15.835938 -16.023438 15.898438 -16.371094 15.898438 -16.6875 C 15.898438 -18.070312 14.765625 -18.796875 13.601562 -18.796875 C 12.71875 -18.796875 11.804688 -18.386719 11.300781 -17.597656 C 10.640625 -18.007812 9.414062 -18.480469 7.808594 -18.480469 C 5.730469 -18.480469 3.464844 -17.347656 2.613281 -14.921875 L -0.347656 -6.453125 C -0.535156 -5.886719 -0.660156 -5.320312 -0.660156 -4.753906 C -0.660156 -2.140625 1.449219 0 4.21875 0 C 5.699219 0 7.210938 -0.660156 8.375 -1.699219 C 9.382812 -0.25 11.617188 0 12.5625 0 C 15.175781 0 18.667969 -1.324219 20.683594 -6.421875 C 21.125 -7.652344 21.472656 -8.4375 21.472656 -9.003906 C 21.472656 -10.074219 20.652344 -10.640625 19.738281 -10.640625 Z M 9.351562 -10.957031 L 7.839844 -6.265625 C 7.179688 -4.21875 5.980469 -3.746094 5.320312 -3.746094 C 4.628906 -3.746094 4.28125 -4.1875 4.28125 -4.910156 C 4.28125 -5.320312 4.375 -5.699219 4.46875 -5.980469 L 6.484375 -12.308594 C 7.082031 -14.230469 7.964844 -14.480469 8.46875 -14.480469 C 9.066406 -14.480469 9.726562 -13.882812 9.726562 -12.8125 C 9.726562 -12.339844 9.601562 -11.742188 9.351562 -10.957031 Z M 9.351562 -10.957031 "/></g></g></g><g fill="#6c3223" fill-opacity="1"><g transform="translate(216.258243, 77.692191)"><g><path d="M 17.441406 -9.351562 C 16.90625 -7.871094 16.121094 -7.019531 14.953125 -7.019531 C 13.914062 -7.019531 13.378906 -7.683594 13.378906 -8.53125 C 13.378906 -8.785156 13.441406 -9.097656 13.539062 -9.382812 C 15.238281 -12.46875 16.339844 -14.136719 16.339844 -15.867188 C 16.339844 -17.410156 15.457031 -18.480469 13.726562 -18.480469 C 10.546875 -18.480469 8.28125 -14.011719 8.28125 -10.671875 C 8.28125 -9.917969 8.40625 -9.222656 8.65625 -8.59375 L 6.925781 -5.980469 C 6.453125 -5.289062 5.382812 -4 4.941406 -4 C 4.847656 -4 4.785156 -4.09375 4.785156 -4.28125 C 4.785156 -4.566406 4.816406 -4.847656 4.910156 -5.195312 L 7.304688 -15.300781 C 7.398438 -15.648438 7.429688 -15.960938 7.429688 -16.246094 C 7.429688 -17.757812 6.390625 -18.480469 5.289062 -18.480469 C 4.15625 -18.480469 3.023438 -17.757812 2.707031 -16.402344 L 0.410156 -6.140625 C 0.285156 -5.574219 0.21875 -5.003906 0.21875 -4.503906 C 0.21875 -1.699219 2.015625 0 4.46875 0 C 6.707031 0 7.746094 -1.039062 9.824219 -3.433594 L 10.988281 -4.847656 C 11.871094 -3.808594 13.253906 -3.210938 14.921875 -3.210938 C 17.976562 -3.210938 20.273438 -5.257812 21.25 -8.5 C 21.3125 -8.6875 21.3125 -8.847656 21.3125 -9.003906 C 21.3125 -10.042969 20.339844 -10.671875 19.363281 -10.671875 C 18.542969 -10.671875 17.757812 -10.261719 17.441406 -9.351562 Z M 17.441406 -9.351562 "/></g></g></g><g fill="#6c3223" fill-opacity="1"><g transform="translate(232.597536, 77.692191)"><g><path d="M 19.738281 -10.640625 C 18.859375 -10.640625 17.882812 -10.105469 17.503906 -8.910156 C 16.277344 -5.039062 14.292969 -3.746094 12.875 -3.746094 C 12.339844 -3.746094 12.027344 -4.03125 12.027344 -4.535156 C 12.027344 -4.785156 12.089844 -5.101562 12.183594 -5.445312 L 15.710938 -15.648438 C 15.835938 -16.023438 15.898438 -16.371094 15.898438 -16.6875 C 15.898438 -18.070312 14.765625 -18.796875 13.601562 -18.796875 C 12.71875 -18.796875 11.804688 -18.386719 11.300781 -17.597656 C 10.640625 -18.007812 9.414062 -18.480469 7.808594 -18.480469 C 5.730469 -18.480469 3.464844 -17.347656 2.613281 -14.921875 L -0.347656 -6.453125 C -0.535156 -5.886719 -0.660156 -5.320312 -0.660156 -4.753906 C -0.660156 -2.140625 1.449219 0 4.21875 0 C 5.699219 0 7.210938 -0.660156 8.375 -1.699219 C 9.382812 -0.25 11.617188 0 12.5625 0 C 15.175781 0 18.667969 -1.324219 20.683594 -6.421875 C 21.125 -7.652344 21.472656 -8.4375 21.472656 -9.003906 C 21.472656 -10.074219 20.652344 -10.640625 19.738281 -10.640625 Z M 9.351562 -10.957031 L 7.839844 -6.265625 C 7.179688 -4.21875 5.980469 -3.746094 5.320312 -3.746094 C 4.628906 -3.746094 4.28125 -4.1875 4.28125 -4.910156 C 4.28125 -5.320312 4.375 -5.699219 4.46875 -5.980469 L 6.484375 -12.308594 C 7.082031 -14.230469 7.964844 -14.480469 8.46875 -14.480469 C 9.066406 -14.480469 9.726562 -13.882812 9.726562 -12.8125 C 9.726562 -12.339844 9.601562 -11.742188 9.351562 -10.957031 Z M 9.351562 -10.957031 "/></g></g></g><g fill="#6c3223" fill-opacity="1"><g transform="translate(249.125728, 77.692191)"><g><path d="M 22.132812 -9.351562 C 21.472656 -7.398438 20.210938 -6.109375 18.480469 -6.109375 L 18.449219 -6.109375 C 19.140625 -7.304688 19.613281 -8.847656 19.613281 -10.453125 C 19.613281 -12.121094 19.078125 -13.851562 17.757812 -15.269531 C 19.867188 -16.6875 21.3125 -19.457031 21.3125 -21.878906 C 21.3125 -25.09375 18.890625 -27.011719 16.152344 -27.296875 C 15.867188 -27.328125 15.519531 -27.359375 15.082031 -27.359375 C 14.199219 -27.359375 13.035156 -27.234375 11.835938 -26.636719 C 11.835938 -27.671875 10.894531 -28.304688 9.824219 -28.304688 C 8.753906 -28.304688 7.554688 -27.640625 7.113281 -26.195312 L -1.132812 -2.863281 C -1.289062 -2.457031 -1.355469 -2.046875 -1.355469 -1.730469 C -1.355469 -0.441406 -0.378906 0.316406 0.691406 0.316406 C 1.792969 0.316406 3.023438 -0.472656 3.335938 -2.203125 C 4.4375 -0.628906 6.863281 0.347656 9.351562 0.347656 C 11.742188 0.347656 14.292969 -0.472656 16.183594 -2.425781 C 16.78125 -2.234375 17.410156 -2.140625 18.164062 -2.140625 C 21.847656 -2.140625 24.808594 -4.691406 25.910156 -8.53125 C 25.941406 -8.6875 25.972656 -8.847656 25.972656 -8.972656 C 25.972656 -10.011719 24.964844 -10.609375 23.957031 -10.609375 C 23.171875 -10.609375 22.382812 -10.230469 22.132812 -9.351562 Z M 10.863281 -18.480469 C 9.855469 -18.070312 8.941406 -16.78125 8.941406 -15.332031 C 8.941406 -15.050781 8.972656 -14.765625 9.035156 -14.480469 C 9.570312 -12.8125 10.988281 -12.308594 12.183594 -12.308594 C 12.65625 -12.308594 13.097656 -12.371094 13.410156 -12.5 C 14.199219 -12.308594 14.640625 -11.617188 14.640625 -10.578125 C 14.640625 -10.042969 14.546875 -9.445312 14.292969 -8.753906 C 13.160156 -9.855469 11.460938 -10.671875 9.351562 -10.703125 C 8.34375 -10.703125 7.148438 -10.546875 6.359375 -10.199219 L 10.136719 -20.652344 C 10.925781 -22.195312 12.6875 -22.953125 14.042969 -22.953125 C 15.175781 -22.953125 16.089844 -22.257812 16.089844 -21.1875 C 16.089844 -20.273438 15.648438 -18.765625 14.136719 -18.132812 C 13.820312 -18.386719 12.972656 -18.699219 12.058594 -18.699219 C 11.648438 -18.699219 11.238281 -18.636719 10.863281 -18.480469 Z M 9.003906 -3.621094 C 7.839844 -3.621094 7.179688 -4.15625 7.179688 -4.878906 C 7.179688 -5.039062 7.179688 -5.195312 7.242188 -5.351562 C 7.492188 -6.171875 8.3125 -6.738281 9.507812 -6.738281 C 10.796875 -6.738281 11.617188 -6.042969 12.46875 -5.195312 C 11.492188 -4.125 10.136719 -3.621094 9.003906 -3.621094 Z M 9.003906 -3.621094 "/></g></g></g><g fill="#6c3223" fill-opacity="1"><g transform="translate(270.124396, 77.692191)"><g><path d="M 15.929688 -8.878906 C 14.546875 -5.226562 11.238281 -3.746094 8.5625 -3.746094 C 6.265625 -3.746094 4.816406 -4.847656 4.816406 -6.296875 C 4.816406 -6.578125 4.847656 -6.863281 4.972656 -7.179688 L 5.226562 -7.777344 C 6.140625 -7.210938 7.273438 -6.832031 8.53125 -6.832031 C 11.398438 -6.832031 13.914062 -8.625 14.765625 -11.460938 C 14.921875 -12.058594 15.015625 -12.65625 15.015625 -13.191406 C 15.015625 -16.183594 12.65625 -18.480469 9.097656 -18.480469 C 6.296875 -18.480469 3.558594 -16.84375 2.457031 -13.695312 L 0.597656 -8.3125 C 0.347656 -7.554688 0.1875 -6.800781 0.1875 -6.078125 C 0.1875 -2.328125 3.714844 0 8.3125 0 C 12.6875 0 17.660156 -2.140625 19.738281 -8.152344 C 19.835938 -8.40625 19.867188 -8.625 19.867188 -8.816406 C 19.867188 -9.792969 18.984375 -10.328125 18.039062 -10.328125 C 17.160156 -10.328125 16.214844 -9.855469 15.929688 -8.878906 Z M 9.003906 -14.765625 C 9.886719 -14.765625 10.453125 -14.042969 10.453125 -13.128906 C 10.453125 -12.875 10.421875 -12.625 10.328125 -12.371094 C 10.011719 -11.332031 9.066406 -10.957031 8.121094 -10.957031 C 7.523438 -10.957031 6.925781 -11.082031 6.484375 -11.332031 L 7.148438 -13.222656 C 7.492188 -14.199219 8.28125 -14.765625 9.003906 -14.765625 Z M 9.003906 -14.765625 "/></g></g></g><g fill="#6c3223" fill-opacity="1"><g transform="translate(285.046988, 77.692191)"><g><path d="M 19.738281 -10.640625 C 18.859375 -10.640625 17.882812 -10.105469 17.503906 -8.910156 C 16.277344 -5.039062 14.292969 -3.746094 12.875 -3.746094 C 12.339844 -3.746094 12.027344 -4.03125 12.027344 -4.535156 C 12.027344 -4.785156 12.089844 -5.101562 12.183594 -5.445312 L 15.710938 -15.648438 C 15.835938 -16.023438 15.898438 -16.371094 15.898438 -16.6875 C 15.898438 -18.070312 14.765625 -18.796875 13.601562 -18.796875 C 12.71875 -18.796875 11.804688 -18.386719 11.300781 -17.597656 C 10.640625 -18.007812 9.414062 -18.480469 7.808594 -18.480469 C 5.730469 -18.480469 3.464844 -17.347656 2.613281 -14.921875 L -0.347656 -6.453125 C -0.535156 -5.886719 -0.660156 -5.320312 -0.660156 -4.753906 C -0.660156 -2.140625 1.449219 0 4.21875 0 C 5.699219 0 7.210938 -0.660156 8.375 -1.699219 C 9.382812 -0.25 11.617188 0 12.5625 0 C 15.175781 0 18.667969 -1.324219 20.683594 -6.421875 C 21.125 -7.652344 21.472656 -8.4375 21.472656 -9.003906 C 21.472656 -10.074219 20.652344 -10.640625 19.738281 -10.640625 Z M 9.351562 -10.957031 L 7.839844 -6.265625 C 7.179688 -4.21875 5.980469 -3.746094 5.320312 -3.746094 C 4.628906 -3.746094 4.28125 -4.1875 4.28125 -4.910156 C 4.28125 -5.320312 4.375 -5.699219 4.46875 -5.980469 L 6.484375 -12.308594 C 7.082031 -14.230469 7.964844 -14.480469 8.46875 -14.480469 C 9.066406 -14.480469 9.726562 -13.882812 9.726562 -12.8125 C 9.726562 -12.339844 9.601562 -11.742188 9.351562 -10.957031 Z M 9.351562 -10.957031 "/></g></g></g><g fill="#6c3223" fill-opacity="1"><g transform="translate(301.57518, 77.692191)"><g><path d="M 17.566406 -9.066406 C 16.183594 -5.289062 14.449219 -3.746094 12.972656 -3.746094 C 12.40625 -3.746094 12.089844 -4.03125 12.089844 -4.566406 C 12.089844 -4.785156 12.152344 -5.039062 12.246094 -5.351562 L 14.703125 -12.339844 C 14.921875 -12.972656 15.050781 -13.539062 15.050781 -14.074219 C 15.050781 -16.589844 12.90625 -18.480469 10.390625 -18.480469 C 9.160156 -18.480469 8.1875 -18.199219 7.367188 -17.597656 C 7.179688 -18.164062 6.390625 -18.480469 5.542969 -18.480469 C 4.660156 -18.480469 3.808594 -18.070312 3.496094 -17.191406 L -1.761719 -2.488281 C -1.859375 -2.203125 -1.890625 -1.953125 -1.890625 -1.699219 C -1.890625 -0.535156 -0.976562 0.0625 0.03125 0.0625 C 1.132812 0.0625 2.394531 -0.628906 2.863281 -2.046875 C 3.96875 -5.101562 5.476562 -9.414062 6.546875 -12.4375 C 7.398438 -14.011719 8.5 -14.765625 9.382812 -14.765625 C 9.949219 -14.765625 10.359375 -14.386719 10.359375 -13.789062 C 10.359375 -13.570312 10.296875 -13.285156 10.199219 -13.003906 L 7.902344 -6.515625 C 7.652344 -5.792969 7.492188 -5.101562 7.492188 -4.4375 C 7.492188 -1.542969 9.886719 0 12.5625 0 C 15.773438 0 19.203125 -2.171875 21.378906 -8.3125 C 21.472656 -8.5625 21.535156 -8.816406 21.535156 -9.035156 C 21.535156 -10.042969 20.621094 -10.578125 19.675781 -10.578125 C 18.828125 -10.578125 17.882812 -10.105469 17.566406 -9.066406 Z M 17.566406 -9.066406 "/></g></g></g><g fill="#3a1214" fill-opacity="1"><g transform="translate(197.272615, 101.397137)"><g><path d="M 3.921875 0.109375 C 3.628906 0.109375 3.414062 0.015625 3.28125 -0.171875 C 3.144531 -0.359375 3.097656 -0.625 3.140625 -0.96875 L 4.359375 -8.59375 L 1.703125 -8.59375 C 1.441406 -8.59375 1.238281 -8.648438 1.09375 -8.765625 C 0.945312 -8.878906 0.875 -9.035156 0.875 -9.234375 C 0.875 -9.515625 0.957031 -9.734375 1.125 -9.890625 C 1.289062 -10.054688 1.515625 -10.140625 1.796875 -10.140625 L 9.09375 -10.140625 C 9.644531 -10.140625 9.921875 -9.929688 9.921875 -9.515625 C 9.921875 -9.222656 9.835938 -8.992188 9.671875 -8.828125 C 9.515625 -8.671875 9.289062 -8.59375 9 -8.59375 L 6.203125 -8.59375 L 4.953125 -0.8125 C 4.847656 -0.195312 4.503906 0.109375 3.921875 0.109375 Z M 3.921875 0.109375 "/></g></g></g><g fill="#3a1214" fill-opacity="1"><g transform="translate(207.995321, 101.397137)"><g><path d="M 1.265625 0.109375 C 0.984375 0.109375 0.773438 0.015625 0.640625 -0.171875 C 0.515625 -0.367188 0.476562 -0.632812 0.53125 -0.96875 L 1.859375 -9.34375 C 1.941406 -9.945312 2.285156 -10.25 2.890625 -10.25 C 3.171875 -10.25 3.375 -10.160156 3.5 -9.984375 C 3.632812 -9.804688 3.679688 -9.550781 3.640625 -9.21875 L 3.125 -6 C 3.644531 -6.78125 4.4375 -7.171875 5.5 -7.171875 C 6.269531 -7.171875 6.851562 -6.929688 7.25 -6.453125 C 7.65625 -5.984375 7.78125 -5.238281 7.625 -4.21875 L 7.09375 -0.796875 C 7 -0.191406 6.648438 0.109375 6.046875 0.109375 C 5.773438 0.109375 5.570312 0.015625 5.4375 -0.171875 C 5.300781 -0.359375 5.253906 -0.613281 5.296875 -0.9375 L 5.828125 -4.1875 C 5.992188 -5.238281 5.644531 -5.765625 4.78125 -5.765625 C 4.21875 -5.765625 3.765625 -5.585938 3.421875 -5.234375 C 3.085938 -4.878906 2.875 -4.394531 2.78125 -3.78125 L 2.296875 -0.796875 C 2.210938 -0.191406 1.867188 0.109375 1.265625 0.109375 Z M 1.265625 0.109375 "/></g></g></g><g fill="#3a1214" fill-opacity="1"><g transform="translate(218.200574, 101.397137)"><g><path d="M 4.03125 0.140625 C 3.320312 0.140625 2.703125 0.0078125 2.171875 -0.25 C 1.648438 -0.507812 1.242188 -0.878906 0.953125 -1.359375 C 0.671875 -1.835938 0.53125 -2.398438 0.53125 -3.046875 C 0.53125 -3.828125 0.695312 -4.523438 1.03125 -5.140625 C 1.363281 -5.765625 1.820312 -6.257812 2.40625 -6.625 C 2.988281 -6.988281 3.65625 -7.171875 4.40625 -7.171875 C 5 -7.171875 5.488281 -7.066406 5.875 -6.859375 C 6.269531 -6.660156 6.582031 -6.390625 6.8125 -6.046875 C 7.039062 -5.710938 7.191406 -5.328125 7.265625 -4.890625 C 7.347656 -4.460938 7.363281 -4.023438 7.3125 -3.578125 C 7.289062 -3.378906 7.238281 -3.25 7.15625 -3.1875 C 7.070312 -3.132812 6.953125 -3.109375 6.796875 -3.109375 L 2.21875 -3.109375 C 2.195312 -2.523438 2.359375 -2.0625 2.703125 -1.71875 C 3.046875 -1.382812 3.539062 -1.21875 4.1875 -1.21875 C 4.46875 -1.21875 4.757812 -1.25 5.0625 -1.3125 C 5.375 -1.375 5.65625 -1.476562 5.90625 -1.625 C 6.125 -1.757812 6.3125 -1.800781 6.46875 -1.75 C 6.632812 -1.695312 6.75 -1.597656 6.8125 -1.453125 C 6.882812 -1.304688 6.894531 -1.144531 6.84375 -0.96875 C 6.789062 -0.789062 6.671875 -0.632812 6.484375 -0.5 C 6.148438 -0.28125 5.75 -0.117188 5.28125 -0.015625 C 4.820312 0.0859375 4.40625 0.140625 4.03125 0.140625 Z M 4.40625 -5.953125 C 4 -5.953125 3.65625 -5.867188 3.375 -5.703125 C 3.101562 -5.535156 2.882812 -5.3125 2.71875 -5.03125 C 2.550781 -4.75 2.4375 -4.453125 2.375 -4.140625 L 5.921875 -4.140625 C 5.960938 -4.660156 5.863281 -5.09375 5.625 -5.4375 C 5.382812 -5.78125 4.976562 -5.953125 4.40625 -5.953125 Z M 4.40625 -5.953125 "/></g></g></g><g fill="#3a1214" fill-opacity="1"><g transform="translate(227.78776, 101.397137)"><g/></g></g><g fill="#3a1214" fill-opacity="1"><g transform="translate(233.479699, 101.397137)"><g><path d="M 4.3125 0.140625 C 3.707031 0.140625 3.101562 0.0703125 2.5 -0.0625 C 1.90625 -0.195312 1.359375 -0.410156 0.859375 -0.703125 C 0.640625 -0.835938 0.503906 -1.007812 0.453125 -1.21875 C 0.410156 -1.425781 0.429688 -1.617188 0.515625 -1.796875 C 0.609375 -1.984375 0.75 -2.113281 0.9375 -2.1875 C 1.125 -2.269531 1.34375 -2.238281 1.59375 -2.09375 C 2.039062 -1.84375 2.507812 -1.664062 3 -1.5625 C 3.5 -1.457031 3.992188 -1.40625 4.484375 -1.40625 C 5.148438 -1.40625 5.675781 -1.535156 6.0625 -1.796875 C 6.457031 -2.054688 6.65625 -2.394531 6.65625 -2.8125 C 6.65625 -3.132812 6.539062 -3.398438 6.3125 -3.609375 C 6.082031 -3.828125 5.6875 -4 5.125 -4.125 L 3.5625 -4.5 C 2.863281 -4.664062 2.304688 -4.957031 1.890625 -5.375 C 1.484375 -5.800781 1.28125 -6.375 1.28125 -7.09375 C 1.28125 -7.757812 1.460938 -8.328125 1.828125 -8.796875 C 2.203125 -9.273438 2.691406 -9.640625 3.296875 -9.890625 C 3.910156 -10.148438 4.578125 -10.28125 5.296875 -10.28125 C 5.804688 -10.28125 6.347656 -10.207031 6.921875 -10.0625 C 7.503906 -9.925781 8.03125 -9.703125 8.5 -9.390625 C 8.695312 -9.253906 8.816406 -9.082031 8.859375 -8.875 C 8.898438 -8.664062 8.878906 -8.472656 8.796875 -8.296875 C 8.710938 -8.117188 8.570312 -8 8.375 -7.9375 C 8.175781 -7.882812 7.929688 -7.945312 7.640625 -8.125 C 7.304688 -8.320312 6.925781 -8.46875 6.5 -8.5625 C 6.082031 -8.664062 5.675781 -8.71875 5.28125 -8.71875 C 4.632812 -8.71875 4.109375 -8.582031 3.703125 -8.3125 C 3.304688 -8.050781 3.109375 -7.695312 3.109375 -7.25 C 3.109375 -6.882812 3.210938 -6.601562 3.421875 -6.40625 C 3.628906 -6.21875 3.941406 -6.070312 4.359375 -5.96875 L 5.921875 -5.59375 C 6.773438 -5.394531 7.414062 -5.070312 7.84375 -4.625 C 8.269531 -4.1875 8.484375 -3.65625 8.484375 -3.03125 C 8.484375 -2.332031 8.289062 -1.742188 7.90625 -1.265625 C 7.519531 -0.796875 7.007812 -0.441406 6.375 -0.203125 C 5.75 0.0234375 5.0625 0.140625 4.3125 0.140625 Z M 4.3125 0.140625 "/></g></g></g><g fill="#3a1214" fill-opacity="1"><g transform="translate(244.346141, 101.397137)"><g><path d="M 2.78125 0.140625 C 2.34375 0.140625 1.945312 0.0390625 1.59375 -0.15625 C 1.238281 -0.351562 0.953125 -0.613281 0.734375 -0.9375 C 0.523438 -1.257812 0.421875 -1.625 0.421875 -2.03125 C 0.421875 -2.769531 0.738281 -3.3125 1.375 -3.65625 C 2.007812 -4 3.007812 -4.171875 4.375 -4.171875 L 5.359375 -4.171875 L 5.40625 -4.421875 C 5.476562 -4.878906 5.40625 -5.226562 5.1875 -5.46875 C 4.976562 -5.707031 4.601562 -5.828125 4.0625 -5.828125 C 3.75 -5.828125 3.441406 -5.796875 3.140625 -5.734375 C 2.847656 -5.671875 2.546875 -5.566406 2.234375 -5.421875 C 2.003906 -5.328125 1.804688 -5.3125 1.640625 -5.375 C 1.472656 -5.445312 1.351562 -5.5625 1.28125 -5.71875 C 1.207031 -5.875 1.207031 -6.039062 1.28125 -6.21875 C 1.363281 -6.394531 1.539062 -6.539062 1.8125 -6.65625 C 2.21875 -6.832031 2.632812 -6.960938 3.0625 -7.046875 C 3.5 -7.128906 3.910156 -7.171875 4.296875 -7.171875 C 5.054688 -7.171875 5.648438 -7.03125 6.078125 -6.75 C 6.515625 -6.476562 6.804688 -6.101562 6.953125 -5.625 C 7.109375 -5.144531 7.140625 -4.597656 7.046875 -3.984375 L 6.546875 -0.78125 C 6.453125 -0.1875 6.125 0.109375 5.5625 0.109375 C 5.300781 0.109375 5.101562 0.0234375 4.96875 -0.140625 C 4.84375 -0.304688 4.804688 -0.550781 4.859375 -0.875 L 4.890625 -1.015625 C 4.648438 -0.617188 4.335938 -0.328125 3.953125 -0.140625 C 3.578125 0.046875 3.1875 0.140625 2.78125 0.140625 Z M 3.328125 -1.09375 C 3.785156 -1.09375 4.179688 -1.238281 4.515625 -1.53125 C 4.847656 -1.820312 5.050781 -2.21875 5.125 -2.71875 L 5.203125 -3.140625 L 4.453125 -3.140625 C 3.609375 -3.140625 3.015625 -3.066406 2.671875 -2.921875 C 2.335938 -2.785156 2.171875 -2.523438 2.171875 -2.140625 C 2.171875 -1.804688 2.28125 -1.546875 2.5 -1.359375 C 2.726562 -1.179688 3.003906 -1.09375 3.328125 -1.09375 Z M 3.328125 -1.09375 "/></g></g></g><g fill="#3a1214" fill-opacity="1"><g transform="translate(254.005202, 101.397137)"><g><path d="M 3.875 0.140625 C 2.757812 0.140625 1.921875 -0.148438 1.359375 -0.734375 C 0.804688 -1.328125 0.53125 -2.101562 0.53125 -3.0625 C 0.53125 -3.582031 0.609375 -4.085938 0.765625 -4.578125 C 0.921875 -5.066406 1.160156 -5.503906 1.484375 -5.890625 C 1.816406 -6.285156 2.234375 -6.597656 2.734375 -6.828125 C 3.242188 -7.054688 3.835938 -7.171875 4.515625 -7.171875 C 4.859375 -7.171875 5.195312 -7.128906 5.53125 -7.046875 C 5.863281 -6.960938 6.160156 -6.859375 6.421875 -6.734375 C 6.660156 -6.609375 6.804688 -6.453125 6.859375 -6.265625 C 6.910156 -6.078125 6.898438 -5.898438 6.828125 -5.734375 C 6.765625 -5.566406 6.648438 -5.445312 6.484375 -5.375 C 6.328125 -5.3125 6.15625 -5.332031 5.96875 -5.4375 C 5.539062 -5.664062 5.09375 -5.78125 4.625 -5.78125 C 4.082031 -5.78125 3.644531 -5.644531 3.3125 -5.375 C 2.976562 -5.101562 2.738281 -4.757812 2.59375 -4.34375 C 2.445312 -3.9375 2.375 -3.515625 2.375 -3.078125 C 2.375 -2.523438 2.507812 -2.082031 2.78125 -1.75 C 3.050781 -1.414062 3.503906 -1.25 4.140625 -1.25 C 4.316406 -1.25 4.507812 -1.269531 4.71875 -1.3125 C 4.925781 -1.363281 5.144531 -1.453125 5.375 -1.578125 C 5.550781 -1.660156 5.707031 -1.671875 5.84375 -1.609375 C 5.988281 -1.546875 6.097656 -1.4375 6.171875 -1.28125 C 6.253906 -1.132812 6.273438 -0.972656 6.234375 -0.796875 C 6.191406 -0.617188 6.0625 -0.46875 5.84375 -0.34375 C 5.601562 -0.1875 5.296875 -0.0664062 4.921875 0.015625 C 4.546875 0.0976562 4.195312 0.140625 3.875 0.140625 Z M 3.875 0.140625 "/></g></g></g><g fill="#3a1214" fill-opacity="1"><g transform="translate(262.586235, 101.397137)"><g><path d="M 1.265625 0.109375 C 0.972656 0.109375 0.765625 0.0195312 0.640625 -0.15625 C 0.515625 -0.332031 0.472656 -0.582031 0.515625 -0.90625 L 1.359375 -6.28125 C 1.453125 -6.851562 1.789062 -7.140625 2.375 -7.140625 C 2.644531 -7.140625 2.84375 -7.050781 2.96875 -6.875 C 3.101562 -6.707031 3.148438 -6.460938 3.109375 -6.140625 L 3.0625 -5.84375 C 3.289062 -6.25 3.597656 -6.5625 3.984375 -6.78125 C 4.378906 -7.007812 4.832031 -7.140625 5.34375 -7.171875 C 5.613281 -7.191406 5.789062 -7.15625 5.875 -7.0625 C 5.96875 -6.96875 6.015625 -6.804688 6.015625 -6.578125 C 6.015625 -6.265625 5.941406 -6.03125 5.796875 -5.875 C 5.660156 -5.726562 5.4375 -5.644531 5.125 -5.625 L 4.71875 -5.578125 C 4.070312 -5.515625 3.609375 -5.320312 3.328125 -5 C 3.054688 -4.675781 2.875 -4.226562 2.78125 -3.65625 L 2.3125 -0.75 C 2.226562 -0.175781 1.878906 0.109375 1.265625 0.109375 Z M 1.265625 0.109375 "/></g></g></g><g fill="#3a1214" fill-opacity="1"><g transform="translate(270.017382, 101.397137)"><g><path d="M 4.03125 0.140625 C 3.320312 0.140625 2.703125 0.0078125 2.171875 -0.25 C 1.648438 -0.507812 1.242188 -0.878906 0.953125 -1.359375 C 0.671875 -1.835938 0.53125 -2.398438 0.53125 -3.046875 C 0.53125 -3.828125 0.695312 -4.523438 1.03125 -5.140625 C 1.363281 -5.765625 1.820312 -6.257812 2.40625 -6.625 C 2.988281 -6.988281 3.65625 -7.171875 4.40625 -7.171875 C 5 -7.171875 5.488281 -7.066406 5.875 -6.859375 C 6.269531 -6.660156 6.582031 -6.390625 6.8125 -6.046875 C 7.039062 -5.710938 7.191406 -5.328125 7.265625 -4.890625 C 7.347656 -4.460938 7.363281 -4.023438 7.3125 -3.578125 C 7.289062 -3.378906 7.238281 -3.25 7.15625 -3.1875 C 7.070312 -3.132812 6.953125 -3.109375 6.796875 -3.109375 L 2.21875 -3.109375 C 2.195312 -2.523438 2.359375 -2.0625 2.703125 -1.71875 C 3.046875 -1.382812 3.539062 -1.21875 4.1875 -1.21875 C 4.46875 -1.21875 4.757812 -1.25 5.0625 -1.3125 C 5.375 -1.375 5.65625 -1.476562 5.90625 -1.625 C 6.125 -1.757812 6.3125 -1.800781 6.46875 -1.75 C 6.632812 -1.695312 6.75 -1.597656 6.8125 -1.453125 C 6.882812 -1.304688 6.894531 -1.144531 6.84375 -0.96875 C 6.789062 -0.789062 6.671875 -0.632812 6.484375 -0.5 C 6.148438 -0.28125 5.75 -0.117188 5.28125 -0.015625 C 4.820312 0.0859375 4.40625 0.140625 4.03125 0.140625 Z M 4.40625 -5.953125 C 4 -5.953125 3.65625 -5.867188 3.375 -5.703125 C 3.101562 -5.535156 2.882812 -5.3125 2.71875 -5.03125 C 2.550781 -4.75 2.4375 -4.453125 2.375 -4.140625 L 5.921875 -4.140625 C 5.960938 -4.660156 5.863281 -5.09375 5.625 -5.4375 C 5.382812 -5.78125 4.976562 -5.953125 4.40625 -5.953125 Z M 4.40625 -5.953125 "/></g></g></g><g fill="#3a1214" fill-opacity="1"><g transform="translate(279.604568, 101.397137)"><g><path d="M 3.15625 0.140625 C 2.363281 0.140625 1.722656 -0.128906 1.234375 -0.671875 C 0.753906 -1.222656 0.515625 -1.960938 0.515625 -2.890625 C 0.515625 -3.691406 0.65625 -4.414062 0.9375 -5.0625 C 1.21875 -5.707031 1.625 -6.21875 2.15625 -6.59375 C 2.695312 -6.976562 3.328125 -7.171875 4.046875 -7.171875 C 4.554688 -7.171875 5.003906 -7.054688 5.390625 -6.828125 C 5.785156 -6.609375 6.078125 -6.28125 6.265625 -5.84375 L 6.828125 -9.40625 C 6.910156 -9.96875 7.253906 -10.25 7.859375 -10.25 C 8.140625 -10.25 8.34375 -10.160156 8.46875 -9.984375 C 8.601562 -9.816406 8.644531 -9.566406 8.59375 -9.234375 L 7.265625 -0.8125 C 7.148438 -0.195312 6.800781 0.109375 6.21875 0.109375 C 5.945312 0.109375 5.75 0.015625 5.625 -0.171875 C 5.507812 -0.367188 5.476562 -0.632812 5.53125 -0.96875 L 5.5625 -1.140625 C 5.289062 -0.742188 4.953125 -0.429688 4.546875 -0.203125 C 4.140625 0.0234375 3.675781 0.140625 3.15625 0.140625 Z M 3.859375 -1.21875 C 4.304688 -1.21875 4.679688 -1.34375 4.984375 -1.59375 C 5.285156 -1.851562 5.515625 -2.195312 5.671875 -2.625 C 5.835938 -3.050781 5.921875 -3.523438 5.921875 -4.046875 C 5.921875 -4.617188 5.785156 -5.054688 5.515625 -5.359375 C 5.242188 -5.660156 4.867188 -5.8125 4.390625 -5.8125 C 3.953125 -5.8125 3.578125 -5.6875 3.265625 -5.4375 C 2.960938 -5.1875 2.726562 -4.847656 2.5625 -4.421875 C 2.40625 -3.992188 2.328125 -3.507812 2.328125 -2.96875 C 2.328125 -2.40625 2.460938 -1.972656 2.734375 -1.671875 C 3.003906 -1.367188 3.378906 -1.21875 3.859375 -1.21875 Z M 3.859375 -1.21875 "/></g></g></g><g fill="#3a1214" fill-opacity="1"><g transform="translate(290.025423, 101.397137)"><g/></g></g><g fill="#3a1214" fill-opacity="1"><g transform="translate(295.717363, 101.397137)"><g><path d="M 2.0625 0.109375 C 1.707031 0.109375 1.460938 -0.015625 1.328125 -0.265625 C 1.191406 -0.515625 1.242188 -0.816406 1.484375 -1.171875 L 6.546875 -8.59375 L 2.4375 -8.59375 C 1.863281 -8.59375 1.578125 -8.816406 1.578125 -9.265625 C 1.578125 -9.546875 1.65625 -9.757812 1.8125 -9.90625 C 1.976562 -10.0625 2.203125 -10.140625 2.484375 -10.140625 L 7.90625 -10.140625 C 8.25 -10.140625 8.488281 -10.078125 8.625 -9.953125 C 8.769531 -9.828125 8.84375 -9.65625 8.84375 -9.4375 C 8.84375 -9.238281 8.796875 -9.050781 8.703125 -8.875 C 8.617188 -8.695312 8.5 -8.492188 8.34375 -8.265625 L 3.109375 -0.5 C 2.828125 -0.09375 2.476562 0.109375 2.0625 0.109375 Z M 2.0625 0.109375 "/></g></g></g></svg>