<svg xmlns="http://www.w3.org/2000/svg" xmlns:xlink="http://www.w3.org/1999/xlink" width="500" zoomAndPan="magnify" viewBox="0 0 375 374.999991" height="500" preserveAspectRatio="xMidYMid meet" version="1.0"><defs><g/></defs><path fill="#ac6943" d="M 168.511719 120.367188 C 177.441406 133.933594 172.160156 148.164062 156.703125 152.160156 C 141.253906 156.144531 121.480469 148.390625 112.542969 134.828125 C 103.613281 121.257812 108.894531 107.035156 124.355469 103.035156 C 139.808594 99.054688 159.578125 106.804688 168.511719 120.367188 " fill-opacity="1" fill-rule="nonzero"/><path fill="#804d30" d="M 136.9375 125.460938 C 136.734375 124.742188 136.527344 124.027344 136.308594 123.324219 C 135.828125 121.679688 135.335938 120.070312 134.789062 118.523438 C 134.226562 116.984375 133.660156 115.507812 132.992188 114.136719 C 132.308594 112.769531 131.609375 111.488281 130.859375 110.339844 C 129.355469 108.035156 127.730469 106.210938 126.464844 104.964844 C 125.183594 103.71875 124.355469 103.042969 124.359375 103.035156 C 124.355469 103.042969 125.671875 103.597656 127.570312 104.679688 C 129.472656 105.757812 131.902344 107.371094 134.078125 109.507812 C 135.171875 110.574219 136.246094 111.753906 137.171875 113.0625 C 138.117188 114.355469 139.007812 115.75 139.753906 117.246094 C 140.511719 118.730469 141.179688 120.296875 141.757812 121.917969 C 142.117188 122.96875 142.457031 124.03125 142.789062 125.101562 C 142.765625 125.101562 142.734375 125.101562 142.707031 125.101562 C 140.816406 125.101562 138.886719 125.222656 136.9375 125.460938 " fill-opacity="1" fill-rule="nonzero"/><path fill="#b3744f" d="M 147.027344 125.324219 C 146.570312 125.277344 146.105469 125.234375 145.640625 125.203125 C 145.621094 125.148438 145.601562 125.09375 145.582031 125.039062 C 145.277344 124.191406 144.972656 123.402344 144.667969 122.671875 C 144.039062 121.21875 143.410156 120.023438 142.929688 119.199219 C 142.441406 118.367188 142.148438 117.902344 142.148438 117.902344 C 142.148438 117.902344 142.59375 118.34375 143.253906 119.140625 C 143.917969 119.941406 144.78125 121.089844 145.605469 122.515625 C 146.015625 123.226562 146.429688 123.996094 146.804688 124.828125 C 146.878906 124.992188 146.953125 125.15625 147.027344 125.324219 " fill-opacity="1" fill-rule="nonzero"/><path fill="#b3744f" d="M 132.3125 126.230469 C 132.058594 125.367188 131.820312 124.496094 131.582031 123.625 C 131.332031 122.625 131.078125 121.632812 130.804688 120.648438 C 130.539062 119.671875 130.277344 118.710938 129.996094 117.78125 C 129.71875 116.855469 129.449219 115.960938 129.144531 115.117188 C 128.832031 114.269531 128.53125 113.484375 128.222656 112.757812 C 127.597656 111.300781 126.96875 110.105469 126.492188 109.277344 C 126.011719 108.449219 125.703125 107.984375 125.703125 107.984375 C 125.703125 107.984375 126.15625 108.421875 126.808594 109.226562 C 127.472656 110.015625 128.34375 111.167969 129.160156 112.597656 C 129.578125 113.304688 129.988281 114.074219 130.359375 114.910156 C 130.75 115.738281 131.121094 116.621094 131.457031 117.539062 C 131.789062 118.457031 132.101562 119.40625 132.394531 120.386719 C 132.675781 121.359375 132.949219 122.351562 133.230469 123.347656 C 133.453125 124.203125 133.679688 125.066406 133.902344 125.917969 C 133.375 126.011719 132.839844 126.117188 132.3125 126.230469 " fill-opacity="1" fill-rule="nonzero"/><path fill="#4f2217" d="M 194.832031 162.972656 C 197.210938 173.257812 217.6875 180.035156 240.777344 178.144531 C 263.875 176.238281 280.867188 166.382812 278.925781 156.070312 L 194.832031 162.972656 " fill-opacity="1" fill-rule="nonzero"/><path fill="#6b3022" d="M 234.183594 146.613281 C 257.402344 144.707031 277.449219 148.9375 278.933594 156.066406 C 280.4375 163.199219 262.8125 170.523438 239.582031 172.425781 C 216.355469 174.335938 196.316406 170.105469 194.820312 162.972656 C 193.328125 155.851562 210.945312 148.519531 234.183594 146.613281 " fill-opacity="1" fill-rule="nonzero"/><path fill="#512318" d="M 242.78125 160.84375 C 240.917969 160.84375 239.03125 160.828125 237.152344 160.8125 C 234.46875 160.773438 231.785156 160.734375 229.152344 160.71875 C 227.648438 160.707031 226.160156 160.695312 224.695312 160.695312 C 225.734375 159.90625 226.734375 159.082031 227.6875 158.21875 C 228 158.21875 228.3125 158.210938 228.625 158.210938 C 229.394531 158.207031 230.167969 158.207031 230.945312 158.207031 C 232.820312 158.207031 234.714844 158.214844 236.605469 158.222656 C 239.292969 158.257812 241.96875 158.285156 244.613281 158.320312 C 246.488281 158.332031 248.351562 158.34375 250.171875 158.34375 C 250.902344 158.34375 251.625 158.34375 252.339844 158.339844 C 254.84375 158.308594 257.257812 158.277344 259.539062 158.179688 C 261.816406 158.082031 263.964844 157.964844 265.933594 157.8125 C 269.875 157.484375 273.128906 157.058594 275.390625 156.691406 C 277.636719 156.328125 278.910156 156.066406 278.933594 156.066406 C 278.921875 156.066406 277.691406 156.550781 275.5 157.199219 C 273.296875 157.863281 270.125 158.671875 266.242188 159.292969 C 264.304688 159.617188 262.195312 159.90625 259.941406 160.121094 C 257.6875 160.339844 255.304688 160.523438 252.820312 160.640625 C 250.339844 160.75 247.761719 160.8125 245.136719 160.835938 C 244.351562 160.839844 243.570312 160.84375 242.78125 160.84375 " fill-opacity="1" fill-rule="nonzero"/><path fill="#763c2b" d="M 255.015625 157.230469 C 254.304688 157.230469 253.585938 157.230469 252.863281 157.21875 C 251.296875 157.214844 249.707031 157.1875 248.121094 157.164062 C 246.535156 157.132812 244.949219 157.105469 243.378906 157.082031 C 241.820312 157.058594 240.273438 157.03125 238.789062 157.023438 C 237.832031 157.015625 236.894531 157.007812 235.984375 157.007812 C 235.476562 157.007812 234.976562 157.011719 234.488281 157.015625 C 233.117188 157.027344 231.820312 157.046875 230.625 157.078125 C 230.003906 157.09375 229.410156 157.113281 228.84375 157.136719 C 228.972656 157.007812 229.097656 156.886719 229.222656 156.757812 C 229.6875 156.722656 230.167969 156.691406 230.664062 156.660156 C 231.863281 156.578125 233.160156 156.511719 234.535156 156.472656 C 235.902344 156.417969 237.355469 156.382812 238.839844 156.375 C 239.679688 156.359375 240.535156 156.355469 241.402344 156.355469 C 242.074219 156.355469 242.753906 156.359375 243.4375 156.367188 C 245.003906 156.382812 246.597656 156.40625 248.183594 156.421875 C 249.769531 156.453125 251.359375 156.484375 252.929688 156.507812 C 254.484375 156.527344 256.03125 156.550781 257.519531 156.566406 C 258.390625 156.570312 259.246094 156.574219 260.082031 156.574219 C 260.671875 156.574219 261.25 156.574219 261.816406 156.570312 C 263.191406 156.558594 264.480469 156.542969 265.679688 156.507812 C 268.066406 156.441406 270.0625 156.34375 271.464844 156.253906 C 272.863281 156.167969 273.664062 156.101562 273.664062 156.101562 C 273.664062 156.101562 272.863281 156.238281 271.449219 156.40625 C 270.050781 156.578125 268.039062 156.777344 265.636719 156.933594 C 264.4375 157.003906 263.144531 157.078125 261.773438 157.121094 C 260.398438 157.167969 258.957031 157.203125 257.464844 157.21875 C 256.660156 157.226562 255.84375 157.230469 255.015625 157.230469 " fill-opacity="1" fill-rule="nonzero"/><path fill="#ac6943" d="M 231.261719 154.550781 C 220.238281 167.488281 199.34375 173.988281 184.585938 169.0625 C 169.839844 164.140625 166.820312 149.652344 177.839844 136.703125 C 188.863281 123.75 209.761719 117.253906 224.511719 122.179688 C 239.261719 127.113281 242.28125 141.597656 231.261719 154.550781 " fill-opacity="1" fill-rule="nonzero"/><path fill="#804d30" d="M 198.835938 152.765625 C 197.398438 152.058594 195.878906 151.382812 194.277344 150.75 C 195.074219 150.046875 195.910156 149.34375 196.785156 148.644531 C 198.390625 147.332031 200.140625 146.03125 201.871094 144.730469 C 203.65625 143.445312 205.433594 142.15625 207.132812 140.867188 C 208.84375 139.589844 210.523438 138.324219 212.074219 137.078125 C 213.609375 135.828125 215.074219 134.613281 216.335938 133.414062 C 217.585938 132.21875 218.71875 131.066406 219.660156 129.972656 C 221.539062 127.773438 222.757812 125.828125 223.484375 124.425781 C 224.199219 123.023438 224.503906 122.183594 224.511719 122.183594 C 224.503906 122.183594 224.660156 123.183594 224.539062 124.78125 C 224.421875 126.386719 223.980469 128.589844 222.734375 130.996094 C 222.117188 132.207031 221.339844 133.46875 220.328125 134.75 C 219.324219 136.035156 218.175781 137.351562 216.808594 138.664062 C 215.460938 139.976562 213.949219 141.296875 212.328125 142.601562 C 210.683594 143.902344 208.960938 145.214844 207.242188 146.515625 C 205.472656 147.8125 203.714844 149.109375 201.984375 150.378906 C 200.914062 151.183594 199.855469 151.980469 198.835938 152.765625 " fill-opacity="1" fill-rule="nonzero"/><path fill="#b3744f" d="M 202.132812 154.542969 C 201.726562 154.300781 201.308594 154.066406 200.882812 153.832031 C 201.25 153.5625 201.621094 153.292969 201.992188 153.027344 C 203.066406 152.273438 204.128906 151.515625 205.160156 150.757812 C 206.199219 150.011719 207.214844 149.273438 208.1875 148.546875 C 209.148438 147.824219 210.074219 147.117188 210.925781 146.433594 C 211.761719 145.753906 212.554688 145.101562 213.242188 144.484375 C 214.640625 143.265625 215.710938 142.199219 216.421875 141.441406 C 217.140625 140.679688 217.527344 140.230469 217.527344 140.230469 C 217.527344 140.230469 217.257812 140.734375 216.699219 141.558594 C 216.144531 142.390625 215.265625 143.542969 214.042969 144.84375 C 213.429688 145.492188 212.738281 146.183594 211.957031 146.894531 C 211.175781 147.605469 210.335938 148.347656 209.410156 149.089844 C 208.5 149.839844 207.519531 150.597656 206.503906 151.355469 C 205.488281 152.117188 204.433594 152.878906 203.386719 153.648438 C 202.96875 153.945312 202.550781 154.242188 202.132812 154.542969 " fill-opacity="1" fill-rule="nonzero"/><path fill="#b3744f" d="M 191.84375 149.835938 C 191.671875 149.773438 191.496094 149.710938 191.320312 149.652344 C 191.796875 149.035156 192.390625 148.332031 193.101562 147.582031 C 193.71875 146.921875 194.398438 146.234375 195.183594 145.523438 C 195.960938 144.8125 196.804688 144.070312 197.734375 143.332031 C 198.644531 142.578125 199.613281 141.820312 200.636719 141.058594 C 201.648438 140.292969 202.707031 139.539062 203.757812 138.773438 C 204.820312 138.019531 205.882812 137.261719 206.921875 136.507812 C 207.960938 135.753906 208.980469 135.015625 209.945312 134.292969 C 210.90625 133.566406 211.839844 132.867188 212.683594 132.179688 C 213.519531 131.496094 214.3125 130.84375 215.003906 130.238281 C 216.394531 129.007812 217.46875 127.941406 218.1875 127.183594 C 218.894531 126.429688 219.277344 125.976562 219.285156 125.976562 C 219.285156 125.976562 219.019531 126.480469 218.460938 127.308594 C 217.898438 128.132812 217.027344 129.28125 215.796875 130.585938 C 215.1875 131.242188 214.496094 131.933594 213.71875 132.644531 C 212.9375 133.355469 212.09375 134.089844 211.175781 134.835938 C 210.257812 135.582031 209.277344 136.339844 208.261719 137.109375 C 207.242188 137.863281 206.195312 138.625 205.144531 139.390625 C 204.082031 140.148438 203.027344 140.910156 201.980469 141.65625 C 200.949219 142.40625 199.925781 143.148438 198.957031 143.871094 C 197.996094 144.601562 197.070312 145.300781 196.222656 145.984375 C 195.378906 146.664062 194.59375 147.320312 193.898438 147.929688 C 193.109375 148.628906 192.421875 149.269531 191.84375 149.835938 " fill-opacity="1" fill-rule="nonzero"/><path fill="#6b3022" d="M 157.046875 160.226562 C 143.777344 172.320312 121.855469 177.320312 108.078125 171.390625 C 94.300781 165.460938 93.882812 150.855469 107.144531 138.761719 C 120.414062 126.664062 142.332031 121.671875 156.113281 127.597656 C 169.890625 133.527344 170.3125 148.132812 157.046875 160.226562 " fill-opacity="1" fill-rule="nonzero"/><path fill="#512318" d="M 108.085938 171.390625 C 108.09375 171.390625 108.113281 170.390625 108.515625 168.808594 C 108.929688 167.226562 109.753906 165.066406 111.425781 162.761719 C 112.246094 161.601562 113.238281 160.390625 114.480469 159.199219 C 115.699219 157.988281 117.078125 156.757812 118.675781 155.558594 C 120.253906 154.34375 121.980469 153.136719 123.839844 151.953125 C 125.671875 150.757812 127.640625 149.585938 129.59375 148.414062 C 131.59375 147.265625 133.585938 146.105469 135.507812 144.949219 C 137.441406 143.796875 139.328125 142.65625 141.082031 141.53125 C 142.839844 140.394531 144.515625 139.285156 145.984375 138.1875 C 147.4375 137.078125 148.769531 136.019531 149.902344 134.996094 C 152.152344 132.945312 153.714844 131.101562 154.6875 129.753906 C 155.65625 128.410156 156.105469 127.597656 156.113281 127.597656 C 156.109375 127.597656 156.085938 128.597656 155.675781 130.179688 C 155.269531 131.769531 154.441406 133.921875 152.761719 136.230469 C 151.941406 137.386719 150.949219 138.59375 149.707031 139.792969 C 148.492188 140.996094 147.109375 142.230469 145.519531 143.433594 C 143.945312 144.648438 142.207031 145.851562 140.359375 147.035156 C 138.492188 148.210938 136.546875 149.394531 134.605469 150.574219 C 132.621094 151.730469 130.644531 152.898438 128.695312 154.042969 C 126.769531 155.199219 124.878906 156.332031 123.117188 157.464844 C 121.367188 158.597656 119.695312 159.707031 118.222656 160.800781 C 116.773438 161.90625 115.433594 162.972656 114.304688 163.996094 C 112.042969 166.050781 110.492188 167.894531 109.515625 169.238281 C 108.546875 170.578125 108.097656 171.390625 108.085938 171.390625 " fill-opacity="1" fill-rule="nonzero"/><path fill="#763c2b" d="M 111.796875 169.011719 C 111.796875 169.011719 112.140625 168.53125 112.84375 167.746094 C 113.550781 166.964844 114.625 165.878906 116.074219 164.679688 C 116.792969 164.070312 117.613281 163.433594 118.515625 162.777344 C 119.410156 162.128906 120.386719 161.453125 121.433594 160.777344 C 122.480469 160.097656 123.585938 159.410156 124.734375 158.726562 C 125.871094 158.042969 127.054688 157.355469 128.234375 156.667969 C 129.433594 155.996094 130.625 155.316406 131.789062 154.640625 C 132.949219 153.964844 134.089844 153.304688 135.1875 152.652344 C 136.277344 152 137.320312 151.367188 138.285156 150.746094 C 139.238281 150.132812 140.132812 149.535156 140.941406 148.96875 C 142.539062 147.851562 143.796875 146.871094 144.644531 146.164062 C 145.488281 145.460938 145.945312 145.046875 145.949219 145.046875 C 145.949219 145.046875 145.597656 145.523438 144.890625 146.304688 C 144.246094 147.019531 143.308594 147.976562 142.050781 149.054688 C 138.992188 150.441406 136.519531 152.171875 134.828125 154.21875 C 134.238281 154.589844 133.632812 154.960938 133.015625 155.328125 C 131.867188 156.011719 130.683594 156.691406 129.507812 157.382812 C 128.3125 158.058594 127.128906 158.746094 125.960938 159.414062 C 124.792969 160.085938 123.648438 160.753906 122.554688 161.402344 C 121.472656 162.054688 120.421875 162.695312 119.464844 163.308594 C 118.5 163.929688 117.613281 164.523438 116.800781 165.082031 C 115.199219 166.203125 113.949219 167.183594 113.101562 167.886719 C 112.257812 168.59375 111.796875 169.011719 111.796875 169.011719 " fill-opacity="1" fill-rule="nonzero"/><path fill="#763c2b" d="M 116.085938 154.96875 C 116.085938 154.96875 116.429688 154.492188 117.140625 153.710938 C 117.839844 152.921875 118.910156 151.835938 120.363281 150.632812 C 121.085938 150.035156 121.898438 149.394531 122.808594 148.742188 C 123.703125 148.082031 124.675781 147.40625 125.722656 146.734375 C 126.769531 146.054688 127.871094 145.367188 129.019531 144.6875 C 130.160156 143.996094 131.347656 143.3125 132.527344 142.632812 C 133.71875 141.949219 134.917969 141.277344 136.074219 140.59375 C 137.242188 139.929688 138.386719 139.261719 139.476562 138.609375 C 140.5625 137.953125 141.605469 137.324219 142.570312 136.707031 C 143.53125 136.085938 144.425781 135.496094 145.230469 134.933594 C 146.828125 133.804688 148.089844 132.824219 148.929688 132.121094 C 149.773438 131.417969 150.230469 131.003906 150.238281 131.003906 C 150.238281 131.003906 149.890625 131.480469 149.183594 132.257812 C 148.472656 133.046875 147.410156 134.132812 145.953125 135.335938 C 145.230469 135.941406 144.421875 136.582031 143.515625 137.230469 C 142.621094 137.882812 141.640625 138.5625 140.597656 139.238281 C 139.554688 139.917969 138.453125 140.597656 137.304688 141.289062 C 136.152344 141.964844 134.976562 142.652344 133.796875 143.339844 C 132.605469 144.023438 131.414062 144.707031 130.242188 145.375 C 129.082031 146.050781 127.9375 146.710938 126.851562 147.359375 C 125.761719 148.015625 124.714844 148.648438 123.753906 149.265625 C 122.792969 149.886719 121.898438 150.480469 121.097656 151.042969 C 119.492188 152.164062 118.238281 153.144531 117.390625 153.847656 C 116.539062 154.554688 116.085938 154.96875 116.085938 154.96875 " fill-opacity="1" fill-rule="nonzero"/><path fill="#3a1314" d="M 184.511719 147.640625 C 206.289062 153.054688 218.941406 165.328125 212.777344 175.066406 C 206.609375 184.792969 183.957031 188.292969 162.179688 182.886719 C 140.410156 177.472656 127.753906 165.195312 133.921875 155.472656 C 140.082031 145.730469 162.738281 142.230469 184.511719 147.640625 " fill-opacity="1" fill-rule="nonzero"/><path fill="#512318" d="M 133.925781 155.464844 C 133.921875 155.464844 133.921875 155.460938 133.921875 155.460938 C 133.921875 155.460938 133.921875 155.460938 133.925781 155.460938 L 133.925781 155.464844 " fill-opacity="1" fill-rule="nonzero"/><path fill="#2e0e0e" d="M 206.234375 175.414062 C 204.035156 175.414062 201.417969 175.296875 198.59375 174.933594 C 196.601562 174.695312 194.5 174.359375 192.367188 173.863281 C 190.214844 173.386719 187.992188 172.8125 185.765625 172.117188 C 183.523438 171.417969 181.269531 170.632812 179.011719 169.761719 C 176.738281 168.902344 174.488281 167.96875 172.226562 167.03125 C 169.984375 166.070312 167.742188 165.105469 165.507812 164.1875 C 163.289062 163.265625 161.097656 162.367188 158.945312 161.539062 C 156.785156 160.726562 154.695312 159.949219 152.660156 159.300781 C 150.613281 158.65625 148.660156 158.078125 146.820312 157.613281 C 143.125 156.691406 139.902344 156.144531 137.589844 155.859375 C 135.363281 155.574219 134.011719 155.480469 133.925781 155.464844 L 133.925781 155.460938 C 134.023438 155.457031 135.5625 155.257812 138.039062 155.15625 C 138.761719 155.128906 139.558594 155.109375 140.425781 155.109375 C 142.632812 155.109375 145.265625 155.226562 148.105469 155.589844 C 150.085938 155.835938 152.1875 156.175781 154.332031 156.664062 C 156.472656 157.144531 158.699219 157.710938 160.929688 158.410156 C 163.164062 159.109375 165.425781 159.898438 167.683594 160.761719 C 169.941406 161.644531 172.203125 162.566406 174.464844 163.492188 C 176.714844 164.445312 178.96875 165.390625 181.1875 166.332031 C 183.40625 167.246094 185.601562 168.152344 187.75 168.980469 C 189.910156 169.792969 192.003906 170.5625 194.039062 171.222656 C 196.085938 171.863281 198.035156 172.4375 199.875 172.90625 C 203.574219 173.824219 206.792969 174.367188 209.105469 174.664062 C 211.410156 174.957031 212.777344 175.054688 212.777344 175.0625 C 212.71875 175.0625 211.171875 175.269531 208.660156 175.367188 C 207.925781 175.394531 207.113281 175.414062 206.234375 175.414062 " fill-opacity="1" fill-rule="nonzero"/><path fill="#481d1d" d="M 208.234375 173.324219 C 208.234375 173.320312 207.417969 173.214844 206.042969 172.957031 C 204.667969 172.703125 202.746094 172.292969 200.542969 171.667969 C 199.4375 171.367188 198.265625 171.011719 197.046875 170.605469 C 195.835938 170.199219 194.5625 169.753906 193.28125 169.265625 C 191.988281 168.777344 190.679688 168.257812 189.363281 167.707031 C 188.039062 167.164062 186.707031 166.59375 185.378906 166.023438 C 184.0625 165.445312 182.742188 164.863281 181.433594 164.308594 C 180.125 163.742188 178.832031 163.199219 177.574219 162.679688 C 176.316406 162.15625 175.101562 161.660156 173.921875 161.210938 C 172.746094 160.757812 171.617188 160.34375 170.574219 159.980469 C 168.472656 159.253906 166.667969 158.699219 165.375 158.347656 C 164.09375 157.984375 163.34375 157.789062 163.34375 157.789062 C 163.34375 157.789062 164.160156 157.90625 165.535156 158.160156 C 166.921875 158.414062 168.839844 158.832031 171.035156 159.449219 C 172.140625 159.753906 173.320312 160.105469 174.539062 160.515625 C 175.746094 160.917969 177.019531 161.363281 178.300781 161.847656 C 179.59375 162.339844 180.902344 162.867188 182.226562 163.40625 C 183.539062 163.957031 184.875 164.523438 186.203125 165.085938 C 187.53125 165.671875 188.859375 166.242188 190.15625 166.804688 C 191.464844 167.371094 192.75 167.917969 194.003906 168.4375 C 195.269531 168.957031 196.488281 169.460938 197.667969 169.910156 C 198.839844 170.363281 199.960938 170.769531 201.019531 171.136719 C 203.121094 171.863281 204.921875 172.414062 206.207031 172.773438 C 207.496094 173.128906 208.234375 173.320312 208.234375 173.324219 " fill-opacity="1" fill-rule="nonzero"/><path fill="#481d1d" d="M 185.425781 173.824219 C 185.425781 173.824219 184.605469 173.714844 183.234375 173.460938 C 181.851562 173.203125 179.929688 172.789062 177.730469 172.175781 C 176.625 171.863281 175.449219 171.515625 174.234375 171.101562 C 173.015625 170.699219 171.753906 170.257812 170.464844 169.773438 C 169.175781 169.28125 167.863281 168.757812 166.542969 168.210938 C 165.222656 167.667969 163.890625 167.09375 162.566406 166.527344 C 161.246094 165.949219 159.925781 165.371094 158.617188 164.808594 C 157.308594 164.25 156.019531 163.695312 154.765625 163.175781 C 153.503906 162.660156 152.28125 162.15625 151.105469 161.710938 C 149.929688 161.257812 148.804688 160.847656 147.757812 160.480469 C 145.648438 159.75 143.84375 159.203125 142.5625 158.839844 C 141.277344 158.488281 140.523438 158.300781 140.53125 158.296875 C 140.53125 158.296875 141.351562 158.40625 142.726562 158.660156 C 144.097656 158.921875 146.027344 159.328125 148.226562 159.945312 C 149.328125 160.253906 150.511719 160.605469 151.714844 161.015625 C 152.933594 161.421875 154.207031 161.863281 155.488281 162.351562 C 156.777344 162.832031 158.09375 163.359375 159.410156 163.902344 C 160.726562 164.457031 162.054688 165.03125 163.394531 165.597656 C 164.714844 166.171875 166.03125 166.742188 167.34375 167.308594 C 168.648438 167.871094 169.941406 168.417969 171.195312 168.945312 C 172.453125 169.460938 173.679688 169.960938 174.839844 170.40625 C 176.023438 170.855469 177.152344 171.269531 178.199219 171.636719 C 180.300781 172.363281 182.105469 172.917969 183.398438 173.273438 C 184.675781 173.632812 185.425781 173.824219 185.425781 173.824219 " fill-opacity="1" fill-rule="nonzero"/><g fill="#6c3223" fill-opacity="1"><g transform="translate(89.180953, 244.993767)"><g><path d="M 27.046875 -38.5 L 15.179688 -38.5 C 12.925781 -38.453125 11.636719 -36.660156 11.636719 -34.957031 C 11.636719 -33.441406 12.648438 -32.015625 14.996094 -32.015625 L 19.824219 -32.015625 L 12.558594 -10.671875 C 11.316406 -7.082031 9.476562 -5.933594 7.3125 -5.933594 C 6.441406 -5.933594 5.796875 -6.898438 5.796875 -7.3125 C 5.839844 -7.496094 5.839844 -7.726562 5.839844 -7.910156 C 5.839844 -9.707031 4.140625 -10.808594 2.4375 -10.808594 C 0.734375 -10.808594 -1.011719 -9.707031 -1.011719 -7.039062 C -1.011719 -2.804688 2.945312 0.550781 8.003906 0.550781 C 11.867188 0.550781 17.019531 -1.609375 19.457031 -8.648438 L 29.253906 -37.164062 C 29.484375 -37.808594 29.070312 -38.5 28.335938 -38.5 Z M 27.046875 -38.5 "/></g></g></g><g fill="#6c3223" fill-opacity="1"><g transform="translate(112.868963, 244.993767)"><g><path d="M 28.839844 -15.546875 C 27.550781 -15.546875 26.125 -14.765625 25.574219 -13.015625 C 23.78125 -7.359375 20.882812 -5.472656 18.8125 -5.472656 C 18.03125 -5.472656 17.570312 -5.886719 17.570312 -6.625 C 17.570312 -6.992188 17.664062 -7.453125 17.800781 -7.957031 L 22.953125 -22.859375 C 23.136719 -23.414062 23.230469 -23.917969 23.230469 -24.378906 C 23.230469 -26.402344 21.574219 -27.460938 19.871094 -27.460938 C 18.582031 -27.460938 17.25 -26.863281 16.511719 -25.710938 C 15.546875 -26.3125 13.753906 -27 11.40625 -27 C 8.371094 -27 5.058594 -25.34375 3.816406 -21.804688 L -0.507812 -9.429688 C -0.78125 -8.601562 -0.964844 -7.773438 -0.964844 -6.945312 C -0.964844 -3.128906 2.117188 0 6.164062 0 C 8.324219 0 10.535156 -0.964844 12.234375 -2.484375 C 13.707031 -0.367188 16.972656 0 18.351562 0 C 22.171875 0 27.277344 -1.933594 30.21875 -9.382812 C 30.863281 -11.175781 31.371094 -12.328125 31.371094 -13.15625 C 31.371094 -14.71875 30.175781 -15.546875 28.839844 -15.546875 Z M 13.660156 -16.007812 L 11.453125 -9.152344 C 10.488281 -6.164062 8.738281 -5.472656 7.773438 -5.472656 C 6.761719 -5.472656 6.253906 -6.117188 6.253906 -7.175781 C 6.253906 -7.773438 6.394531 -8.324219 6.53125 -8.738281 L 9.476562 -17.984375 C 10.347656 -20.789062 11.636719 -21.160156 12.375 -21.160156 C 13.246094 -21.160156 14.214844 -20.285156 14.214844 -18.722656 C 14.214844 -18.03125 14.027344 -17.15625 13.660156 -16.007812 Z M 13.660156 -16.007812 "/></g></g></g><g fill="#6c3223" fill-opacity="1"><g transform="translate(137.016933, 244.993767)"><g><path d="M 25.484375 -13.660156 C 24.699219 -11.5 23.550781 -10.257812 21.847656 -10.257812 C 20.332031 -10.257812 19.550781 -11.222656 19.550781 -12.464844 C 19.550781 -12.832031 19.640625 -13.292969 19.777344 -13.707031 C 22.261719 -18.214844 23.871094 -20.652344 23.871094 -23.183594 C 23.871094 -25.4375 22.585938 -27 20.054688 -27 C 15.410156 -27 12.097656 -20.46875 12.097656 -15.59375 C 12.097656 -14.488281 12.28125 -13.476562 12.648438 -12.558594 L 10.121094 -8.738281 C 9.429688 -7.726562 7.867188 -5.839844 7.222656 -5.839844 C 7.082031 -5.839844 6.992188 -5.980469 6.992188 -6.253906 C 6.992188 -6.667969 7.039062 -7.082031 7.175781 -7.589844 L 10.671875 -22.355469 C 10.808594 -22.859375 10.855469 -23.320312 10.855469 -23.734375 C 10.855469 -25.941406 9.335938 -27 7.726562 -27 C 6.070312 -27 4.414062 -25.941406 3.957031 -23.964844 L 0.597656 -8.96875 C 0.414062 -8.140625 0.320312 -7.3125 0.320312 -6.578125 C 0.320312 -2.484375 2.945312 0 6.53125 0 C 9.796875 0 11.316406 -1.519531 14.351562 -5.015625 L 16.054688 -7.082031 C 17.339844 -5.566406 19.363281 -4.691406 21.804688 -4.691406 C 26.265625 -4.691406 29.621094 -7.679688 31.046875 -12.417969 C 31.140625 -12.695312 31.140625 -12.925781 31.140625 -13.15625 C 31.140625 -14.671875 29.714844 -15.59375 28.289062 -15.59375 C 27.09375 -15.59375 25.941406 -14.996094 25.484375 -13.660156 Z M 25.484375 -13.660156 "/></g></g></g><g fill="#6c3223" fill-opacity="1"><g transform="translate(160.888918, 244.993767)"><g><path d="M 28.839844 -15.546875 C 27.550781 -15.546875 26.125 -14.765625 25.574219 -13.015625 C 23.78125 -7.359375 20.882812 -5.472656 18.8125 -5.472656 C 18.03125 -5.472656 17.570312 -5.886719 17.570312 -6.625 C 17.570312 -6.992188 17.664062 -7.453125 17.800781 -7.957031 L 22.953125 -22.859375 C 23.136719 -23.414062 23.230469 -23.917969 23.230469 -24.378906 C 23.230469 -26.402344 21.574219 -27.460938 19.871094 -27.460938 C 18.582031 -27.460938 17.25 -26.863281 16.511719 -25.710938 C 15.546875 -26.3125 13.753906 -27 11.40625 -27 C 8.371094 -27 5.058594 -25.34375 3.816406 -21.804688 L -0.507812 -9.429688 C -0.78125 -8.601562 -0.964844 -7.773438 -0.964844 -6.945312 C -0.964844 -3.128906 2.117188 0 6.164062 0 C 8.324219 0 10.535156 -0.964844 12.234375 -2.484375 C 13.707031 -0.367188 16.972656 0 18.351562 0 C 22.171875 0 27.277344 -1.933594 30.21875 -9.382812 C 30.863281 -11.175781 31.371094 -12.328125 31.371094 -13.15625 C 31.371094 -14.71875 30.175781 -15.546875 28.839844 -15.546875 Z M 13.660156 -16.007812 L 11.453125 -9.152344 C 10.488281 -6.164062 8.738281 -5.472656 7.773438 -5.472656 C 6.761719 -5.472656 6.253906 -6.117188 6.253906 -7.175781 C 6.253906 -7.773438 6.394531 -8.324219 6.53125 -8.738281 L 9.476562 -17.984375 C 10.347656 -20.789062 11.636719 -21.160156 12.375 -21.160156 C 13.246094 -21.160156 14.214844 -20.285156 14.214844 -18.722656 C 14.214844 -18.03125 14.027344 -17.15625 13.660156 -16.007812 Z M 13.660156 -16.007812 "/></g></g></g><g fill="#6c3223" fill-opacity="1"><g transform="translate(185.036888, 244.993767)"><g><path d="M 32.335938 -13.660156 C 31.371094 -10.808594 29.53125 -8.921875 27 -8.921875 L 26.953125 -8.921875 C 27.964844 -10.671875 28.65625 -12.925781 28.65625 -15.269531 C 28.65625 -17.710938 27.875 -20.238281 25.941406 -22.308594 C 29.023438 -24.378906 31.140625 -28.425781 31.140625 -31.96875 C 31.140625 -36.660156 27.597656 -39.464844 23.597656 -39.878906 C 23.183594 -39.925781 22.675781 -39.972656 22.03125 -39.972656 C 20.746094 -39.972656 19.042969 -39.789062 17.296875 -38.914062 C 17.296875 -40.433594 15.914062 -41.351562 14.351562 -41.351562 C 12.789062 -41.351562 11.039062 -40.386719 10.394531 -38.269531 L -1.65625 -4.1875 C -1.886719 -3.585938 -1.976562 -2.988281 -1.976562 -2.53125 C -1.976562 -0.644531 -0.550781 0.460938 1.011719 0.460938 C 2.621094 0.460938 4.414062 -0.691406 4.875 -3.21875 C 6.484375 -0.921875 10.027344 0.507812 13.660156 0.507812 C 17.15625 0.507812 20.882812 -0.691406 23.644531 -3.542969 C 24.515625 -3.265625 25.4375 -3.128906 26.539062 -3.128906 C 31.921875 -3.128906 36.246094 -6.855469 37.855469 -12.464844 C 37.902344 -12.695312 37.949219 -12.925781 37.949219 -13.109375 C 37.949219 -14.628906 36.476562 -15.5 35.003906 -15.5 C 33.855469 -15.5 32.703125 -14.949219 32.335938 -13.660156 Z M 15.867188 -27 C 14.398438 -26.402344 13.0625 -24.515625 13.0625 -22.402344 C 13.0625 -21.988281 13.109375 -21.574219 13.203125 -21.160156 C 13.984375 -18.722656 16.054688 -17.984375 17.800781 -17.984375 C 18.492188 -17.984375 19.136719 -18.078125 19.59375 -18.261719 C 20.746094 -17.984375 21.390625 -16.972656 21.390625 -15.457031 C 21.390625 -14.671875 21.25 -13.800781 20.882812 -12.789062 C 19.226562 -14.398438 16.742188 -15.59375 13.660156 -15.640625 C 12.1875 -15.640625 10.441406 -15.410156 9.292969 -14.902344 L 14.8125 -30.175781 C 15.960938 -32.429688 18.535156 -33.53125 20.515625 -33.53125 C 22.171875 -33.53125 23.503906 -32.519531 23.503906 -30.957031 C 23.503906 -29.621094 22.859375 -27.414062 20.652344 -26.496094 C 20.191406 -26.863281 18.949219 -27.324219 17.617188 -27.324219 C 17.019531 -27.324219 16.421875 -27.230469 15.867188 -27 Z M 13.15625 -5.289062 C 11.453125 -5.289062 10.488281 -6.070312 10.488281 -7.128906 C 10.488281 -7.359375 10.488281 -7.589844 10.578125 -7.820312 C 10.949219 -9.015625 12.144531 -9.84375 13.890625 -9.84375 C 15.777344 -9.84375 16.972656 -8.832031 18.214844 -7.589844 C 16.789062 -6.027344 14.8125 -5.289062 13.15625 -5.289062 Z M 13.15625 -5.289062 "/></g></g></g><g fill="#6c3223" fill-opacity="1"><g transform="translate(215.716299, 244.993767)"><g><path d="M 23.273438 -12.972656 C 21.25 -7.636719 16.421875 -5.472656 12.511719 -5.472656 C 9.152344 -5.472656 7.039062 -7.082031 7.039062 -9.199219 C 7.039062 -9.613281 7.082031 -10.027344 7.269531 -10.488281 L 7.636719 -11.363281 C 8.96875 -10.535156 10.625 -9.980469 12.464844 -9.980469 C 16.652344 -9.980469 20.332031 -12.601562 21.574219 -16.742188 C 21.804688 -17.617188 21.941406 -18.492188 21.941406 -19.273438 C 21.941406 -23.644531 18.492188 -27 13.292969 -27 C 9.199219 -27 5.199219 -24.609375 3.585938 -20.007812 L 0.875 -12.144531 C 0.507812 -11.039062 0.277344 -9.933594 0.277344 -8.878906 C 0.277344 -3.402344 5.425781 0 12.144531 0 C 18.535156 0 25.804688 -3.128906 28.839844 -11.914062 C 28.976562 -12.28125 29.023438 -12.601562 29.023438 -12.878906 C 29.023438 -14.304688 27.738281 -15.085938 26.355469 -15.085938 C 25.070312 -15.085938 23.6875 -14.398438 23.273438 -12.972656 Z M 13.15625 -21.574219 C 14.441406 -21.574219 15.269531 -20.515625 15.269531 -19.179688 C 15.269531 -18.8125 15.226562 -18.445312 15.085938 -18.078125 C 14.628906 -16.558594 13.246094 -16.007812 11.867188 -16.007812 C 10.992188 -16.007812 10.121094 -16.191406 9.476562 -16.558594 L 10.441406 -19.320312 C 10.949219 -20.746094 12.097656 -21.574219 13.15625 -21.574219 Z M 13.15625 -21.574219 "/></g></g></g><g fill="#6c3223" fill-opacity="1"><g transform="translate(237.518461, 244.993767)"><g><path d="M 28.839844 -15.546875 C 27.550781 -15.546875 26.125 -14.765625 25.574219 -13.015625 C 23.78125 -7.359375 20.882812 -5.472656 18.8125 -5.472656 C 18.03125 -5.472656 17.570312 -5.886719 17.570312 -6.625 C 17.570312 -6.992188 17.664062 -7.453125 17.800781 -7.957031 L 22.953125 -22.859375 C 23.136719 -23.414062 23.230469 -23.917969 23.230469 -24.378906 C 23.230469 -26.402344 21.574219 -27.460938 19.871094 -27.460938 C 18.582031 -27.460938 17.25 -26.863281 16.511719 -25.710938 C 15.546875 -26.3125 13.753906 -27 11.40625 -27 C 8.371094 -27 5.058594 -25.34375 3.816406 -21.804688 L -0.507812 -9.429688 C -0.78125 -8.601562 -0.964844 -7.773438 -0.964844 -6.945312 C -0.964844 -3.128906 2.117188 0 6.164062 0 C 8.324219 0 10.535156 -0.964844 12.234375 -2.484375 C 13.707031 -0.367188 16.972656 0 18.351562 0 C 22.171875 0 27.277344 -1.933594 30.21875 -9.382812 C 30.863281 -11.175781 31.371094 -12.328125 31.371094 -13.15625 C 31.371094 -14.71875 30.175781 -15.546875 28.839844 -15.546875 Z M 13.660156 -16.007812 L 11.453125 -9.152344 C 10.488281 -6.164062 8.738281 -5.472656 7.773438 -5.472656 C 6.761719 -5.472656 6.253906 -6.117188 6.253906 -7.175781 C 6.253906 -7.773438 6.394531 -8.324219 6.53125 -8.738281 L 9.476562 -17.984375 C 10.347656 -20.789062 11.636719 -21.160156 12.375 -21.160156 C 13.246094 -21.160156 14.214844 -20.285156 14.214844 -18.722656 C 14.214844 -18.03125 14.027344 -17.15625 13.660156 -16.007812 Z M 13.660156 -16.007812 "/></g></g></g><g fill="#6c3223" fill-opacity="1"><g transform="translate(261.666431, 244.993767)"><g><path d="M 25.667969 -13.246094 C 23.644531 -7.726562 21.113281 -5.472656 18.949219 -5.472656 C 18.121094 -5.472656 17.664062 -5.886719 17.664062 -6.667969 C 17.664062 -6.992188 17.753906 -7.359375 17.894531 -7.820312 L 21.480469 -18.03125 C 21.804688 -18.949219 21.988281 -19.777344 21.988281 -20.5625 C 21.988281 -24.242188 18.859375 -27 15.179688 -27 C 13.386719 -27 11.960938 -26.585938 10.761719 -25.710938 C 10.488281 -26.539062 9.335938 -27 8.09375 -27 C 6.808594 -27 5.566406 -26.402344 5.105469 -25.113281 L -2.574219 -3.632812 C -2.714844 -3.21875 -2.761719 -2.851562 -2.761719 -2.484375 C -2.761719 -0.78125 -1.425781 0.09375 0.046875 0.09375 C 1.65625 0.09375 3.496094 -0.921875 4.1875 -2.988281 C 5.796875 -7.453125 8.003906 -13.753906 9.566406 -18.167969 C 10.808594 -20.46875 12.417969 -21.574219 13.707031 -21.574219 C 14.535156 -21.574219 15.132812 -21.019531 15.132812 -20.148438 C 15.132812 -19.824219 15.042969 -19.410156 14.902344 -18.996094 L 11.546875 -9.519531 C 11.175781 -8.464844 10.949219 -7.453125 10.949219 -6.484375 C 10.949219 -2.253906 14.441406 0 18.351562 0 C 23.042969 0 28.058594 -3.171875 31.230469 -12.144531 C 31.371094 -12.511719 31.460938 -12.878906 31.460938 -13.203125 C 31.460938 -14.671875 30.128906 -15.457031 28.75 -15.457031 C 27.507812 -15.457031 26.125 -14.765625 25.667969 -13.246094 Z M 25.667969 -13.246094 "/></g></g></g><g fill="#3a1214" fill-opacity="1"><g transform="translate(109.278608, 269.793791)"><g><path d="M 5.734375 0.171875 C 5.296875 0.171875 4.976562 0.03125 4.78125 -0.25 C 4.59375 -0.53125 4.53125 -0.914062 4.59375 -1.40625 L 6.359375 -12.5625 L 2.484375 -12.5625 C 2.097656 -12.5625 1.800781 -12.644531 1.59375 -12.8125 C 1.382812 -12.976562 1.28125 -13.203125 1.28125 -13.484375 C 1.28125 -13.898438 1.398438 -14.222656 1.640625 -14.453125 C 1.890625 -14.691406 2.21875 -14.8125 2.625 -14.8125 L 13.296875 -14.8125 C 14.085938 -14.8125 14.484375 -14.507812 14.484375 -13.90625 C 14.484375 -13.476562 14.363281 -13.144531 14.125 -12.90625 C 13.894531 -12.675781 13.566406 -12.5625 13.140625 -12.5625 L 9.046875 -12.5625 L 7.25 -1.171875 C 7.09375 -0.273438 6.585938 0.171875 5.734375 0.171875 Z M 5.734375 0.171875 "/></g></g></g><g fill="#3a1214" fill-opacity="1"><g transform="translate(124.944665, 269.793791)"><g><path d="M 1.84375 0.171875 C 1.4375 0.171875 1.140625 0.03125 0.953125 -0.25 C 0.765625 -0.539062 0.707031 -0.925781 0.78125 -1.40625 L 2.703125 -13.65625 C 2.828125 -14.53125 3.332031 -14.96875 4.21875 -14.96875 C 4.625 -14.96875 4.925781 -14.835938 5.125 -14.578125 C 5.320312 -14.328125 5.382812 -13.957031 5.3125 -13.46875 L 4.5625 -8.75 C 5.332031 -9.90625 6.492188 -10.484375 8.046875 -10.484375 C 9.160156 -10.484375 10.007812 -10.132812 10.59375 -9.4375 C 11.1875 -8.75 11.363281 -7.65625 11.125 -6.15625 L 10.359375 -1.15625 C 10.222656 -0.269531 9.71875 0.171875 8.84375 0.171875 C 8.4375 0.171875 8.132812 0.0351562 7.9375 -0.234375 C 7.738281 -0.515625 7.675781 -0.890625 7.75 -1.359375 L 8.5 -6.109375 C 8.757812 -7.648438 8.257812 -8.421875 7 -8.421875 C 6.164062 -8.421875 5.5 -8.160156 5 -7.640625 C 4.507812 -7.117188 4.191406 -6.410156 4.046875 -5.515625 L 3.359375 -1.15625 C 3.234375 -0.269531 2.726562 0.171875 1.84375 0.171875 Z M 1.84375 0.171875 "/></g></g></g><g fill="#3a1214" fill-opacity="1"><g transform="translate(139.854713, 269.793791)"><g><path d="M 5.875 0.203125 C 4.84375 0.203125 3.941406 0.015625 3.171875 -0.359375 C 2.410156 -0.742188 1.820312 -1.285156 1.40625 -1.984375 C 0.988281 -2.691406 0.78125 -3.515625 0.78125 -4.453125 C 0.78125 -5.597656 1.019531 -6.625 1.5 -7.53125 C 1.976562 -8.4375 2.644531 -9.15625 3.5 -9.6875 C 4.351562 -10.21875 5.335938 -10.484375 6.453125 -10.484375 C 7.304688 -10.484375 8.019531 -10.332031 8.59375 -10.03125 C 9.164062 -9.738281 9.617188 -9.34375 9.953125 -8.84375 C 10.285156 -8.351562 10.507812 -7.789062 10.625 -7.15625 C 10.738281 -6.53125 10.757812 -5.890625 10.6875 -5.234375 C 10.65625 -4.929688 10.578125 -4.738281 10.453125 -4.65625 C 10.328125 -4.570312 10.15625 -4.53125 9.9375 -4.53125 L 3.234375 -4.53125 C 3.203125 -3.675781 3.4375 -3.003906 3.9375 -2.515625 C 4.445312 -2.023438 5.171875 -1.78125 6.109375 -1.78125 C 6.523438 -1.78125 6.957031 -1.828125 7.40625 -1.921875 C 7.851562 -2.015625 8.257812 -2.164062 8.625 -2.375 C 8.945312 -2.570312 9.222656 -2.628906 9.453125 -2.546875 C 9.691406 -2.472656 9.863281 -2.332031 9.96875 -2.125 C 10.070312 -1.914062 10.082031 -1.679688 10 -1.421875 C 9.925781 -1.160156 9.75 -0.929688 9.46875 -0.734375 C 8.976562 -0.410156 8.394531 -0.171875 7.71875 -0.015625 C 7.050781 0.128906 6.4375 0.203125 5.875 0.203125 Z M 6.421875 -8.6875 C 5.835938 -8.6875 5.34375 -8.5625 4.9375 -8.3125 C 4.539062 -8.070312 4.21875 -7.75 3.96875 -7.34375 C 3.726562 -6.9375 3.5625 -6.503906 3.46875 -6.046875 L 8.65625 -6.046875 C 8.707031 -6.804688 8.554688 -7.4375 8.203125 -7.9375 C 7.859375 -8.4375 7.265625 -8.6875 6.421875 -8.6875 Z M 6.421875 -8.6875 "/></g></g></g><g fill="#3a1214" fill-opacity="1"><g transform="translate(153.861755, 269.793791)"><g/></g></g><g fill="#3a1214" fill-opacity="1"><g transform="translate(162.177775, 269.793791)"><g><path d="M 6.296875 0.203125 C 5.421875 0.203125 4.546875 0.109375 3.671875 -0.078125 C 2.796875 -0.273438 1.992188 -0.59375 1.265625 -1.03125 C 0.941406 -1.226562 0.742188 -1.476562 0.671875 -1.78125 C 0.597656 -2.09375 0.628906 -2.378906 0.765625 -2.640625 C 0.898438 -2.910156 1.101562 -3.097656 1.375 -3.203125 C 1.644531 -3.316406 1.960938 -3.269531 2.328125 -3.0625 C 2.984375 -2.695312 3.671875 -2.4375 4.390625 -2.28125 C 5.117188 -2.132812 5.835938 -2.0625 6.546875 -2.0625 C 7.523438 -2.0625 8.296875 -2.25 8.859375 -2.625 C 9.429688 -3 9.71875 -3.492188 9.71875 -4.109375 C 9.71875 -4.578125 9.550781 -4.96875 9.21875 -5.28125 C 8.882812 -5.59375 8.3125 -5.84375 7.5 -6.03125 L 5.203125 -6.578125 C 4.179688 -6.816406 3.367188 -7.242188 2.765625 -7.859375 C 2.171875 -8.484375 1.875 -9.316406 1.875 -10.359375 C 1.875 -11.335938 2.140625 -12.171875 2.671875 -12.859375 C 3.210938 -13.554688 3.929688 -14.085938 4.828125 -14.453125 C 5.722656 -14.828125 6.695312 -15.015625 7.75 -15.015625 C 8.488281 -15.015625 9.273438 -14.910156 10.109375 -14.703125 C 10.953125 -14.503906 11.71875 -14.175781 12.40625 -13.71875 C 12.707031 -13.519531 12.890625 -13.269531 12.953125 -12.96875 C 13.015625 -12.664062 12.976562 -12.382812 12.84375 -12.125 C 12.71875 -11.863281 12.507812 -11.691406 12.21875 -11.609375 C 11.9375 -11.523438 11.585938 -11.609375 11.171875 -11.859375 C 10.679688 -12.160156 10.128906 -12.382812 9.515625 -12.53125 C 8.898438 -12.675781 8.296875 -12.75 7.703125 -12.75 C 6.765625 -12.75 6 -12.550781 5.40625 -12.15625 C 4.820312 -11.769531 4.53125 -11.242188 4.53125 -10.578125 C 4.53125 -10.046875 4.679688 -9.640625 4.984375 -9.359375 C 5.296875 -9.085938 5.753906 -8.875 6.359375 -8.71875 L 8.65625 -8.171875 C 9.894531 -7.878906 10.828125 -7.410156 11.453125 -6.765625 C 12.078125 -6.117188 12.390625 -5.34375 12.390625 -4.4375 C 12.390625 -3.40625 12.109375 -2.539062 11.546875 -1.84375 C 10.984375 -1.15625 10.238281 -0.640625 9.3125 -0.296875 C 8.394531 0.0351562 7.390625 0.203125 6.296875 0.203125 Z M 6.296875 0.203125 "/></g></g></g><g fill="#3a1214" fill-opacity="1"><g transform="translate(178.053831, 269.793791)"><g><path d="M 4.046875 0.203125 C 3.421875 0.203125 2.847656 0.0625 2.328125 -0.21875 C 1.804688 -0.507812 1.390625 -0.890625 1.078125 -1.359375 C 0.765625 -1.835938 0.609375 -2.375 0.609375 -2.96875 C 0.609375 -4.039062 1.070312 -4.828125 2 -5.328125 C 2.9375 -5.835938 4.398438 -6.09375 6.390625 -6.09375 L 7.828125 -6.09375 L 7.890625 -6.46875 C 8.003906 -7.125 7.90625 -7.625 7.59375 -7.96875 C 7.28125 -8.320312 6.726562 -8.5 5.9375 -8.5 C 5.476562 -8.5 5.03125 -8.453125 4.59375 -8.359375 C 4.164062 -8.273438 3.71875 -8.128906 3.25 -7.921875 C 2.925781 -7.773438 2.640625 -7.75 2.390625 -7.84375 C 2.148438 -7.945312 1.976562 -8.113281 1.875 -8.34375 C 1.769531 -8.570312 1.773438 -8.816406 1.890625 -9.078125 C 2.003906 -9.335938 2.253906 -9.550781 2.640625 -9.71875 C 3.234375 -9.988281 3.847656 -10.179688 4.484375 -10.296875 C 5.117188 -10.421875 5.71875 -10.484375 6.28125 -10.484375 C 7.382812 -10.484375 8.25 -10.28125 8.875 -9.875 C 9.507812 -9.46875 9.9375 -8.910156 10.15625 -8.203125 C 10.382812 -7.503906 10.429688 -6.707031 10.296875 -5.8125 L 9.5625 -1.140625 C 9.425781 -0.265625 8.945312 0.171875 8.125 0.171875 C 7.75 0.171875 7.46875 0.0507812 7.28125 -0.1875 C 7.09375 -0.4375 7.03125 -0.800781 7.09375 -1.28125 L 7.140625 -1.484375 C 6.785156 -0.898438 6.332031 -0.472656 5.78125 -0.203125 C 5.226562 0.0664062 4.648438 0.203125 4.046875 0.203125 Z M 4.875 -1.59375 C 5.53125 -1.59375 6.101562 -1.804688 6.59375 -2.234375 C 7.082031 -2.660156 7.382812 -3.238281 7.5 -3.96875 L 7.609375 -4.578125 L 6.515625 -4.578125 C 5.273438 -4.578125 4.40625 -4.472656 3.90625 -4.265625 C 3.414062 -4.066406 3.171875 -3.6875 3.171875 -3.125 C 3.171875 -2.632812 3.332031 -2.253906 3.65625 -1.984375 C 3.988281 -1.722656 4.394531 -1.59375 4.875 -1.59375 Z M 4.875 -1.59375 "/></g></g></g><g fill="#3a1214" fill-opacity="1"><g transform="translate(192.165883, 269.793791)"><g><path d="M 5.671875 0.203125 C 4.035156 0.203125 2.8125 -0.222656 2 -1.078125 C 1.1875 -1.941406 0.78125 -3.070312 0.78125 -4.46875 C 0.78125 -5.226562 0.894531 -5.96875 1.125 -6.6875 C 1.351562 -7.40625 1.703125 -8.046875 2.171875 -8.609375 C 2.648438 -9.179688 3.257812 -9.632812 4 -9.96875 C 4.738281 -10.3125 5.601562 -10.484375 6.59375 -10.484375 C 7.09375 -10.484375 7.585938 -10.421875 8.078125 -10.296875 C 8.566406 -10.179688 9.003906 -10.023438 9.390625 -9.828125 C 9.734375 -9.648438 9.941406 -9.421875 10.015625 -9.140625 C 10.097656 -8.867188 10.085938 -8.613281 9.984375 -8.375 C 9.878906 -8.132812 9.710938 -7.960938 9.484375 -7.859375 C 9.253906 -7.753906 9 -7.78125 8.71875 -7.9375 C 8.101562 -8.269531 7.453125 -8.4375 6.765625 -8.4375 C 5.960938 -8.4375 5.316406 -8.238281 4.828125 -7.84375 C 4.347656 -7.457031 4 -6.960938 3.78125 -6.359375 C 3.570312 -5.753906 3.46875 -5.132812 3.46875 -4.5 C 3.46875 -3.695312 3.664062 -3.050781 4.0625 -2.5625 C 4.457031 -2.070312 5.117188 -1.828125 6.046875 -1.828125 C 6.316406 -1.828125 6.597656 -1.859375 6.890625 -1.921875 C 7.191406 -1.992188 7.515625 -2.125 7.859375 -2.3125 C 8.109375 -2.4375 8.335938 -2.445312 8.546875 -2.34375 C 8.753906 -2.25 8.914062 -2.09375 9.03125 -1.875 C 9.144531 -1.65625 9.171875 -1.414062 9.109375 -1.15625 C 9.046875 -0.90625 8.859375 -0.6875 8.546875 -0.5 C 8.179688 -0.28125 7.722656 -0.109375 7.171875 0.015625 C 6.628906 0.140625 6.128906 0.203125 5.671875 0.203125 Z M 5.671875 0.203125 "/></g></g></g><g fill="#3a1214" fill-opacity="1"><g transform="translate(204.702919, 269.793791)"><g><path d="M 1.84375 0.171875 C 1.425781 0.171875 1.125 0.0390625 0.9375 -0.21875 C 0.75 -0.476562 0.6875 -0.847656 0.75 -1.328125 L 2 -9.171875 C 2.125 -10.015625 2.613281 -10.4375 3.46875 -10.4375 C 3.875 -10.4375 4.171875 -10.3125 4.359375 -10.0625 C 4.546875 -9.8125 4.601562 -9.445312 4.53125 -8.96875 L 4.46875 -8.546875 C 4.8125 -9.128906 5.269531 -9.585938 5.84375 -9.921875 C 6.414062 -10.253906 7.070312 -10.441406 7.8125 -10.484375 C 8.207031 -10.503906 8.46875 -10.441406 8.59375 -10.296875 C 8.726562 -10.160156 8.796875 -9.9375 8.796875 -9.625 C 8.796875 -9.15625 8.691406 -8.8125 8.484375 -8.59375 C 8.273438 -8.382812 7.945312 -8.257812 7.5 -8.21875 L 6.890625 -8.140625 C 5.953125 -8.046875 5.28125 -7.765625 4.875 -7.296875 C 4.46875 -6.828125 4.191406 -6.171875 4.046875 -5.328125 L 3.375 -1.09375 C 3.25 -0.25 2.738281 0.171875 1.84375 0.171875 Z M 1.84375 0.171875 "/></g></g></g><g fill="#3a1214" fill-opacity="1"><g transform="translate(215.559951, 269.793791)"><g><path d="M 5.875 0.203125 C 4.84375 0.203125 3.941406 0.015625 3.171875 -0.359375 C 2.410156 -0.742188 1.820312 -1.285156 1.40625 -1.984375 C 0.988281 -2.691406 0.78125 -3.515625 0.78125 -4.453125 C 0.78125 -5.597656 1.019531 -6.625 1.5 -7.53125 C 1.976562 -8.4375 2.644531 -9.15625 3.5 -9.6875 C 4.351562 -10.21875 5.335938 -10.484375 6.453125 -10.484375 C 7.304688 -10.484375 8.019531 -10.332031 8.59375 -10.03125 C 9.164062 -9.738281 9.617188 -9.34375 9.953125 -8.84375 C 10.285156 -8.351562 10.507812 -7.789062 10.625 -7.15625 C 10.738281 -6.53125 10.757812 -5.890625 10.6875 -5.234375 C 10.65625 -4.929688 10.578125 -4.738281 10.453125 -4.65625 C 10.328125 -4.570312 10.15625 -4.53125 9.9375 -4.53125 L 3.234375 -4.53125 C 3.203125 -3.675781 3.4375 -3.003906 3.9375 -2.515625 C 4.445312 -2.023438 5.171875 -1.78125 6.109375 -1.78125 C 6.523438 -1.78125 6.957031 -1.828125 7.40625 -1.921875 C 7.851562 -2.015625 8.257812 -2.164062 8.625 -2.375 C 8.945312 -2.570312 9.222656 -2.628906 9.453125 -2.546875 C 9.691406 -2.472656 9.863281 -2.332031 9.96875 -2.125 C 10.070312 -1.914062 10.082031 -1.679688 10 -1.421875 C 9.925781 -1.160156 9.75 -0.929688 9.46875 -0.734375 C 8.976562 -0.410156 8.394531 -0.171875 7.71875 -0.015625 C 7.050781 0.128906 6.4375 0.203125 5.875 0.203125 Z M 6.421875 -8.6875 C 5.835938 -8.6875 5.34375 -8.5625 4.9375 -8.3125 C 4.539062 -8.070312 4.21875 -7.75 3.96875 -7.34375 C 3.726562 -6.9375 3.5625 -6.503906 3.46875 -6.046875 L 8.65625 -6.046875 C 8.707031 -6.804688 8.554688 -7.4375 8.203125 -7.9375 C 7.859375 -8.4375 7.265625 -8.6875 6.421875 -8.6875 Z M 6.421875 -8.6875 "/></g></g></g><g fill="#3a1214" fill-opacity="1"><g transform="translate(229.566992, 269.793791)"><g><path d="M 4.625 0.203125 C 3.457031 0.203125 2.519531 -0.191406 1.8125 -0.984375 C 1.101562 -1.785156 0.75 -2.863281 0.75 -4.21875 C 0.75 -5.394531 0.957031 -6.453125 1.375 -7.390625 C 1.789062 -8.335938 2.382812 -9.085938 3.15625 -9.640625 C 3.9375 -10.203125 4.859375 -10.484375 5.921875 -10.484375 C 6.660156 -10.484375 7.3125 -10.316406 7.875 -9.984375 C 8.445312 -9.648438 8.875 -9.164062 9.15625 -8.53125 L 9.96875 -13.734375 C 10.09375 -14.554688 10.597656 -14.96875 11.484375 -14.96875 C 11.890625 -14.96875 12.1875 -14.84375 12.375 -14.59375 C 12.5625 -14.34375 12.625 -13.972656 12.5625 -13.484375 L 10.609375 -1.171875 C 10.453125 -0.273438 9.945312 0.171875 9.09375 0.171875 C 8.6875 0.171875 8.394531 0.03125 8.21875 -0.25 C 8.039062 -0.539062 7.992188 -0.925781 8.078125 -1.40625 L 8.125 -1.65625 C 7.726562 -1.082031 7.234375 -0.628906 6.640625 -0.296875 C 6.046875 0.0351562 5.375 0.203125 4.625 0.203125 Z M 5.65625 -1.78125 C 6.289062 -1.78125 6.828125 -1.960938 7.265625 -2.328125 C 7.710938 -2.703125 8.054688 -3.203125 8.296875 -3.828125 C 8.535156 -4.453125 8.65625 -5.148438 8.65625 -5.921875 C 8.65625 -6.742188 8.453125 -7.375 8.046875 -7.8125 C 7.648438 -8.257812 7.101562 -8.484375 6.40625 -8.484375 C 5.769531 -8.484375 5.226562 -8.300781 4.78125 -7.9375 C 4.332031 -7.570312 3.988281 -7.078125 3.75 -6.453125 C 3.519531 -5.828125 3.40625 -5.125 3.40625 -4.34375 C 3.40625 -3.519531 3.601562 -2.882812 4 -2.4375 C 4.394531 -2 4.945312 -1.78125 5.65625 -1.78125 Z M 5.65625 -1.78125 "/></g></g></g><g fill="#3a1214" fill-opacity="1"><g transform="translate(244.792039, 269.793791)"><g/></g></g><g fill="#3a1214" fill-opacity="1"><g transform="translate(253.10806, 269.793791)"><g><path d="M 3 0.171875 C 2.476562 0.171875 2.117188 -0.0078125 1.921875 -0.375 C 1.734375 -0.75 1.8125 -1.191406 2.15625 -1.703125 L 9.5625 -12.5625 L 3.5625 -12.5625 C 2.726562 -12.5625 2.3125 -12.890625 2.3125 -13.546875 C 2.3125 -13.953125 2.425781 -14.265625 2.65625 -14.484375 C 2.882812 -14.703125 3.210938 -14.8125 3.640625 -14.8125 L 11.546875 -14.8125 C 12.054688 -14.8125 12.410156 -14.71875 12.609375 -14.53125 C 12.816406 -14.351562 12.921875 -14.109375 12.921875 -13.796875 C 12.921875 -13.503906 12.851562 -13.226562 12.71875 -12.96875 C 12.59375 -12.707031 12.414062 -12.410156 12.1875 -12.078125 L 4.53125 -0.734375 C 4.125 -0.128906 3.613281 0.171875 3 0.171875 Z M 3 0.171875 "/></g></g></g></svg>